<svg version="1.1" id="Layer_1" xmlns="http://www.w3.org/2000/svg" xmlns:xlink="http://www.w3.org/1999/xlink" x="0px" y="0px"
	 width="100%" viewBox="0 0 1240 700" enable-background="new 0 0 1240 700" xml:space="preserve">
<path fill="#FFFEFE" opacity="1.000000" stroke="none" 
	d="
M763.000000,701.000000 
	C508.699341,701.000000 254.898697,701.000000 1.049020,701.000000 
	C1.049020,467.729401 1.049020,234.458786 1.049020,1.094081 
	C414.217377,1.094081 827.434814,1.094081 1240.826172,1.094081 
	C1240.826172,234.333237 1240.826172,467.666595 1240.826172,701.000000 
	C1081.791992,701.000000 922.645996,701.000000 763.000000,701.000000 
M1047.932129,272.168030 
	C1047.875244,267.432709 1047.818359,262.697357 1047.946045,257.502686 
	C1047.946045,257.502686 1047.779175,257.036652 1048.013550,256.192169 
	C1047.955566,254.446136 1047.897583,252.700104 1048.068481,250.056854 
	C1048.068481,232.308060 1048.068481,214.559280 1048.068481,196.432495 
	C1032.668091,198.898193 1016.832642,201.433563 1000.731323,204.011490 
	C1004.916565,266.418152 1004.505615,328.285004 1002.840576,390.222534 
	C1019.168945,390.222534 1034.735474,390.222534 1050.717529,390.222534 
	C1050.463989,385.035645 1050.167847,380.242615 1050.005737,375.445068 
	C1049.268555,353.642822 1048.569214,331.839264 1048.064453,309.206482 
	C1047.971069,307.793488 1047.877686,306.380463 1047.953369,304.500916 
	C1047.953369,304.500916 1047.768555,304.040405 1047.987549,303.124786 
	C1047.894043,298.390533 1047.800537,293.656281 1047.918213,288.022156 
	C1047.849121,283.044312 1047.780029,278.066467 1047.932129,272.168030 
M865.679260,488.971893 
	C867.092224,488.838806 868.505127,488.705750 870.687134,488.383026 
	C871.475403,488.417145 872.263733,488.451263 873.581848,488.873962 
	C875.044312,488.712677 876.506836,488.551361 878.619202,487.897308 
	C880.988770,481.821259 879.047241,476.090576 875.599731,471.519073 
	C868.106628,461.582886 849.396851,465.007843 844.904236,476.746887 
	C839.208740,491.629089 847.730591,504.394409 863.581238,504.638275 
	C865.897034,504.673859 868.240601,504.479095 870.533691,504.138123 
	C878.895874,502.894653 880.160156,500.707001 877.945801,493.886932 
	C872.316589,493.886932 867.161255,493.886932 861.672668,493.418152 
	C861.307800,493.351074 860.942871,493.283997 860.232483,493.149048 
	C860.232483,493.149048 860.032349,492.859314 860.102112,492.253265 
	C860.438599,491.099792 860.775024,489.946289 861.890015,488.551392 
	C862.969666,488.594910 864.049377,488.638397 865.679260,488.971893 
M896.246094,475.917175 
	C897.156311,476.907898 898.066589,477.898590 898.572937,479.111023 
	C898.572937,479.111023 898.115112,479.059662 897.375366,478.942932 
	C896.253479,479.274170 895.131592,479.605438 893.346985,480.296539 
	C891.712402,480.899933 889.944824,481.277222 888.466980,482.146973 
	C882.942749,485.398102 879.980591,491.970673 883.906006,498.529083 
	C886.911377,503.550201 892.945740,505.889587 899.400879,503.698639 
	C900.925720,503.181030 902.543518,502.297302 904.035522,502.441559 
	C908.712769,502.893707 913.350403,503.756104 918.260681,504.498444 
	C918.260681,494.744507 918.362000,486.297119 918.229736,477.853394 
	C918.116394,470.613159 914.606201,466.518463 907.348511,466.194275 
	C901.768799,465.945007 896.087219,466.573639 890.541687,467.412323 
	C886.210571,468.067383 884.700195,471.115082 886.156555,475.608795 
	C887.532715,479.855225 890.541626,476.239044 892.760620,476.547058 
	C893.600159,476.663605 894.546448,476.010864 896.246094,475.917175 
M334.650543,304.974152 
	C334.650543,354.857758 334.650543,404.741333 334.650543,454.722626 
	C349.719543,454.722626 365.626343,454.722626 381.315399,454.722626 
	C381.315399,433.530853 381.315399,412.648163 381.315399,390.823639 
	C386.820984,390.823639 392.458374,391.123138 398.054565,390.769958 
	C418.473938,389.481354 436.921478,383.329590 451.383179,368.043549 
	C472.552246,345.667816 477.791534,305.985504 463.448914,277.304565 
	C447.982513,246.376419 413.865479,236.863037 384.393036,255.248550 
	C383.042633,256.090942 381.617737,256.813904 379.748749,257.860657 
	C379.748749,253.464233 379.748749,249.739258 379.748749,245.576050 
	C363.818176,248.249832 348.317535,250.851456 332.768036,253.461288 
	C333.390625,270.773712 333.988739,287.405853 334.650543,304.974152 
M746.957764,199.606827 
	C736.410034,201.629059 725.862305,203.651291 715.565002,205.625519 
	C715.476929,206.669785 715.417908,206.840836 715.456421,206.986053 
	C731.272156,266.672150 747.123901,326.348785 762.839905,386.061127 
	C763.730408,389.444672 765.170654,390.658691 768.631958,390.632965 
	C785.960022,390.503906 803.291748,390.439026 820.617188,390.690155 
	C824.658691,390.748718 825.969788,389.286804 826.828430,385.602142 
	C840.509460,326.890106 855.834412,268.615936 873.743958,211.038147 
	C875.198181,206.363129 876.541504,201.653610 878.162659,196.198685 
	C862.780823,199.102814 848.281006,201.978165 833.718079,204.487610 
	C830.318237,205.073471 829.092163,206.486908 828.364258,209.717773 
	C818.449158,253.723694 808.393250,297.697876 798.350403,341.674988 
	C798.094604,342.794922 797.593201,343.858765 797.206360,344.948792 
	C796.581299,344.971558 795.956238,344.994293 795.331177,345.017059 
	C784.711975,295.612915 774.092834,246.208771 763.393005,196.429550 
	C758.532410,197.364777 753.163025,198.397919 746.957764,199.606827 
M49.458221,346.073822 
	C47.530891,344.603210 45.603561,343.132568 42.801754,340.994690 
	C42.067120,355.105164 41.301723,368.046112 40.887985,380.998322 
	C40.853806,382.068237 43.019173,383.706818 44.473389,384.251923 
	C70.422005,393.977936 96.966980,396.150146 124.007362,389.766785 
	C149.111481,383.840546 165.331055,366.049255 168.696411,341.246002 
	C172.252762,315.035217 162.355408,295.186707 138.589127,282.501770 
	C129.371918,277.582214 119.363953,274.166809 109.926567,269.628754 
	C104.118774,266.836029 98.328262,263.716461 93.221863,259.833771 
	C87.550446,255.521408 86.518898,248.603073 89.608826,242.240768 
	C92.863640,235.538956 98.659561,232.054672 105.736961,230.928986 
	C121.657768,228.396698 136.080750,232.664490 149.427536,241.252014 
	C151.849777,242.810532 154.246460,244.408798 157.372818,246.459625 
	C158.193985,233.642258 159.027542,221.871140 159.574661,210.086700 
	C159.626740,208.964920 158.132278,207.187057 156.943100,206.678177 
	C133.022873,196.441788 108.309158,194.131210 83.122498,200.702377 
	C60.213768,206.679260 44.851891,224.143936 42.133366,246.049637 
	C39.179386,269.852570 48.446404,287.436157 71.039345,299.743866 
	C79.503502,304.354828 88.580635,307.827515 97.170662,312.224731 
	C103.654129,315.543610 110.450439,318.738312 115.968658,323.350769 
	C126.279007,331.968750 125.146843,346.127136 113.903534,353.472076 
	C109.977608,356.036774 105.227119,357.966003 100.611191,358.737457 
	C82.128944,361.826416 65.261742,357.366608 49.458221,346.073822 
M1067.755005,270.920990 
	C1067.807129,272.252380 1067.885254,273.583344 1067.907227,274.915222 
	C1068.328369,300.557556 1068.419556,326.210632 1069.257568,351.839233 
	C1069.976562,373.827240 1083.121582,388.861237 1104.104004,392.595490 
	C1117.333862,394.950043 1129.995361,393.129059 1141.614624,386.031586 
	C1145.558105,383.622711 1149.312988,380.904907 1153.663574,377.986450 
	C1153.663574,382.343781 1153.663574,386.230072 1153.663574,390.239838 
	C1169.448120,390.239838 1184.816895,390.239838 1199.104004,390.239838 
	C1199.104004,341.989990 1199.104004,294.110962 1199.104004,245.529785 
	C1183.027954,248.121399 1167.233643,250.667587 1151.345825,253.228836 
	C1151.459351,255.308868 1151.574341,256.624115 1151.596802,257.940979 
	C1152.105225,287.734192 1152.624390,317.527283 1153.042969,347.321777 
	C1153.064209,348.828522 1152.686523,350.962524 1151.673218,351.758759 
	C1146.143188,356.103333 1140.248901,359.851807 1132.799927,359.841187 
	C1124.059937,359.828735 1118.425171,356.034180 1116.270508,347.590485 
	C1114.884521,342.159393 1114.017578,336.436127 1114.006226,330.841614 
	C1113.957275,306.696869 1114.314697,282.551300 1114.511597,258.405975 
	C1114.545044,254.308105 1114.516235,250.209747 1114.516235,245.618118 
	C1098.483643,248.249619 1082.808716,250.822418 1066.871216,253.438309 
	C1067.162109,259.375977 1067.421997,264.681671 1067.755005,270.920990 
M269.004272,324.499847 
	C268.843872,332.158783 268.792694,339.822815 268.435272,347.472565 
	C268.359436,349.095093 267.611267,351.386993 266.407288,352.130157 
	C262.057526,354.814972 257.608765,357.741089 252.781143,359.166809 
	C242.529297,362.194427 234.087967,357.099976 231.328598,346.839508 
	C230.383926,343.326813 229.649734,339.637054 229.613663,336.020294 
	C229.402710,314.873810 229.421005,293.724945 229.375793,272.576904 
	C229.357040,263.806732 229.372665,255.036484 229.372665,245.706497 
	C213.834488,248.245209 198.178314,250.803177 182.370865,253.385880 
	C182.370865,255.211426 182.339584,256.521301 182.375488,257.829346 
	C182.978638,279.803070 183.600296,301.776306 184.195541,323.750244 
	C184.488449,334.564026 184.193054,345.426544 185.134079,356.182129 
	C186.468781,371.437592 194.146942,383.000031 208.418259,389.102600 
	C224.900238,396.150421 241.247665,395.071106 256.864349,386.108826 
	C260.835571,383.829742 264.493439,381.004639 269.075317,377.902283 
	C269.075317,382.533661 269.075317,386.384583 269.075317,390.231628 
	C284.907501,390.231628 300.139160,390.231628 314.424133,390.231628 
	C314.424133,341.973969 314.424133,294.098816 314.424133,245.522324 
	C298.412689,248.102127 282.758270,250.624420 267.206207,253.130219 
	C267.814697,276.946655 268.409393,300.223297 269.004272,324.499847 
M860.893433,369.540802 
	C866.616150,380.413879 875.352905,387.820953 887.119629,391.180084 
	C906.053528,396.585266 923.235901,392.511414 938.948547,379.717285 
	C939.174438,383.840668 939.350159,387.048737 939.520752,390.162994 
	C954.978699,390.162994 969.848755,390.162994 984.746765,390.162994 
	C984.156250,369.581543 983.479309,349.452087 983.033752,329.317474 
	C982.698425,314.166229 983.348267,298.961456 982.318604,283.865143 
	C980.969116,264.080078 970.013123,252.083755 950.589539,248.006760 
	C928.124512,243.291412 905.865417,245.388275 883.841492,251.162109 
	C871.399353,254.423950 871.420532,254.447815 870.740967,267.130615 
	C870.464783,272.286713 870.070496,277.436584 869.810669,282.593353 
	C869.740784,283.980957 869.967163,285.383484 870.079407,287.117340 
	C875.595764,285.199493 880.556274,283.296722 885.624878,281.747253 
	C899.066589,277.638031 912.664673,274.316528 926.865112,276.878021 
	C935.190308,278.379700 938.900024,283.878418 937.750488,292.433685 
	C928.786133,293.911865 919.608215,294.772125 910.796326,297.049042 
	C900.548096,299.697083 890.200562,302.679596 880.634460,307.110840 
	C854.569641,319.184723 850.742126,348.732269 860.893433,369.540802 
M606.284546,277.233704 
	C599.286926,261.823578 587.772278,251.592926 571.085815,248.290817 
	C563.005981,246.691879 554.554749,245.873215 546.341064,246.243027 
	C515.979553,247.610062 493.479309,266.246185 486.003113,295.522736 
	C482.015015,311.139893 482.016388,326.887115 485.688019,342.516388 
	C491.140137,365.724762 504.974976,381.819214 527.938782,388.905945 
	C550.314941,395.811279 572.907410,395.446198 595.255432,388.262390 
	C607.509766,384.323212 607.519104,384.199341 608.462158,371.467316 
	C608.969116,364.621765 609.268494,357.760864 609.703430,350.176514 
	C605.923279,352.021576 603.002319,353.556824 599.994507,354.897278 
	C583.010315,362.466522 565.520203,365.179443 547.553589,359.059906 
	C535.879028,355.083466 527.354919,342.607971 527.693787,330.732605 
	C556.567139,330.732605 585.462891,330.732605 614.832092,330.732605 
	C614.657166,312.305298 614.201965,294.576355 606.284546,277.233704 
M632.462158,297.389130 
	C632.462158,328.290558 632.462158,359.191986 632.462158,390.178192 
	C647.897949,390.178192 663.475342,390.178192 678.617310,390.178192 
	C678.617310,382.930756 678.680176,375.980499 678.605042,369.031677 
	C678.410522,351.043854 677.620117,333.043884 678.050964,315.072327 
	C678.678284,288.907410 696.896423,276.056061 721.736755,283.495636 
	C723.232361,283.943512 724.754639,284.302032 726.970642,284.889282 
	C723.892151,273.634460 720.766907,263.296143 718.327881,252.798370 
	C717.234741,248.093033 714.486084,246.579742 710.370239,246.054688 
	C697.432739,244.404205 688.735352,250.686111 682.284363,261.108002 
	C680.938110,263.282959 679.768921,265.567505 678.518127,267.801575 
	C678.211243,267.707520 677.904358,267.613464 677.597473,267.519409 
	C677.597473,260.516541 677.597473,253.513657 677.597473,246.083694 
	C661.744202,249.008011 646.414246,251.835800 630.812012,254.713821 
	C631.344604,268.855103 631.863647,282.635895 632.462158,297.389130 
M460.574280,489.814850 
	C459.366241,487.468597 458.158203,485.122314 456.898499,482.675690 
	C458.178436,481.867157 459.249725,481.360535 460.115662,480.615295 
	C465.122620,476.306183 465.885529,470.650269 464.622986,464.654816 
	C463.470703,459.182953 459.710663,455.588013 454.249939,455.292053 
	C445.196899,454.801361 436.097931,455.158539 427.244873,455.158539 
	C427.244873,471.561707 427.244873,487.619110 427.244873,503.484619 
	C432.434967,503.484619 437.135956,503.484619 442.320831,503.484619 
	C442.320831,497.298584 442.320831,491.658936 442.320831,486.019257 
	C442.829742,485.876862 443.338623,485.734467 443.847534,485.592072 
	C446.067780,490.474213 448.184601,495.407745 450.570831,500.207367 
	C451.295288,501.664581 452.665894,503.708130 453.909393,503.835541 
	C458.262970,504.281586 462.690216,504.008453 468.177460,504.008453 
	C465.264496,498.575104 463.091309,494.521576 460.574280,489.814850 
M800.267273,484.500458 
	C800.267273,490.911316 800.267273,497.322205 800.267273,503.597565 
	C805.492065,503.597565 810.071899,503.597565 815.151978,503.597565 
	C815.151978,497.500702 815.151978,491.816010 815.151978,486.131287 
	C817.103882,486.976196 818.054688,488.180481 818.689148,489.533203 
	C820.455078,493.297577 821.993652,497.170837 823.831360,500.897919 
	C824.423706,502.099365 825.608093,503.795563 826.621155,503.867706 
	C831.151550,504.190247 835.717957,504.007904 841.097656,504.007904 
	C836.885010,495.999451 833.424072,489.420044 829.940430,482.797546 
	C831.337708,481.838928 832.371521,481.274780 833.232483,480.514832 
	C837.995911,476.310486 838.920593,470.845825 837.711121,465.013275 
	C836.695435,460.115112 833.775696,455.942200 828.599915,455.643463 
	C819.086426,455.094330 809.518677,455.486816 800.277100,455.486816 
	C800.277100,464.907288 800.277100,474.203949 800.267273,484.500458 
M1099.713135,521.148682 
	C1103.811768,521.148682 1107.910400,521.148682 1112.097290,521.148682 
	C1112.097290,517.791626 1112.097290,515.157654 1112.097290,512.523682 
	C1112.097290,509.760193 1112.097290,506.996674 1112.097290,504.237854 
	C1114.764404,503.888184 1116.917114,503.693085 1119.036865,503.313141 
	C1128.541382,501.609497 1134.145508,495.832367 1135.329956,486.334503 
	C1136.982910,473.079681 1127.515137,461.384674 1113.634277,467.293304 
	C1112.988647,467.568115 1111.890991,467.358429 1111.254028,466.967133 
	C1109.392944,465.823883 1098.118408,466.681824 1096.950195,468.316528 
	C1096.525879,468.910126 1096.473633,469.869019 1096.483276,470.658417 
	C1096.677002,486.304016 1096.869751,501.949860 1097.193481,517.593018 
	C1097.218262,518.786438 1098.217529,519.959717 1099.713135,521.148682 
M724.786499,503.955353 
	C728.492981,503.644196 732.205322,503.386597 735.901978,502.984833 
	C736.844788,502.882416 738.265747,501.765778 738.574341,502.057953 
	C742.960815,506.211609 747.951050,502.604523 752.923584,504.054443 
	C752.923584,485.272919 752.923584,467.238831 752.923584,448.550110 
	C748.167786,449.374725 743.524109,450.179932 738.620911,451.030121 
	C738.620911,456.293671 738.620911,461.176971 738.620911,466.007172 
	C723.080078,467.534515 717.822510,471.056335 715.639282,481.170319 
	C713.508057,491.043335 716.611877,499.351837 724.786499,503.955353 
M969.877563,503.915070 
	C974.155640,503.915070 978.433716,503.915070 983.228760,503.915070 
	C983.228760,498.388763 983.228760,493.491913 983.228760,488.979340 
	C988.833801,487.953033 994.036011,487.587463 998.822754,485.982635 
	C1005.544434,483.729065 1008.848022,476.770569 1008.141418,468.395325 
	C1007.557434,461.473907 1003.757263,456.110535 997.010864,455.539825 
	C987.674561,454.750092 978.221436,455.341583 968.228394,455.341583 
	C968.228394,471.185608 968.222534,486.814484 968.260193,502.443268 
	C968.261169,502.856537 968.734497,503.268677 969.877563,503.915070 
M617.370361,474.407318 
	C615.087585,474.407318 612.804749,474.407318 610.356934,474.407318 
	C610.356934,471.123077 610.356934,468.246552 610.356934,464.834961 
	C615.773376,464.834961 620.842163,464.834961 626.292603,464.834961 
	C626.468018,461.229828 626.617981,458.146729 626.776123,454.896301 
	C616.020630,454.896301 605.761230,454.896301 595.158386,454.896301 
	C595.158386,470.157318 595.153870,485.107208 595.167358,500.057098 
	C595.168396,501.176514 595.297729,502.295776 595.379700,503.613037 
	C600.408264,503.613037 605.119751,503.613037 610.285767,503.613037 
	C610.285767,497.216583 610.285767,491.152466 610.285767,484.569580 
	C615.320435,484.569580 619.905029,484.569580 624.824341,484.569580 
	C624.824341,480.945404 624.824341,477.856384 624.824341,474.377533 
	C622.556763,474.377533 620.428772,474.377533 617.370361,474.407318 
M652.088989,504.602234 
	C658.212036,503.981750 663.865173,501.883484 666.234985,495.921204 
	C669.334900,488.121887 669.917175,479.852722 664.950195,472.470612 
	C660.332764,465.608032 652.944031,465.401306 645.638306,466.042175 
	C637.994019,466.712769 632.683777,470.814789 631.185791,477.710205 
	C629.377563,486.033813 628.925476,494.406006 636.099548,500.831543 
	C637.747681,502.307617 640.125977,503.257660 642.325500,503.757202 
	C645.208740,504.412048 648.248047,504.379700 652.088989,504.602234 
M689.793823,504.612183 
	C691.620239,504.564545 693.462036,504.651428 695.270447,504.445526 
	C702.243652,503.651733 707.971924,500.772522 709.715149,493.464478 
	C711.729492,485.019562 712.429382,476.438904 705.080688,469.823242 
	C699.502991,464.801880 687.477905,464.350250 680.528870,468.488434 
	C673.976807,472.390228 671.139221,481.457306 673.259155,491.717773 
	C674.835449,499.346619 679.523132,503.172882 689.793823,504.612183 
M520.757324,504.537476 
	C528.750977,501.703552 537.068115,504.826019 545.138855,503.605957 
	C545.138855,494.619019 545.226440,486.022858 545.110718,477.429474 
	C545.020630,470.740021 541.578247,466.743011 534.930420,466.206757 
	C530.330078,465.835663 525.586121,465.902710 521.032349,466.598785 
	C513.507812,467.749054 512.656799,469.561890 514.666687,477.377930 
	C520.055542,476.858795 525.491516,472.231323 531.913513,477.640503 
	C526.939148,478.907257 522.896973,479.689026 519.024231,480.979095 
	C512.745239,483.070679 509.740814,487.328064 509.949738,493.146576 
	C510.156952,498.917999 513.518066,502.693451 520.757324,504.537476 
M1060.975586,468.253296 
	C1053.357178,473.759521 1050.572144,484.959015 1054.375488,494.793854 
	C1057.080688,501.789185 1064.470581,505.451752 1074.375854,504.625275 
	C1080.271118,504.133392 1085.967896,502.430634 1088.577515,496.785095 
	C1092.385132,488.547424 1092.974487,479.662201 1087.402222,472.049744 
	C1082.110840,464.820984 1073.880981,465.173401 1065.898193,466.449463 
	C1064.444580,466.681885 1063.069336,467.404419 1060.975586,468.253296 
M1046.653442,502.074493 
	C1047.077515,499.063843 1047.501465,496.053192 1047.961304,492.788971 
	C1032.774170,496.060364 1029.160034,495.347107 1027.828735,488.448944 
	C1031.416016,488.448944 1034.873169,488.448944 1038.330200,488.448944 
	C1041.756348,488.448944 1045.182495,488.448944 1048.505981,488.448944 
	C1049.839722,475.346313 1044.670654,467.217926 1034.817749,465.966888 
	C1023.577087,464.539612 1014.537903,471.129333 1013.225708,481.707703 
	C1011.626831,494.598389 1018.053040,503.551697 1030.322388,504.337219 
	C1035.484863,504.667725 1040.764526,503.169861 1046.653442,502.074493 
M493.543762,488.482422 
	C497.658295,488.482422 501.772827,488.482422 505.762970,488.482422 
	C507.655243,476.089569 502.324341,467.475555 492.414612,466.032074 
	C481.002319,464.369720 472.052643,470.931274 470.617676,482.012848 
	C468.989563,494.585754 475.394501,503.211243 487.501434,504.421509 
	C490.611511,504.732422 493.831177,504.574188 496.938629,504.163483 
	C505.348541,503.051941 506.406921,501.247223 504.162781,492.732574 
	C492.477570,496.563751 486.807495,495.512604 485.083008,488.501892 
	C487.696381,488.501892 490.139404,488.501892 493.543762,488.482422 
M1173.536743,466.935272 
	C1164.303345,470.843201 1160.295166,478.533356 1161.913574,489.235504 
	C1163.296997,498.383972 1169.423462,503.820190 1179.469971,504.504456 
	C1182.432861,504.706268 1185.472534,504.528442 1188.417480,504.107788 
	C1196.456055,502.959625 1197.610107,500.965057 1195.388550,492.771942 
	C1184.588135,496.673004 1178.294312,495.505066 1176.033569,488.330078 
	C1183.310669,488.330078 1190.323853,488.330078 1197.238770,488.330078 
	C1198.384644,471.152405 1189.563965,463.202118 1173.536743,466.935272 
M552.890930,461.896179 
	C552.890930,475.820984 552.890930,489.745758 552.890930,503.549133 
	C558.128662,503.549133 562.872192,503.549133 567.534546,503.549133 
	C567.534546,485.076996 567.534546,467.035126 567.534546,448.617096 
	C565.581604,448.831207 564.111206,448.924164 562.664612,449.161987 
	C552.440979,450.842834 552.442505,450.852264 552.890930,461.896179 
M940.703674,472.499908 
	C940.703674,464.732422 940.703674,456.964905 940.703674,448.471588 
	C935.375671,449.339020 930.550781,450.124542 925.887573,450.883759 
	C925.887573,468.747284 925.887573,486.153290 925.887573,503.617126 
	C931.070679,503.617126 935.815857,503.617126 940.699463,503.617126 
	C940.699463,493.368103 940.699463,483.434021 940.703674,472.499908 
M1141.069092,466.539795 
	C1141.069092,478.922455 1141.069092,491.305084 1141.069092,503.495789 
	C1146.456909,503.495789 1151.178467,503.495789 1155.624023,503.495789 
	C1155.624023,485.013794 1155.624023,466.988251 1155.624023,448.361450 
	C1150.215210,449.318420 1145.418945,450.166992 1141.062256,450.937805 
	C1141.062256,456.269745 1141.062256,460.913666 1141.069092,466.539795 
M758.617798,505.748169 
	C758.281677,507.263733 757.945557,508.779297 757.540222,510.607361 
	C760.181152,510.607361 762.171570,510.834412 764.080627,510.537842 
	C765.702820,510.285919 768.105042,509.866119 768.653198,508.767609 
	C771.349915,503.363007 773.543396,497.707306 775.963562,492.025238 
	C762.907471,490.441193 762.381470,490.774841 759.539612,502.091400 
	C759.298096,503.053070 759.069031,504.017914 758.617798,505.748169 
z"/>
<path fill="#97222E" opacity="1.000000" stroke="none" 
	d="
M334.618683,304.506073 
	C333.988739,287.405853 333.390625,270.773712 332.768036,253.461288 
	C348.317535,250.851456 363.818176,248.249832 379.748749,245.576050 
	C379.748749,249.739258 379.748749,253.464233 379.748749,257.860657 
	C381.617737,256.813904 383.042633,256.090942 384.393036,255.248550 
	C413.865479,236.863037 447.982513,246.376419 463.448914,277.304565 
	C477.791534,305.985504 472.552246,345.667816 451.383179,368.043549 
	C436.921478,383.329590 418.473938,389.481354 398.054565,390.769958 
	C392.458374,391.123138 386.820984,390.823639 381.315399,390.823639 
	C381.315399,412.648163 381.315399,433.530853 381.315399,454.722626 
	C365.626343,454.722626 349.719543,454.722626 334.650543,454.722626 
	C334.650543,404.741333 334.650543,354.857758 334.618683,304.506073 
M402.666107,279.451843 
	C397.436920,279.894806 392.135559,279.946899 386.999664,280.895111 
	C382.247192,281.772491 380.195068,284.884460 380.262604,290.188568 
	C380.542358,312.166382 380.360535,334.149963 380.372467,356.131439 
	C380.373444,357.916046 380.557861,359.700531 380.654083,361.431915 
	C405.507263,362.673218 417.370087,352.557831 422.466766,334.987335 
	C425.784271,323.550201 425.648285,311.916870 422.350739,300.483215 
	C419.493286,290.575562 414.101898,282.684479 402.666107,279.451843 
z"/>
<path fill="#97222F" opacity="1.000000" stroke="none" 
	d="
M747.375732,199.518951 
	C753.163025,198.397919 758.532410,197.364777 763.393005,196.429550 
	C774.092834,246.208771 784.711975,295.612915 795.331177,345.017059 
	C795.956238,344.994293 796.581299,344.971558 797.206360,344.948792 
	C797.593201,343.858765 798.094604,342.794922 798.350403,341.674988 
	C808.393250,297.697876 818.449158,253.723694 828.364258,209.717773 
	C829.092163,206.486908 830.318237,205.073471 833.718079,204.487610 
	C848.281006,201.978165 862.780823,199.102814 878.162659,196.198685 
	C876.541504,201.653610 875.198181,206.363129 873.743958,211.038147 
	C855.834412,268.615936 840.509460,326.890106 826.828430,385.602142 
	C825.969788,389.286804 824.658691,390.748718 820.617188,390.690155 
	C803.291748,390.439026 785.960022,390.503906 768.631958,390.632965 
	C765.170654,390.658691 763.730408,389.444672 762.839905,386.061127 
	C747.123901,326.348785 731.272156,266.672150 715.456421,206.986053 
	C715.417908,206.840836 715.476929,206.669785 715.565002,205.625519 
	C725.862305,203.651291 736.410034,201.629059 747.375732,199.518951 
z"/>
<path fill="#96222F" opacity="1.000000" stroke="none" 
	d="
M49.755440,346.283264 
	C65.261742,357.366608 82.128944,361.826416 100.611191,358.737457 
	C105.227119,357.966003 109.977608,356.036774 113.903534,353.472076 
	C125.146843,346.127136 126.279007,331.968750 115.968658,323.350769 
	C110.450439,318.738312 103.654129,315.543610 97.170662,312.224731 
	C88.580635,307.827515 79.503502,304.354828 71.039345,299.743866 
	C48.446404,287.436157 39.179386,269.852570 42.133366,246.049637 
	C44.851891,224.143936 60.213768,206.679260 83.122498,200.702377 
	C108.309158,194.131210 133.022873,196.441788 156.943100,206.678177 
	C158.132278,207.187057 159.626740,208.964920 159.574661,210.086700 
	C159.027542,221.871140 158.193985,233.642258 157.372818,246.459625 
	C154.246460,244.408798 151.849777,242.810532 149.427536,241.252014 
	C136.080750,232.664490 121.657768,228.396698 105.736961,230.928986 
	C98.659561,232.054672 92.863640,235.538956 89.608826,242.240768 
	C86.518898,248.603073 87.550446,255.521408 93.221863,259.833771 
	C98.328262,263.716461 104.118774,266.836029 109.926567,269.628754 
	C119.363953,274.166809 129.371918,277.582214 138.589127,282.501770 
	C162.355408,295.186707 172.252762,315.035217 168.696411,341.246002 
	C165.331055,366.049255 149.111481,383.840546 124.007362,389.766785 
	C96.966980,396.150146 70.422005,393.977936 44.473389,384.251923 
	C43.019173,383.706818 40.853806,382.068237 40.887985,380.998322 
	C41.301723,368.046112 42.067120,355.105164 42.801754,340.994690 
	C45.603561,343.132568 47.530891,344.603210 49.755440,346.283264 
z"/>
<path fill="#97222F" opacity="1.000000" stroke="none" 
	d="
M1067.718506,270.454163 
	C1067.421997,264.681671 1067.162109,259.375977 1066.871216,253.438309 
	C1082.808716,250.822418 1098.483643,248.249619 1114.516235,245.618118 
	C1114.516235,250.209747 1114.545044,254.308105 1114.511597,258.405975 
	C1114.314697,282.551300 1113.957275,306.696869 1114.006226,330.841614 
	C1114.017578,336.436127 1114.884521,342.159393 1116.270508,347.590485 
	C1118.425171,356.034180 1124.059937,359.828735 1132.799927,359.841187 
	C1140.248901,359.851807 1146.143188,356.103333 1151.673218,351.758759 
	C1152.686523,350.962524 1153.064209,348.828522 1153.042969,347.321777 
	C1152.624390,317.527283 1152.105225,287.734192 1151.596802,257.940979 
	C1151.574341,256.624115 1151.459351,255.308868 1151.345825,253.228836 
	C1167.233643,250.667587 1183.027954,248.121399 1199.104004,245.529785 
	C1199.104004,294.110962 1199.104004,341.989990 1199.104004,390.239838 
	C1184.816895,390.239838 1169.448120,390.239838 1153.663574,390.239838 
	C1153.663574,386.230072 1153.663574,382.343781 1153.663574,377.986450 
	C1149.312988,380.904907 1145.558105,383.622711 1141.614624,386.031586 
	C1129.995361,393.129059 1117.333862,394.950043 1104.104004,392.595490 
	C1083.121582,388.861237 1069.976562,373.827240 1069.257568,351.839233 
	C1068.419556,326.210632 1068.328369,300.557556 1067.907227,274.915222 
	C1067.885254,273.583344 1067.807129,272.252380 1067.718506,270.454163 
z"/>
<path fill="#97222F" opacity="1.000000" stroke="none" 
	d="
M269.004211,323.999878 
	C268.409393,300.223297 267.814697,276.946655 267.206207,253.130219 
	C282.758270,250.624420 298.412689,248.102127 314.424133,245.522324 
	C314.424133,294.098816 314.424133,341.973969 314.424133,390.231628 
	C300.139160,390.231628 284.907501,390.231628 269.075317,390.231628 
	C269.075317,386.384583 269.075317,382.533661 269.075317,377.902283 
	C264.493439,381.004639 260.835571,383.829742 256.864349,386.108826 
	C241.247665,395.071106 224.900238,396.150421 208.418259,389.102600 
	C194.146942,383.000031 186.468781,371.437592 185.134079,356.182129 
	C184.193054,345.426544 184.488449,334.564026 184.195541,323.750244 
	C183.600296,301.776306 182.978638,279.803070 182.375488,257.829346 
	C182.339584,256.521301 182.370865,255.211426 182.370865,253.385880 
	C198.178314,250.803177 213.834488,248.245209 229.372665,245.706497 
	C229.372665,255.036484 229.357040,263.806732 229.375793,272.576904 
	C229.421005,293.724945 229.402710,314.873810 229.613663,336.020294 
	C229.649734,339.637054 230.383926,343.326813 231.328598,346.839508 
	C234.087967,357.099976 242.529297,362.194427 252.781143,359.166809 
	C257.608765,357.741089 262.057526,354.814972 266.407288,352.130157 
	C267.611267,351.386993 268.359436,349.095093 268.435272,347.472565 
	C268.792694,339.822815 268.843872,332.158783 269.004211,323.999878 
z"/>
<path fill="#97222F" opacity="1.000000" stroke="none" 
	d="
M860.721191,369.207458 
	C850.742126,348.732269 854.569641,319.184723 880.634460,307.110840 
	C890.200562,302.679596 900.548096,299.697083 910.796326,297.049042 
	C919.608215,294.772125 928.786133,293.911865 937.750488,292.433685 
	C938.900024,283.878418 935.190308,278.379700 926.865112,276.878021 
	C912.664673,274.316528 899.066589,277.638031 885.624878,281.747253 
	C880.556274,283.296722 875.595764,285.199493 870.079407,287.117340 
	C869.967163,285.383484 869.740784,283.980957 869.810669,282.593353 
	C870.070496,277.436584 870.464783,272.286713 870.740967,267.130615 
	C871.420532,254.447815 871.399353,254.423950 883.841492,251.162109 
	C905.865417,245.388275 928.124512,243.291412 950.589539,248.006760 
	C970.013123,252.083755 980.969116,264.080078 982.318604,283.865143 
	C983.348267,298.961456 982.698425,314.166229 983.033752,329.317474 
	C983.479309,349.452087 984.156250,369.581543 984.746765,390.162994 
	C969.848755,390.162994 954.978699,390.162994 939.520752,390.162994 
	C939.350159,387.048737 939.174438,383.840668 938.948547,379.717285 
	C923.235901,392.511414 906.053528,396.585266 887.119629,391.180084 
	C875.352905,387.820953 866.616150,380.413879 860.721191,369.207458 
M901.883423,335.666901 
	C896.314209,349.546753 903.660217,360.744812 918.449646,359.687317 
	C924.675720,359.242096 930.744263,356.251923 936.804932,354.185638 
	C937.765320,353.858215 938.926331,352.304596 938.942078,351.301392 
	C939.100159,341.220459 939.038208,331.136078 939.038208,319.801758 
	C930.463501,321.884491 922.376282,323.105835 914.898254,325.936462 
	C910.214478,327.709412 906.447083,331.903503 901.883423,335.666901 
z"/>
<path fill="#97222F" opacity="1.000000" stroke="none" 
	d="
M606.472717,277.561890 
	C614.201965,294.576355 614.657166,312.305298 614.832092,330.732605 
	C585.462891,330.732605 556.567139,330.732605 527.693787,330.732605 
	C527.354919,342.607971 535.879028,355.083466 547.553589,359.059906 
	C565.520203,365.179443 583.010315,362.466522 599.994507,354.897278 
	C603.002319,353.556824 605.923279,352.021576 609.703430,350.176514 
	C609.268494,357.760864 608.969116,364.621765 608.462158,371.467316 
	C607.519104,384.199341 607.509766,384.323212 595.255432,388.262390 
	C572.907410,395.446198 550.314941,395.811279 527.938782,388.905945 
	C504.974976,381.819214 491.140137,365.724762 485.688019,342.516388 
	C482.016388,326.887115 482.015015,311.139893 486.003113,295.522736 
	C493.479309,266.246185 515.979553,247.610062 546.341064,246.243027 
	C554.554749,245.873215 563.005981,246.691879 571.085815,248.290817 
	C587.772278,251.592926 599.286926,261.823578 606.472717,277.561890 
M570.765991,291.980133 
	C567.059570,278.494965 557.980530,272.449097 545.338501,275.047699 
	C533.972839,277.383972 525.796265,290.128235 527.788269,302.540283 
	C542.273987,302.540283 556.774597,302.540283 571.757019,302.540283 
	C571.445862,299.022186 571.170898,295.913239 570.765991,291.980133 
z"/>
<path fill="#97232F" opacity="1.000000" stroke="none" 
	d="
M1047.856201,310.036194 
	C1048.569214,331.839264 1049.268555,353.642822 1050.005737,375.445068 
	C1050.167847,380.242615 1050.463989,385.035645 1050.717529,390.222534 
	C1034.735474,390.222534 1019.168945,390.222534 1002.840576,390.222534 
	C1004.505615,328.285004 1004.916565,266.418152 1000.731323,204.011490 
	C1016.832642,201.433563 1032.668091,198.898193 1048.068481,196.432495 
	C1048.068481,214.559280 1048.068481,232.308060 1047.696533,250.204636 
	C1047.136230,247.596146 1046.947754,244.839890 1046.759399,242.083618 
	C1046.628418,242.091522 1046.497437,242.099411 1046.366455,242.107315 
	C1046.366455,270.626312 1046.366455,299.145294 1046.366455,327.664307 
	C1046.434082,327.659637 1046.501709,327.654968 1046.569214,327.650299 
	C1046.998291,321.778931 1047.427246,315.907562 1047.856201,310.036194 
z"/>
<path fill="#96222F" opacity="1.000000" stroke="none" 
	d="
M632.422485,296.902924 
	C631.863647,282.635895 631.344604,268.855103 630.812012,254.713821 
	C646.414246,251.835800 661.744202,249.008011 677.597473,246.083694 
	C677.597473,253.513657 677.597473,260.516541 677.597473,267.519409 
	C677.904358,267.613464 678.211243,267.707520 678.518127,267.801575 
	C679.768921,265.567505 680.938110,263.282959 682.284363,261.108002 
	C688.735352,250.686111 697.432739,244.404205 710.370239,246.054688 
	C714.486084,246.579742 717.234741,248.093033 718.327881,252.798370 
	C720.766907,263.296143 723.892151,273.634460 726.970642,284.889282 
	C724.754639,284.302032 723.232361,283.943512 721.736755,283.495636 
	C696.896423,276.056061 678.678284,288.907410 678.050964,315.072327 
	C677.620117,333.043884 678.410522,351.043854 678.605042,369.031677 
	C678.680176,375.980499 678.617310,382.930756 678.617310,390.178192 
	C663.475342,390.178192 647.897949,390.178192 632.462158,390.178192 
	C632.462158,359.191986 632.462158,328.290558 632.422485,296.902924 
z"/>
<path fill="#952734" opacity="1.000000" stroke="none" 
	d="
M460.746185,490.141449 
	C463.091309,494.521576 465.264496,498.575104 468.177460,504.008453 
	C462.690216,504.008453 458.262970,504.281586 453.909393,503.835541 
	C452.665894,503.708130 451.295288,501.664581 450.570831,500.207367 
	C448.184601,495.407745 446.067780,490.474213 443.847534,485.592072 
	C443.338623,485.734467 442.829742,485.876862 442.320831,486.019257 
	C442.320831,491.658936 442.320831,497.298584 442.320831,503.484619 
	C437.135956,503.484619 432.434967,503.484619 427.244873,503.484619 
	C427.244873,487.619110 427.244873,471.561707 427.244873,455.158539 
	C436.097931,455.158539 445.196899,454.801361 454.249939,455.292053 
	C459.710663,455.588013 463.470703,459.182953 464.622986,464.654816 
	C465.885529,470.650269 465.122620,476.306183 460.115662,480.615295 
	C459.249725,481.360535 458.178436,481.867157 456.898499,482.675690 
	C458.158203,485.122314 459.366241,487.468597 460.746185,490.141449 
M445.827087,475.827240 
	C449.895203,474.722687 451.825348,472.103577 450.406372,468.041138 
	C448.970581,463.930511 445.564880,464.317566 441.720032,465.243530 
	C441.720032,467.940674 441.851318,470.569000 441.683167,473.178009 
	C441.514435,475.795898 442.777649,476.351898 445.827087,475.827240 
z"/>
<path fill="#952734" opacity="1.000000" stroke="none" 
	d="
M800.272217,484.000549 
	C800.277100,474.203949 800.277100,464.907288 800.277100,455.486816 
	C809.518677,455.486816 819.086426,455.094330 828.599915,455.643463 
	C833.775696,455.942200 836.695435,460.115112 837.711121,465.013275 
	C838.920593,470.845825 837.995911,476.310486 833.232483,480.514832 
	C832.371521,481.274780 831.337708,481.838928 829.940430,482.797546 
	C833.424072,489.420044 836.885010,495.999451 841.097656,504.007904 
	C835.717957,504.007904 831.151550,504.190247 826.621155,503.867706 
	C825.608093,503.795563 824.423706,502.099365 823.831360,500.897919 
	C821.993652,497.170837 820.455078,493.297577 818.689148,489.533203 
	C818.054688,488.180481 817.103882,486.976196 815.151978,486.131287 
	C815.151978,491.816010 815.151978,497.500702 815.151978,503.597565 
	C810.071899,503.597565 805.492065,503.597565 800.267273,503.597565 
	C800.267273,497.322205 800.267273,490.911316 800.272217,484.000549 
M818.922913,464.698700 
	C814.363770,464.992584 813.359741,468.378143 815.645996,475.987122 
	C819.332214,476.081390 822.799927,475.540192 823.601440,471.162659 
	C824.148682,468.173889 823.307800,465.508057 818.922913,464.698700 
z"/>
<path fill="#952734" opacity="1.000000" stroke="none" 
	d="
M1099.238525,521.145508 
	C1098.217529,519.959717 1097.218262,518.786438 1097.193481,517.593018 
	C1096.869751,501.949860 1096.677002,486.304016 1096.483276,470.658417 
	C1096.473633,469.869019 1096.525879,468.910126 1096.950195,468.316528 
	C1098.118408,466.681824 1109.392944,465.823883 1111.254028,466.967133 
	C1111.890991,467.358429 1112.988647,467.568115 1113.634277,467.293304 
	C1127.515137,461.384674 1136.982910,473.079681 1135.329956,486.334503 
	C1134.145508,495.832367 1128.541382,501.609497 1119.036865,503.313141 
	C1116.917114,503.693085 1114.764404,503.888184 1112.097290,504.237854 
	C1112.097290,506.996674 1112.097290,509.760193 1112.097290,512.523682 
	C1112.097290,515.157654 1112.097290,517.791626 1112.097290,521.148682 
	C1107.910400,521.148682 1103.811768,521.148682 1099.238525,521.145508 
M1116.081665,475.789001 
	C1114.656982,476.537628 1112.055054,477.206726 1111.998169,478.047699 
	C1111.627075,483.540619 1111.807373,489.070801 1111.807373,494.639771 
	C1116.972046,494.789337 1119.783936,492.702850 1120.924805,488.516632 
	C1122.420166,483.028870 1121.000000,478.789459 1116.081665,475.789001 
z"/>
<path fill="#952634" opacity="1.000000" stroke="none" 
	d="
M724.421936,503.829956 
	C716.611877,499.351837 713.508057,491.043335 715.639282,481.170319 
	C717.822510,471.056335 723.080078,467.534515 738.620911,466.007172 
	C738.620911,461.176971 738.620911,456.293671 738.620911,451.030121 
	C743.524109,450.179932 748.167786,449.374725 752.923584,448.550110 
	C752.923584,467.238831 752.923584,485.272919 752.923584,504.054443 
	C747.951050,502.604523 742.960815,506.211609 738.574341,502.057953 
	C738.265747,501.765778 736.844788,502.882416 735.901978,502.984833 
	C732.205322,503.386597 728.492981,503.644196 724.421936,503.829956 
M738.441284,476.226990 
	C734.027405,475.033203 731.466736,477.126892 730.101685,481.077545 
	C728.384155,486.048187 729.478455,492.168976 732.298828,494.040192 
	C735.335999,496.055237 738.851135,494.517822 738.981995,490.903717 
	C739.149780,486.270630 738.959656,481.624542 738.441284,476.226990 
z"/>
<path fill="#942532" opacity="1.000000" stroke="none" 
	d="
M969.432495,503.798218 
	C968.734497,503.268677 968.261169,502.856537 968.260193,502.443268 
	C968.222534,486.814484 968.228394,471.185608 968.228394,455.341583 
	C978.221436,455.341583 987.674561,454.750092 997.010864,455.539825 
	C1003.757263,456.110535 1007.557434,461.473907 1008.141418,468.395325 
	C1008.848022,476.770569 1005.544434,483.729065 998.822754,485.982635 
	C994.036011,487.587463 988.833801,487.953033 983.228760,488.979340 
	C983.228760,493.491913 983.228760,498.388763 983.228760,503.915070 
	C978.433716,503.915070 974.155640,503.915070 969.432495,503.798218 
M993.051331,470.508209 
	C991.940979,465.045685 989.797424,463.910004 983.443970,465.363159 
	C983.443970,469.431213 983.443970,473.475464 983.443970,477.625214 
	C988.620911,478.023590 992.399780,476.993011 993.051331,470.508209 
z"/>
<path fill="#932936" opacity="1.000000" stroke="none" 
	d="
M898.115112,479.059631 
	C898.115112,479.059662 898.572937,479.111023 899.183044,479.060730 
	C901.171143,478.253998 902.549133,477.497528 903.927185,476.741089 
	C902.533997,476.096863 901.186584,475.098267 899.734436,474.910919 
	C898.361511,474.733734 896.878601,475.408661 895.444092,475.708801 
	C894.546448,476.010864 893.600159,476.663605 892.760620,476.547058 
	C890.541626,476.239044 887.532715,479.855225 886.156555,475.608795 
	C884.700195,471.115082 886.210571,468.067383 890.541687,467.412323 
	C896.087219,466.573639 901.768799,465.945007 907.348511,466.194275 
	C914.606201,466.518463 918.116394,470.613159 918.229736,477.853394 
	C918.362000,486.297119 918.260681,494.744507 918.260681,504.498444 
	C913.350403,503.756104 908.712769,502.893707 904.035522,502.441559 
	C902.543518,502.297302 900.925720,503.181030 899.400879,503.698639 
	C892.945740,505.889587 886.911377,503.550201 883.906006,498.529083 
	C879.980591,491.970673 882.942749,485.398102 888.466980,482.146973 
	C889.944824,481.277222 891.712402,480.899933 894.034668,480.183716 
	C895.853210,479.733795 896.984192,479.396729 898.115112,479.059631 
M904.533386,489.511169 
	C904.112976,488.384430 903.692505,487.257721 903.272095,486.130981 
	C901.038025,487.235107 898.803894,488.339203 896.569824,489.443329 
	C897.485535,491.066895 898.096313,493.716125 899.381104,494.098083 
	C901.964661,494.866119 904.876831,494.347717 904.533386,489.511169 
z"/>
<path fill="#952936" opacity="1.000000" stroke="none" 
	d="
M617.835571,474.392426 
	C620.428772,474.377533 622.556763,474.377533 624.824341,474.377533 
	C624.824341,477.856384 624.824341,480.945404 624.824341,484.569580 
	C619.905029,484.569580 615.320435,484.569580 610.285767,484.569580 
	C610.285767,491.152466 610.285767,497.216583 610.285767,503.613037 
	C605.119751,503.613037 600.408264,503.613037 595.379700,503.613037 
	C595.297729,502.295776 595.168396,501.176514 595.167358,500.057098 
	C595.153870,485.107208 595.158386,470.157318 595.158386,454.896301 
	C605.761230,454.896301 616.020630,454.896301 626.776123,454.896301 
	C626.617981,458.146729 626.468018,461.229828 626.292603,464.834961 
	C620.842163,464.834961 615.773376,464.834961 610.356934,464.834961 
	C610.356934,468.246552 610.356934,471.123077 610.356934,474.407318 
	C612.804749,474.407318 615.087585,474.407318 617.835571,474.392426 
z"/>
<path fill="#942735" opacity="1.000000" stroke="none" 
	d="
M651.654602,504.622559 
	C648.248047,504.379700 645.208740,504.412048 642.325500,503.757202 
	C640.125977,503.257660 637.747681,502.307617 636.099548,500.831543 
	C628.925476,494.406006 629.377563,486.033813 631.185791,477.710205 
	C632.683777,470.814789 637.994019,466.712769 645.638306,466.042175 
	C652.944031,465.401306 660.332764,465.608032 664.950195,472.470612 
	C669.917175,479.852722 669.334900,488.121887 666.234985,495.921204 
	C663.865173,501.883484 658.212036,503.981750 651.654602,504.622559 
M653.688232,480.232178 
	C652.230164,478.303467 650.772156,476.374756 649.314148,474.446045 
	C647.838745,476.542053 645.758240,478.453857 645.049133,480.783173 
	C644.256470,483.386658 644.409058,486.400177 644.699890,489.177673 
	C645.002686,492.069611 645.406738,496.045898 649.246460,495.579132 
	C650.954590,495.371490 652.861572,491.840088 653.544861,489.487946 
	C654.302002,486.882172 653.763672,483.899994 653.688232,480.232178 
z"/>
<path fill="#952734" opacity="1.000000" stroke="none" 
	d="
M689.365845,504.563721 
	C679.523132,503.172882 674.835449,499.346619 673.259155,491.717773 
	C671.139221,481.457306 673.976807,472.390228 680.528870,468.488434 
	C687.477905,464.350250 699.502991,464.801880 705.080688,469.823242 
	C712.429382,476.438904 711.729492,485.019562 709.715149,493.464478 
	C707.971924,500.772522 702.243652,503.651733 695.270447,504.445526 
	C693.462036,504.651428 691.620239,504.564545 689.365845,504.563721 
M695.207092,476.719757 
	C691.719299,473.472931 688.881165,473.787933 688.117188,478.044952 
	C687.340454,482.372711 687.422607,486.954102 687.867004,491.349762 
	C688.032166,492.983551 690.290649,494.405701 691.594482,495.924377 
	C693.046692,494.372650 695.571228,492.931305 695.744507,491.247894 
	C696.213501,486.692566 695.683411,482.034332 695.207092,476.719757 
z"/>
<path fill="#952734" opacity="1.000000" stroke="none" 
	d="
M520.373474,504.480835 
	C513.518066,502.693451 510.156952,498.917999 509.949738,493.146576 
	C509.740814,487.328064 512.745239,483.070679 519.024231,480.979095 
	C522.896973,479.689026 526.939148,478.907257 531.913513,477.640503 
	C525.491516,472.231323 520.055542,476.858795 514.666687,477.377930 
	C512.656799,469.561890 513.507812,467.749054 521.032349,466.598785 
	C525.586121,465.902710 530.330078,465.835663 534.930420,466.206757 
	C541.578247,466.743011 545.020630,470.740021 545.110718,477.429474 
	C545.226440,486.022858 545.138855,494.619019 545.138855,503.605957 
	C537.068115,504.826019 528.750977,501.703552 520.373474,504.480835 
M525.106506,493.888458 
	C531.625305,494.613434 532.481628,493.465973 530.777954,486.288757 
	C523.933960,486.575897 522.350220,488.371338 525.106506,493.888458 
z"/>
<path fill="#952734" opacity="1.000000" stroke="none" 
	d="
M1061.316650,468.076996 
	C1063.069336,467.404419 1064.444580,466.681885 1065.898193,466.449463 
	C1073.880981,465.173401 1082.110840,464.820984 1087.402222,472.049744 
	C1092.974487,479.662201 1092.385132,488.547424 1088.577515,496.785095 
	C1085.967896,502.430634 1080.271118,504.133392 1074.375854,504.625275 
	C1064.470581,505.451752 1057.080688,501.789185 1054.375488,494.793854 
	C1050.572144,484.959015 1053.357178,473.759521 1061.316650,468.076996 
M1070.205078,495.360107 
	C1071.974365,494.680969 1075.194336,494.143829 1075.276978,493.299622 
	C1075.801514,487.939362 1075.792725,482.503845 1075.542236,477.112579 
	C1075.498413,476.170044 1073.421143,474.546021 1072.380981,474.619720 
	C1071.042603,474.714478 1068.999268,475.968323 1068.656372,477.133850 
	C1066.906494,483.082001 1065.947998,489.141632 1070.205078,495.360107 
z"/>
<path fill="#952936" opacity="1.000000" stroke="none" 
	d="
M1046.322144,502.288818 
	C1040.764526,503.169861 1035.484863,504.667725 1030.322388,504.337219 
	C1018.053040,503.551697 1011.626831,494.598389 1013.225708,481.707703 
	C1014.537903,471.129333 1023.577087,464.539612 1034.817749,465.966888 
	C1044.670654,467.217926 1049.839722,475.346313 1048.505981,488.448944 
	C1045.182495,488.448944 1041.756348,488.448944 1038.330200,488.448944 
	C1034.873169,488.448944 1031.416016,488.448944 1027.828735,488.448944 
	C1029.160034,495.347107 1032.774170,496.060364 1047.961304,492.788971 
	C1047.501465,496.053192 1047.077515,499.063843 1046.322144,502.288818 
M1034.690796,480.770752 
	C1034.532593,479.081085 1034.973145,476.789246 1034.048706,475.870056 
	C1033.112061,474.938690 1030.361084,474.650940 1029.249146,475.376129 
	C1027.859497,476.282257 1027.332275,478.510742 1026.047363,480.878540 
	C1029.574829,480.878540 1031.724121,480.878540 1034.690796,480.770752 
z"/>
<path fill="#942735" opacity="1.000000" stroke="none" 
	d="
M493.063080,488.492157 
	C490.139404,488.501892 487.696381,488.501892 485.083008,488.501892 
	C486.807495,495.512604 492.477570,496.563751 504.162781,492.732574 
	C506.406921,501.247223 505.348541,503.051941 496.938629,504.163483 
	C493.831177,504.574188 490.611511,504.732422 487.501434,504.421509 
	C475.394501,503.211243 468.989563,494.585754 470.617676,482.012848 
	C472.052643,470.931274 481.002319,464.369720 492.414612,466.032074 
	C502.324341,467.475555 507.655243,476.089569 505.762970,488.482422 
	C501.772827,488.482422 497.658295,488.482422 493.063080,488.492157 
M491.109070,480.906647 
	C491.559021,479.583313 492.769348,477.664001 492.298065,477.062714 
	C491.363892,475.870819 488.965942,474.400208 488.131348,474.844604 
	C486.222198,475.861115 484.889740,477.960754 483.323059,479.620514 
	C483.676392,480.051208 484.029724,480.481873 484.383026,480.912567 
	C486.336182,480.912567 488.289337,480.912567 491.109070,480.906647 
z"/>
<path fill="#942735" opacity="1.000000" stroke="none" 
	d="
M1173.900391,466.800171 
	C1189.563965,463.202118 1198.384644,471.152405 1197.238770,488.330078 
	C1190.323853,488.330078 1183.310669,488.330078 1176.033569,488.330078 
	C1178.294312,495.505066 1184.588135,496.673004 1195.388550,492.771942 
	C1197.610107,500.965057 1196.456055,502.959625 1188.417480,504.107788 
	C1185.472534,504.528442 1182.432861,504.706268 1179.469971,504.504456 
	C1169.423462,503.820190 1163.296997,498.383972 1161.913574,489.235504 
	C1160.295166,478.533356 1164.303345,470.843201 1173.900391,466.800171 
M1178.975708,474.695221 
	C1177.549438,476.402374 1176.123169,478.109528 1174.061890,480.576660 
	C1178.573486,480.576660 1181.260620,480.576660 1184.100342,480.576660 
	C1184.281250,477.011169 1183.436890,474.705048 1178.975708,474.695221 
z"/>
<path fill="#942735" opacity="1.000000" stroke="none" 
	d="
M862.005920,493.886902 
	C867.161255,493.886932 872.316589,493.886932 877.945801,493.886932 
	C880.160156,500.707001 878.895874,502.894653 870.533691,504.138123 
	C868.240601,504.479095 865.897034,504.673859 863.581238,504.638275 
	C847.730591,504.394409 839.208740,491.629089 844.904236,476.746887 
	C849.396851,465.007843 868.106628,461.582886 875.599731,471.519073 
	C879.047241,476.090576 880.988770,481.821259 877.890503,488.047363 
	C875.791931,488.293396 874.421936,488.389374 873.052002,488.485352 
	C872.263733,488.451263 871.475403,488.417145 869.914429,488.351196 
	C867.804138,488.440216 866.466614,488.561066 865.129028,488.681885 
	C864.049377,488.638397 862.969666,488.594910 861.190186,488.513763 
	C859.509705,488.819336 858.529053,489.162537 857.548401,489.505737 
	C858.376404,490.623596 859.204407,491.741455 860.032349,492.859314 
	C860.032349,492.859314 860.232483,493.149048 860.572876,493.416687 
	C861.277466,493.751892 861.641724,493.819397 862.005920,493.886902 
M861.539429,480.899139 
	C862.957458,480.831055 864.375488,480.763000 866.056091,480.682312 
	C866.005310,477.259399 865.252991,474.342285 861.673523,474.748138 
	C860.020996,474.935486 858.638184,477.501892 857.133057,478.989624 
	C858.315674,479.636963 859.498352,480.284332 861.539429,480.899139 
z"/>
<path fill="#952936" opacity="1.000000" stroke="none" 
	d="
M552.877441,461.434662 
	C552.442505,450.852264 552.440979,450.842834 562.664612,449.161987 
	C564.111206,448.924164 565.581604,448.831207 567.534546,448.617096 
	C567.534546,467.035126 567.534546,485.076996 567.534546,503.549133 
	C562.872192,503.549133 558.128662,503.549133 552.890930,503.549133 
	C552.890930,489.745758 552.890930,475.820984 552.877441,461.434662 
z"/>
<path fill="#952936" opacity="1.000000" stroke="none" 
	d="
M940.701538,472.999908 
	C940.699463,483.434021 940.699463,493.368103 940.699463,503.617126 
	C935.815857,503.617126 931.070679,503.617126 925.887573,503.617126 
	C925.887573,486.153290 925.887573,468.747284 925.887573,450.883759 
	C930.550781,450.124542 935.375671,449.339020 940.703674,448.471588 
	C940.703674,456.964905 940.703674,464.732422 940.701538,472.999908 
z"/>
<path fill="#952936" opacity="1.000000" stroke="none" 
	d="
M1141.065674,466.048676 
	C1141.062256,460.913666 1141.062256,456.269745 1141.062256,450.937805 
	C1145.418945,450.166992 1150.215210,449.318420 1155.624023,448.361450 
	C1155.624023,466.988251 1155.624023,485.013794 1155.624023,503.495789 
	C1151.178467,503.495789 1146.456909,503.495789 1141.069092,503.495789 
	C1141.069092,491.305084 1141.069092,478.922455 1141.065674,466.048676 
z"/>
<path fill="#932936" opacity="1.000000" stroke="none" 
	d="
M758.725952,505.364716 
	C759.069031,504.017914 759.298096,503.053070 759.539612,502.091400 
	C762.381470,490.774841 762.907471,490.441193 775.963562,492.025238 
	C773.543396,497.707306 771.349915,503.363007 768.653198,508.767609 
	C768.105042,509.866119 765.702820,510.285919 764.080627,510.537842 
	C762.171570,510.834412 760.181152,510.607361 757.540222,510.607361 
	C757.945557,508.779297 758.281677,507.263733 758.725952,505.364716 
z"/>
<path fill="#96222F" opacity="1.000000" stroke="none" 
	d="
M1047.960327,309.621338 
	C1047.427246,315.907562 1046.998291,321.778931 1046.569214,327.650299 
	C1046.501709,327.654968 1046.434082,327.659637 1046.366455,327.664307 
	C1046.366455,299.145294 1046.366455,270.626312 1046.366455,242.107315 
	C1046.497437,242.099411 1046.628418,242.091522 1046.759399,242.083618 
	C1046.947754,244.839890 1047.136230,247.596146 1047.582031,250.653244 
	C1047.897583,252.700104 1047.955566,254.446136 1047.762451,256.701233 
	C1047.324463,257.528778 1047.407837,257.779327 1047.761475,257.962036 
	C1047.818359,262.697357 1047.875244,267.432709 1047.588623,272.956360 
	C1047.399048,278.803772 1047.553101,283.862915 1047.707031,288.922028 
	C1047.800537,293.656281 1047.894043,298.390533 1047.745605,303.672668 
	C1047.329956,304.546570 1047.423584,304.795563 1047.784424,304.967468 
	C1047.877686,306.380463 1047.971069,307.793488 1047.960327,309.621338 
z"/>
<path fill="#F1DCE4" opacity="1.000000" stroke="none" 
	d="
M895.845093,475.812988 
	C896.878601,475.408661 898.361511,474.733734 899.734436,474.910919 
	C901.186584,475.098267 902.533997,476.096863 903.927185,476.741089 
	C902.549133,477.497528 901.171143,478.253998 899.385010,478.949890 
	C898.066589,477.898590 897.156311,476.907898 895.845093,475.812988 
z"/>
<path fill="#97232F" opacity="1.000000" stroke="none" 
	d="
M1047.812744,288.472107 
	C1047.553101,283.862915 1047.399048,278.803772 1047.478027,273.416626 
	C1047.780029,278.066467 1047.849121,283.044312 1047.812744,288.472107 
z"/>
<path fill="#F1DCE4" opacity="1.000000" stroke="none" 
	d="
M860.067261,492.556274 
	C859.204407,491.741455 858.376404,490.623596 857.548401,489.505737 
	C858.529053,489.162537 859.509705,488.819336 860.800903,488.634460 
	C860.775024,489.946289 860.438599,491.099792 860.067261,492.556274 
z"/>
<path fill="#F1DCE4" opacity="1.000000" stroke="none" 
	d="
M865.404175,488.826904 
	C866.466614,488.561066 867.804138,488.440216 869.529907,488.446014 
	C868.505127,488.705750 867.092224,488.838806 865.404175,488.826904 
z"/>
<path fill="#F1DCE4" opacity="1.000000" stroke="none" 
	d="
M873.316895,488.679657 
	C874.421936,488.389374 875.791931,488.293396 877.565552,488.293762 
	C876.506836,488.551361 875.044312,488.712677 873.316895,488.679657 
z"/>
<path fill="#F1DCE4" opacity="1.000000" stroke="none" 
	d="
M897.745239,479.001282 
	C896.984192,479.396729 895.853210,479.733795 894.365967,480.003784 
	C895.131592,479.605438 896.253479,479.274170 897.745239,479.001282 
z"/>
<path fill="#F1DCE4" opacity="1.000000" stroke="none" 
	d="
M861.839294,493.652527 
	C861.641724,493.819397 861.277466,493.751892 860.745605,493.450623 
	C860.942871,493.283997 861.307800,493.351074 861.839294,493.652527 
z"/>
<path fill="#97232F" opacity="1.000000" stroke="none" 
	d="
M1047.853760,257.732361 
	C1047.407837,257.779327 1047.324463,257.528778 1047.645264,257.123474 
	C1047.779175,257.036652 1047.946045,257.502686 1047.853760,257.732361 
z"/>
<path fill="#97232F" opacity="1.000000" stroke="none" 
	d="
M1047.868896,304.734192 
	C1047.423584,304.795563 1047.329956,304.546570 1047.635986,304.130463 
	C1047.768555,304.040405 1047.953369,304.500916 1047.868896,304.734192 
z"/>
<path fill="#FDFAFA" opacity="1.000000" stroke="none" 
	d="
M403.065796,279.580811 
	C414.101898,282.684479 419.493286,290.575562 422.350739,300.483215 
	C425.648285,311.916870 425.784271,323.550201 422.466766,334.987335 
	C417.370087,352.557831 405.507263,362.673218 380.654083,361.431915 
	C380.557861,359.700531 380.373444,357.916046 380.372467,356.131439 
	C380.360535,334.149963 380.542358,312.166382 380.262604,290.188568 
	C380.195068,284.884460 382.247192,281.772491 386.999664,280.895111 
	C392.135559,279.946899 397.436920,279.894806 403.065796,279.580811 
z"/>
<path fill="#FCF8F9" opacity="1.000000" stroke="none" 
	d="
M902.075989,335.339050 
	C906.447083,331.903503 910.214478,327.709412 914.898254,325.936462 
	C922.376282,323.105835 930.463501,321.884491 939.038208,319.801758 
	C939.038208,331.136078 939.100159,341.220459 938.942078,351.301392 
	C938.926331,352.304596 937.765320,353.858215 936.804932,354.185638 
	C930.744263,356.251923 924.675720,359.242096 918.449646,359.687317 
	C903.660217,360.744812 896.314209,349.546753 902.075989,335.339050 
z"/>
<path fill="#FBF7F7" opacity="1.000000" stroke="none" 
	d="
M570.830933,292.392212 
	C571.170898,295.913239 571.445862,299.022186 571.757019,302.540283 
	C556.774597,302.540283 542.273987,302.540283 527.788269,302.540283 
	C525.796265,290.128235 533.972839,277.383972 545.338501,275.047699 
	C557.980530,272.449097 567.059570,278.494965 570.830933,292.392212 
z"/>
<path fill="#F5E9ED" opacity="1.000000" stroke="none" 
	d="
M445.408508,475.888855 
	C442.777649,476.351898 441.514435,475.795898 441.683167,473.178009 
	C441.851318,470.569000 441.720032,467.940674 441.720032,465.243530 
	C445.564880,464.317566 448.970581,463.930511 450.406372,468.041138 
	C451.825348,472.103577 449.895203,474.722687 445.408508,475.888855 
z"/>
<path fill="#F5E9ED" opacity="1.000000" stroke="none" 
	d="
M819.305176,464.766968 
	C823.307800,465.508057 824.148682,468.173889 823.601440,471.162659 
	C822.799927,475.540192 819.332214,476.081390 815.645996,475.987122 
	C813.359741,468.378143 814.363770,464.992584 819.305176,464.766968 
z"/>
<path fill="#F5E9ED" opacity="1.000000" stroke="none" 
	d="
M1116.502563,475.880829 
	C1121.000000,478.789459 1122.420166,483.028870 1120.924805,488.516632 
	C1119.783936,492.702850 1116.972046,494.789337 1111.807373,494.639771 
	C1111.807373,489.070801 1111.627075,483.540619 1111.998169,478.047699 
	C1112.055054,477.206726 1114.656982,476.537628 1116.502563,475.880829 
z"/>
<path fill="#F5E9ED" opacity="1.000000" stroke="none" 
	d="
M738.682556,476.605530 
	C738.959656,481.624542 739.149780,486.270630 738.981995,490.903717 
	C738.851135,494.517822 735.335999,496.055237 732.298828,494.040192 
	C729.478455,492.168976 728.384155,486.048187 730.101685,481.077545 
	C731.466736,477.126892 734.027405,475.033203 738.682556,476.605530 
z"/>
<path fill="#F5E9ED" opacity="1.000000" stroke="none" 
	d="
M993.059692,470.911499 
	C992.399780,476.993011 988.620911,478.023590 983.443970,477.625214 
	C983.443970,473.475464 983.443970,469.431213 983.443970,465.363159 
	C989.797424,463.910004 991.940979,465.045685 993.059692,470.911499 
z"/>
<path fill="#F1DCE4" opacity="1.000000" stroke="none" 
	d="
M904.526978,489.905273 
	C904.876831,494.347717 901.964661,494.866119 899.381104,494.098083 
	C898.096313,493.716125 897.485535,491.066895 896.569824,489.443329 
	C898.803894,488.339203 901.038025,487.235107 903.272095,486.130981 
	C903.692505,487.257721 904.112976,488.384430 904.526978,489.905273 
z"/>
<path fill="#F5E9ED" opacity="1.000000" stroke="none" 
	d="
M653.738892,480.656952 
	C653.763672,483.899994 654.302002,486.882172 653.544861,489.487946 
	C652.861572,491.840088 650.954590,495.371490 649.246460,495.579132 
	C645.406738,496.045898 645.002686,492.069611 644.699890,489.177673 
	C644.409058,486.400177 644.256470,483.386658 645.049133,480.783173 
	C645.758240,478.453857 647.838745,476.542053 649.314148,474.446045 
	C650.772156,476.374756 652.230164,478.303467 653.738892,480.656952 
z"/>
<path fill="#F5E9ED" opacity="1.000000" stroke="none" 
	d="
M695.378357,477.068359 
	C695.683411,482.034332 696.213501,486.692566 695.744507,491.247894 
	C695.571228,492.931305 693.046692,494.372650 691.594482,495.924377 
	C690.290649,494.405701 688.032166,492.983551 687.867004,491.349762 
	C687.422607,486.954102 687.340454,482.372711 688.117188,478.044952 
	C688.881165,473.787933 691.719299,473.472931 695.378357,477.068359 
z"/>
<path fill="#F1DCE4" opacity="1.000000" stroke="none" 
	d="
M524.766541,493.688782 
	C522.350220,488.371338 523.933960,486.575897 530.777954,486.288757 
	C532.481628,493.465973 531.625305,494.613434 524.766541,493.688782 
z"/>
<path fill="#F5E9ED" opacity="1.000000" stroke="none" 
	d="
M1069.907959,495.110962 
	C1065.947998,489.141632 1066.906494,483.082001 1068.656372,477.133850 
	C1068.999268,475.968323 1071.042603,474.714478 1072.380981,474.619720 
	C1073.421143,474.546021 1075.498413,476.170044 1075.542236,477.112579 
	C1075.792725,482.503845 1075.801514,487.939362 1075.276978,493.299622 
	C1075.194336,494.143829 1071.974365,494.680969 1069.907959,495.110962 
z"/>
<path fill="#F1DCE4" opacity="1.000000" stroke="none" 
	d="
M1034.282227,480.824646 
	C1031.724121,480.878540 1029.574829,480.878540 1026.047363,480.878540 
	C1027.332275,478.510742 1027.859497,476.282257 1029.249146,475.376129 
	C1030.361084,474.650940 1033.112061,474.938690 1034.048706,475.870056 
	C1034.973145,476.789246 1034.532593,479.081085 1034.282227,480.824646 
z"/>
<path fill="#F1DCE4" opacity="1.000000" stroke="none" 
	d="
M490.675781,480.909607 
	C488.289337,480.912567 486.336182,480.912567 484.383026,480.912567 
	C484.029724,480.481873 483.676392,480.051208 483.323059,479.620514 
	C484.889740,477.960754 486.222198,475.861115 488.131348,474.844604 
	C488.965942,474.400208 491.363892,475.870819 492.298065,477.062714 
	C492.769348,477.664001 491.559021,479.583313 490.675781,480.909607 
z"/>
<path fill="#F1DCE4" opacity="1.000000" stroke="none" 
	d="
M1179.338135,474.634521 
	C1183.436890,474.705048 1184.281250,477.011169 1184.100342,480.576660 
	C1181.260620,480.576660 1178.573486,480.576660 1174.061890,480.576660 
	C1176.123169,478.109528 1177.549438,476.402374 1179.338135,474.634521 
z"/>
<path fill="#F1DCE4" opacity="1.000000" stroke="none" 
	d="
M861.110229,480.915405 
	C859.498352,480.284332 858.315674,479.636963 857.133057,478.989624 
	C858.638184,477.501892 860.020996,474.935486 861.673523,474.748138 
	C865.252991,474.342285 866.005310,477.259399 866.056091,480.682312 
	C864.375488,480.763000 862.957458,480.831055 861.110229,480.915405 
z"/>
</svg>