<?xml version="1.0" encoding="utf-8"?>
<!-- Generator: Adobe Illustrator 19.2.1, SVG Export Plug-In . SVG Version: 6.00 Build 0)  -->
<svg version="1.1" id="layer" xmlns="http://www.w3.org/2000/svg" xmlns:xlink="http://www.w3.org/1999/xlink" x="0px" y="0px"
	 viewBox="0 0 652 652" style="enable-background:new 0 0 652 652;" xml:space="preserve">
<style type="text/css">
	.st0{fill:#D6000D;}
	.st1{fill:#FFFFFF;}
</style>
<rect x="20" y="191" class="st0" width="600" height="260"/>
<g id="Layer_1_1_">
	<title>QUB -logo -web</title>
	<desc>Created with Sketch.</desc>
	<g id="Style-guide_1_">
		<g id="_x31_.-Logos_1_" transform="translate(-64.000000, -171.000000)">
			<g id="QUB--logo--web_1_" transform="translate(64.000000, 171.000000)">
				<g id="Group-3_1_" transform="translate(0.000000, 0.132099)">
					<g id="Clip-2_1_">
					</g>
					<path id="Fill-1_1_" class="st1" d="M222.9,324.2V222.9H52v101.5c0,51.8,38.4,94.2,85.5,94.2
						C184.5,418.5,222.9,376.2,222.9,324.2"/>
				</g>
				<path id="Fill-4_1_" class="st0" d="M82.9,382.2l54.8-55.6l54.4,56c5.5-6.3,10.3-13.8,13.8-22L155.5,309l58.4-58.9v-17.4h-17.2
					l-58.9,59.5l-58.8-59.5H61.5v17l58.8,59.3l-51,51.6C72.8,368.6,77.3,375.9,82.9,382.2"/>
				<path id="Fill-6_1_" class="st0" d="M147.3,356.1l-1.8,2.6l-0.4-6.5c0.8-0.2,1.4-0.4,2-0.6v4.5L147.3,356.1L147.3,356.1z
					 M137.7,355.7c0.6-0.2,1.2-0.6,1.8-0.8c0.2-0.2,0.4-0.2,0.8-0.4l-0.2,12.3l-1.8,2.6L137.7,355.7z M137.5,370.3l-1.8,2.8
					l-0.4-16.4c0.8-0.2,1.6-0.6,2.6-1L137.5,370.3z M134.9,374.1l-1.8,2.4l-0.6-19.2c0.8-0.2,1.6-0.4,2.4-0.6L134.9,374.1
					L134.9,374.1z M142.6,363l-1.8,2.6l-0.4-11.3c0.8-0.4,1.6-0.8,2.4-1.2L142.6,363z M142.8,353.1c0.8-0.4,1.6-0.8,2.4-1l-0.2,7.3
					l-1.8,2.6L142.8,353.1z M154.5,352.1v-1c0,0-3.6-4.7-15.6-0.8c-8.9,3-14.2-3.8-14.2-3.8v4.9c0,0,4.9,4.7,14.8,0.4
					c9.9-4.2,13.1-1.8,14.4-0.8c-1.2-1-4.5-2.4-14.4,1.8c-7.9,3.4-12.7,1-14.2,0v3.2c0,0,2.4,2,7.7,1l-0.2,20.2v0.2
					c0.4,0.8,0.6,1.4,1,2l17.2-24.7c0.6-0.8,1.6-1.2,2.6-1.2c0.4,0,0.8,0,1,0.2v-1L154.5,352.1L154.5,352.1z"/>
				<path id="Fill-8_1_" class="st0" d="M153.5,354.5c-0.8,0-1.6,0.4-2.2,1.2l0,0l-17,25.3c0.6,1.2,1.4,2.2,2.2,3.4l14.8-25.3l0,0
					l-14,26.3c0.2,0.2,0.6,0.6,0.8,0.8h3l11.3-24.9l-1.2-0.8l0.6-1c0.4,0.4,1,0.6,1.6,0.6c1.4,0,2.8-1.2,2.8-2.8
					C156,355.7,154.9,354.5,153.5,354.5"/>
				<path id="Fill-10_1_" class="st0" d="M125.2,357.3c0,1-0.2,2-0.2,2.8c0,7.9,3,15.2,7.7,21c-0.6-0.4-1.2-0.8-2-0.8
					c-1.6,0-2.8,1.2-2.8,2.8c0,1.6,1.2,2.8,2.8,2.8c0.6,0,1.4-0.2,1.8-0.6c0.6-0.4,1.2-0.8,2-0.8c1,0,1.6,0.6,2.4,1.4
					c-5.1-5.3-8.3-12.9-8.3-20.8c0-2.2,0.2-4.4,0.8-6.5C126.4,358.5,125.2,357.3,125.2,357.3"/>
				<path id="Fill-12_1_" class="st0" d="M188.5,291.8c0,0-1.6,1.4-1.4-0.4c0.2-1.8,2.2,0,2.2,0L188.5,291.8z M208.9,287.5
					c-1.6-2-7.5-7.7-19.2-1.2c0,0,12.1-7.1,18-1c-8.3-11.7-21.2-2.8-21.2-2.8s3,1.6,1.6,4.4c0,0-2.2,1.8-2.6,3c0,0,0.2,3.6-2.4,5.3
					c-1.4,1.2-3.2,0.8-3.2,0.8c-0.8,2.2,2.6,3.8,2.6,3.8c1.4,1,3-1.4,3-1.4c3-1.6,5.7-1.2,5.7-1.2c3.8,0.2,5.1-1.8,5.5-3l0.2-1.2
					c0,0.6,0.2,1,0.4,1.2c0,0.2,0.2,0.2,0.2,0.4c1.4,2.8,4.4,0.6,4.4,0.6c0,5.1,4.4,2.6,4.4,2.6c-0.8,3.4,1.4,3.8,2.6,3.6
					C211.4,295.6,209.3,289,208.9,287.5L208.9,287.5z"/>
				<path id="Fill-14_1_" class="st0" d="M207.9,308c-2.2,8.7-7.9,2.4-7.9,2.4l5.5-4.9c-0.6-1.8-4.2-6.3-9.9-6.1
					c-1.4,1.2-3,1.8-3,1.8c-7.3,2.2-7.7,6.9-7.7,6.9c-2.4,7.7,5.1,12.7,5.1,12.7c2.6,1.6,8.5,6.5,8.5,6.5c3.6,3.6,1.4,5.7,1.4,5.7
					c-2.2,2.8-4.7,1-4.7,1c-0.4-0.4-0.8-0.8-0.8-1.6c0-1,0.8-1.8,1.8-1.8c1,0,1.8,0.8,1.8,1.8v0.2c0.2-0.4,0.2-1,0.2-1.4
					c0-2.4-2-4.4-4.4-4.4c-1.8,0-3.4,1.2-4,2.8c-2.4,8.1,4.5,9.7,4.5,9.7c8.3,2,10.3-5.1,10.3-5.1c0-0.2,0.2-0.4,0.2-0.6
					c-0.2-2.4-1.8-5.1-5.7-8.1c-10.9-7.9-8.7-15-8.3-16v-0.2c0,0,0,0,0,0.2c-0.4,0.8-1.4,5.9,9.3,13.6c2.6,1.8,4,3.8,4.7,5.5
					c-0.8-3.6-2.4-6.3-2.4-6.3c6.1,1,1.8-3.4,1.8-3.4c2.6-0.4,4-2,4-2C212,312,207.9,308,207.9,308"/>
				<path id="Fill-16_1_" class="st0" d="M75.5,315c0,0,6.3-11.9,14-8.7C89.6,306.4,82.1,304.9,75.5,315 M97.1,299.7
					c0-1-0.4-3-1-3.4c-0.8-1-2.6-0.8-3.2,0.2c-1.2,1.8-0.6,12.5-0.6,13.6c-7.3-0.6-10.7,7.5-10.7,7.5s2.6-8.9,9.5-9.1
					c0-18.4,0-21-0.2-22c-0.2-1.2-0.6-2.4-2.4-2.4c-1.6,0-2,1.2-2,2.2v16.2c0.6,0,1.2,0.2,1.8,0.4c-1-0.2-2.2-0.2-3.2-0.2v-18.6
					c0-2.2-0.8-2.8-2.4-2.6c-1.4,0-2,1.4-2,2v19.6c-0.6-0.2-1.2-0.2-1.6-0.2v-14.8c0,0,0.2-2.8-2.2-2.6c0,0-1.8,0.2-1.8,2.4
					c0,1.6,0,11.7,0,15.8c-2,0.4-3.2,0.6-3.2,0.6c0.6-0.2,1.4-0.6,2-0.8v-8.5c0,0,0.2-2.8-1.8-2.8c-1.2,0-1.6,1-1.6,2.2
					c0,0,0,0.2,0,0.6l-0.2,13.5l0.2,3c0,3.6,0.2,7.1,1.2,10.3l0,0c0,0.2,0.2,0.4,0.2,0.8c0.2,0.6,0.6,1.4,1,2c2.4,3.4,7.3,4,7.3,4
					c-2,0.4-3.6,0-4.7-0.6c0,0.2,0,0.4,0,0.6s0,0.6,0,1c0,0.4,0,0.8,0,1.2c0,1,0,2.2,0.4,2.8c0.8,0,4.5,0,7.3,0c3.6,0,5.5,0,6.1,0
					c0-0.8-0.8-3-0.4-4.5c0.2-1.2,0.6-2.2,1-3.2c3.2-5.5,6.7-11.1,6.7-14c0.2-3,0.2-8.1,0.2-8.1C97.3,302.1,97.1,301.1,97.1,299.7"
					/>
				<path id="Fill-18_1_" class="st0" d="M150.3,242.6c-2,0.2-3.4-0.6-3.4-0.6c-2.2-1.6-4.2-1.4-5.3-1v-2c1.2-0.4,3.2-0.4,5.3,1
					c0,0,1.4,0.8,3.4,0.6V242.6z M150.3,249.9c-2,0.2-3.4-0.6-3.4-0.6c-2.2-1.6-4.2-1.4-5.3-1v-2c1.2-0.4,3.2-0.4,5.3,1
					c0,0,1.4,0.8,3.4,0.6V249.9z M150.3,256.8c-2,0.2-3.4-0.6-3.4-0.6c-2.2-1.6-4.2-1.4-5.3-1v-2c1.2-0.4,3.2-0.4,5.3,1
					c0,0,1.4,0.8,3.4,0.6V256.8z M133.7,240.8c-1.2-0.4-3.2-0.4-5.3,1c0,0-1.4,0.8-3.4,0.6v-2c2,0.2,3.4-0.6,3.4-0.6
					c2.2-1.6,4.2-1.4,5.3-1V240.8z M133.7,248.1c-1.2-0.4-3.2-0.4-5.3,1c0,0-1.4,0.8-3.4,0.6v-2c2,0.2,3.4-0.6,3.4-0.6
					c2.2-1.6,4.2-1.4,5.3-1V248.1z M133.7,255.2c-1.2-0.4-3.2-0.4-5.3,1c0,0-1.4,0.8-3.4,0.6v-2c2,0.2,3.4-0.6,3.4-0.6
					c2.2-1.6,4.2-1.4,5.3-1V255.2z M151.3,236.2c-2.4,0.2-4.2-0.8-4.2-0.8c-1.4-1.2-2.6-1.6-3.6-1.6c-3.2-0.4-5.7,1.2-5.9,3.6
					c-0.2-2.4-2.8-4-5.9-3.6c-1,0.2-2.2,0.6-3.6,1.6c0,0-1.6,1-4.2,0.8l-2.4-0.2v26.3l2.4,0.2c2.4,0.2,4.2-0.8,4.2-0.8
					c1.4-1,2.6-1.4,3.6-1.6c3.2-0.4,5.7,1.2,5.9,3.4l0,0l0,0c0,0,0,0,0-0.2c0,0,0,0,0,0.2l0,0l0,0c0.2-2.4,2.8-3.8,5.9-3.4
					c1,0.2,2.2,0.6,3.6,1.6c0,0,1.6,1,4.2,0.8l2.4-0.2V236L151.3,236.2z"/>
				<path id="Fill-20_1_" class="st0" d="M156.2,235.8v29.1h-15.6c-1.6,0-2.8,1.2-3,2.8c-0.2-1.6-1.4-2.8-3-2.8h-15.6v-29.1
					c-1.6,0.2-2.6,1.4-2.6,3v28.7h18.2c0,0,0.6,2,3,2.2l0,0l0,0l0,0l0,0c2.4-0.2,3-2.2,3-2.2h18.2v-28.7
					C158.8,237.2,157.8,236,156.2,235.8"/>
				<path id="Fill-22_1_" class="st1" d="M137.7,318.1L137.7,318.1L137.7,318.1c5.7,0,9.1,1.2,10.5,1.8l0,0
					c0.2-9.7,3.4-14.2,3.4-14.4l0.2-0.4h-0.2c-2-1-3.6,1.4-4.2,2.2c-0.4-0.4-0.8-0.8-1.2-0.8c-0.8-0.2-1.4,0.8-1.4,0.8l-0.2,0.2
					c0,0,1.2,0.4,1.2,2.2c0,0,0.4,2.4-3.2,1.6c-3.6-0.8-4.2-4-4.2-4l2.8,1v-4.5l-2.6,1l0.8-3.2h-1.8l0,0h-0.2l0,0h-0.2l0,0h-1.8
					l0.8,3.2l-2.6-1v4.5l2.8-1c0,0-0.4,3.2-4.2,4c-3.6,0.8-3.2-1.6-3.2-1.6c0-1.8,1.2-2.2,1.2-2.2l-0.2-0.2c0,0-0.6-0.8-1.4-0.8
					c-0.4,0-0.8,0.4-1.2,0.8c-0.6-0.8-2.2-3.4-4.2-2.2l-0.4,0.2l0.2,0.4c0,0,3.2,4.7,3.4,14.4l0,0
					C128.6,319.3,131.9,318.1,137.7,318.1L137.7,318.1L137.7,318.1L137.7,318.1z"/>
				<path id="Fill-24_1_" class="st1" d="M135.3,293.8c-5.3,0.8-9.5,4.5-11.3,9.5v0.2c1-0.4,1.8-0.2,2.6,0.4v-0.2
					c1.8-4.3,6.1-7.5,11.1-7.5l0,0L135.3,293.8z"/>
				<path id="Fill-26_1_" class="st1" d="M151.3,303.3c-1.8-4.9-6.1-8.7-11.3-9.5l-2.4,2.4l0,0c4.9,0,9.3,3.2,11.1,7.5v0.2
					C149.3,303.3,150.3,303.1,151.3,303.3L151.3,303.3z"/>
				<path id="Fill-28_1_" class="st1" d="M137.9,319.9L137.9,319.9L137.9,319.9L137.9,319.9L137.9,319.9h-0.4l0,0l0,0
					c-5.1,0-9.3,1-9.3,2.2c0,1,3.2,2,7.3,2.2l2-2l2,2c4.4-0.2,7.7-1,7.7-2.2C147.1,320.9,143,319.9,137.9,319.9"/>
				<path id="Fill-30_1_" class="st0" d="M109.2,398.6c0,0.2,0,0.2,0.2,0.2h4.7c0.2,0,0.2-0.2,0.2-0.2v-1c0-0.2,0-0.2-0.2-0.2h-3.6
					v-2.2h3c0.2,0,0.2,0,0.2-0.2v-1c0-0.2-0.2-0.2-0.2-0.2h-3v-2h3.6c0.2,0,0.2-0.2,0.2-0.2v-1c0-0.2,0-0.2-0.2-0.2h-4.7
					c-0.2,0-0.2,0.2-0.2,0.2V398.6z"/>
				<path id="Fill-32_1_" class="st0" d="M117.3,398c0.2,0.2,1.2,1,2.6,1c1.6,0,2.8-1.2,2.8-2.4c0-1.6-1.4-2.2-2.4-2.8
					c-1-0.4-1.4-0.8-1.4-1.4c0-0.4,0.4-0.8,1-0.8c0.6,0,1.6,0.6,1.6,0.6c0.2,0,0.4,0,0.4-0.2l0.4-0.6c0-0.2,0-0.4,0-0.4
					c-0.2-0.2-1.2-0.8-2.4-0.8c-1.8,0-2.6,1.2-2.6,2.4c0,1.4,1.2,2.2,2.2,2.6c1,0.4,1.6,0.8,1.6,1.4c0,0.6-0.4,1-1,1
					c-0.8,0-1.8-0.8-1.8-0.8c-0.2,0-0.4,0-0.4,0l-0.6,0.8C117.1,397.8,117.3,398,117.3,398"/>
				<path id="Fill-34_1_" class="st0" d="M126.8,398.6c0,0.2,0.2,0.2,0.2,0.2h1.2c0.2,0,0.2-0.2,0.2-0.2v-6.7h1.8
					c0.2,0,0.2-0.2,0.2-0.2v-1c0-0.2,0-0.2-0.2-0.2H125c-0.2,0-0.2,0.2-0.2,0.2v1c0,0.2,0,0.2,0.2,0.2h1.8L126.8,398.6L126.8,398.6z
					"/>
				<path id="Fill-36_1_" class="st0" d="M140.6,398.6c0,0.2,0,0.2,0.2,0.2h1c0.2,0,0.2-0.2,0.2-0.2v-7.7c0-0.2,0-0.2-0.2-0.2H141
					l-1.8,1.4v0.2v0.6c0,0.2,0.2,0.2,0.2,0.2l1-0.2v5.7H140.6z"/>
				<path id="Fill-38_1_" class="st0" d="M146.4,396.6c0-0.6,0.4-1,1.2-1.2c0.8,0.2,1.2,0.8,1.2,1.2c0,0.6-0.6,1.2-1.2,1.2
					S146.4,397.4,146.4,396.6 M147.5,394.1c-0.8-0.2-1-0.6-1-1.2s0.4-1,1-1s1.2,0.4,1.2,1S148.3,393.9,147.5,394.1 M144.8,396.6
					c0,1.4,1,2.4,2.8,2.4s2.8-1,2.8-2.4c0-1-1-1.8-1.4-2l0,0c0.4-0.2,1.2-1,1.2-1.8c0-1.4-1.2-2.2-2.6-2.2s-2.6,0.8-2.6,2.2
					c0,1,0.8,1.6,1.2,1.8l0,0C146,394.9,144.8,395.7,144.8,396.6"/>
				<path id="Fill-40_1_" class="st0" d="M153.9,395.9l2.4-2.8v2.8H153.9z M152.7,397.2h3.6v1.6c0,0.2,0.2,0.2,0.2,0.2h1
					c0.2,0,0.2-0.2,0.2-0.2v-1.6h1c0.2,0,0.2-0.2,0.2-0.2v-0.8c0-0.2,0-0.2-0.2-0.2h-1v-5.1c0-0.2-0.2-0.2-0.2-0.2h-0.6h-0.2
					l-4.2,5.1v1C152.5,397,152.5,397.2,152.7,397.2L152.7,397.2z"/>
				<path id="Fill-42_1_" class="st0" d="M160.8,398c0.2,0.4,1,1,2.4,1c1.6,0,2.8-1.2,2.8-2.8s-1-2.6-2.8-2.6h-1v-1.6h2.6
					c0.2,0,0.2-0.2,0.2-0.2v-0.8c0-0.2,0-0.2-0.2-0.2H161c-0.2,0-0.2,0.2-0.2,0.2v3.6c0,0.2,0.2,0.4,0.4,0.4h1.8
					c1,0,1.4,0.6,1.4,1.4s-0.6,1.4-1.4,1.4s-1.4-0.6-1.6-0.6h-0.2l-0.4,0.4C160.8,397.8,160.8,397.8,160.8,398"/>
				<path id="Fill-44_1_" class="st0" d="M132.9,398c0-0.6,0.4-1,1-1c0.6,0,1,0.4,1,1s-0.4,1-1,1C133.3,399,132.9,398.4,132.9,398"
					/>
				<path id="Fill-46_1_" class="st0" d="M133.3,394.9h0.8c0.8,0,1.6-0.6,1.6-1.6c0-1-0.6-1.6-1.6-1.6h-0.8V394.9z M134.1,396h-1.8
					c-0.2,0-0.2-0.2-0.2-0.4v-4.9c0-0.2,0.2-0.4,0.2-0.4h1.8c1.6,0,2.8,1.2,2.8,2.8C136.9,394.9,135.7,396,134.1,396L134.1,396z"/>
				<path id="Fill-48_1_" class="st1" d="M318.6,273.2c-9.7,0-17-7.1-17-16.6v-25.7c0-0.8,0.8-1.6,1.4-1.6h5.7
					c0.8,0,1.4,0.6,1.4,1.6v25.3c0,4.9,3.4,8.3,8.3,8.3c4.9,0,8.5-3.4,8.5-8.3v-25.1c0-0.8,0.6-1.6,1.4-1.6h5.7
					c0.8,0,1.4,0.8,1.4,1.6v25.7C335.7,266.3,328.3,273.2,318.6,273.2"/>
				<path id="Fill-50_1_" class="st1" d="M366.7,272.6h-24.3c-0.8,0-1.4-0.6-1.4-1.6v-40c0-0.8,0.6-1.6,1.4-1.6h24.3
					c0.8,0,1.4,0.6,1.4,1.6v4.9c0,0.8-0.6,1.6-1.4,1.6h-17.4v9.3h14.4c0.8,0,1.4,0.8,1.4,1.6v4.9c0,0.8-0.6,1.6-1.4,1.6h-14.4v9.9
					h17.4c0.8,0,1.4,0.6,1.4,1.6v4.9C368.3,272,367.5,272.6,366.7,272.6"/>
				<path id="Fill-52_1_" class="st1" d="M399.8,272.6h-24.3c-0.8,0-1.4-0.6-1.4-1.6v-40c0-0.8,0.6-1.6,1.4-1.6h24.3
					c0.8,0,1.4,0.6,1.4,1.6v4.9c0,0.8-0.6,1.6-1.4,1.6h-17.4v9.3h14.4c0.8,0,1.4,0.8,1.4,1.6v4.9c0,0.8-0.6,1.6-1.4,1.6h-14.4v9.9
					h17.4c0.8,0,1.4,0.6,1.4,1.6v4.9C401.1,272,400.5,272.6,399.8,272.6"/>
				<path id="Fill-54_1_" class="st1" d="M441.7,273.2h-0.8c-0.6,0-1-0.2-1.2-0.6l-24.1-26.9V271c0,0.8-0.6,1.6-1.4,1.6h-5.5
					c-0.8,0-1.4-0.8-1.4-1.6v-40.6c0-0.8,0.6-1.4,1.4-1.4h1c0.6,0,1,0.2,1.2,0.6l23.9,25.9v-24.5c0-0.8,0.6-1.6,1.4-1.6h5.5
					c0.8,0,1.4,0.8,1.4,1.6v40.8C443.1,272.6,442.5,273.2,441.7,273.2"/>
				<path id="Fill-56_1_" class="st1" d="M451,242.2c-0.4,0-0.6-0.2-0.8-0.2l-1.6-1.2c-0.2-0.2-0.8-0.8,0-1.8
					c1.8-2.2,2.8-4.7,2.8-6.7c0-0.2,0-0.4,0-0.6c-0.6,0.2-1,0.4-1.6,0.4c-2.2,0-3.8-1.8-3.8-4.4c0-2.6,2-4.4,4.7-4.4
					c2.6,0,5.3,2.2,5.3,7.1c0,5.1-2.4,8.9-4.2,11.3C451.4,242,451.2,242.2,451,242.2"/>
				<path id="Fill-58_1_" class="st1" d="M471,273.2c-7.9,0-11.9-3.6-13.4-4.7c-0.8-0.6-1-1.2-0.4-2.2l2.2-3.8
					c0.2-0.4,0.6-0.8,1.2-0.8c0.4,0,1,0,1.4,0.4c2.6,2,5.1,3.8,8.9,3.8c2.8,0,5.1-2,5.1-4.4c0-2.8-2.2-4.7-7.3-6.9
					c-4.9-2-11.5-5.5-11.5-13.5c0-5.7,4.4-12.1,13.8-12.1c6.3,0,11.3,3.4,12.3,4.2c0.4,0.2,0.6,0.6,0.6,1c0.2,0.6,0,1-0.2,1.4
					l-2.4,3.4c-0.2,0.4-0.6,0.8-1.2,1s-1,0.2-1.4-0.2l-0.4-0.2c-2.4-1.6-4.7-3-7.7-3c-3.4,0-4.9,2-4.9,4c0,2.6,2,4.5,6.9,6.5
					c6.3,2.6,12.7,6.3,12.7,14C485.2,266.9,480.3,273.2,471,273.2"/>
				<path id="Fill-60_1_" class="st1" d="M328.1,331.8h-0.8c-0.6,0-1-0.2-1.2-0.6L302,304.3v25.3c0,0.8-0.6,1.6-1.4,1.6h-5.5
					c-0.8,0-1.4-0.8-1.4-1.6v-40.7c0-0.8,0.6-1.4,1.4-1.4h1c0.6,0,1,0.2,1.2,0.6l23.7,25.7v-24.1c0-0.8,0.6-1.6,1.4-1.6h5.5
					c0.8,0,1.4,0.8,1.4,1.6v40.7C329.5,331.2,328.9,331.8,328.1,331.8"/>
				<path id="Fill-62_1_" class="st1" d="M344.8,331.2h-5.5c-0.8,0-1.4-0.8-1.4-1.6v-40c0-0.8,0.8-1.6,1.4-1.6h5.5
					c0.8,0,1.4,0.8,1.4,1.6v40.2C346.3,330.6,345.6,331.2,344.8,331.2"/>
				<path id="Fill-64_1_" class="st1" d="M372.1,331.8h-0.6c-0.4,0-1-0.2-1.4-0.8l0,0l-18.6-40.8c-0.2-0.4-0.2-1,0-1.4
					c0.2-0.4,0.8-0.6,1.2-0.6h6.1c0.6,0,1.2,0.4,1.4,0.8l11.5,25.7l11.5-25.7c0.2-0.4,0.6-0.8,1.4-0.8h6.1c0.6,0,1,0.2,1.2,0.6
					c0.2,0.4,0.2,1,0,1.4L373.2,331C373,331.6,372.5,331.8,372.1,331.8"/>
				<path id="Fill-66_1_" class="st1" d="M422.9,331.2h-24.3c-0.8,0-1.4-0.6-1.4-1.6v-40c0-0.8,0.6-1.6,1.4-1.6h24.3
					c0.8,0,1.4,0.6,1.4,1.6v4.9c0,0.8-0.6,1.6-1.4,1.6h-17.4v9.3h14.4c0.8,0,1.4,0.8,1.4,1.6v4.9c0,0.8-0.6,1.6-1.4,1.6h-14.4v9.9
					h17.4c0.8,0,1.4,0.6,1.4,1.6v4.9C424.3,330.6,423.7,331.2,422.9,331.2"/>
				<path id="Fill-68_1_" class="st1" d="M440.1,307.4h9.5c3,0,5.5-2.8,5.5-5.9c0-3-2.6-5.5-5.5-5.5h-9.5V307.4z M461.5,331.2h-6.3
					c-0.8,0-1.2-0.6-1.2-0.8l-7.9-15.8h-6.1v15c0,0.8-0.8,1.6-1.4,1.6H433c-0.8,0-1.4-0.6-1.4-1.6v-40c0-0.8,0.6-1.6,1.4-1.6h17.2
					c7.3,0,13.5,5.9,13.5,13.5c0,5.3-3.4,10.1-8.7,12.5l8.1,15c0.2,0.6,0.2,1.2,0,1.6C462.5,331,462.1,331.2,461.5,331.2
					L461.5,331.2z"/>
				<path id="Fill-70_1_" class="st1" d="M482.4,331.8c-7.9,0-11.9-3.6-13.5-4.7c-0.8-0.6-1-1.2-0.4-2.2l2.2-3.8
					c0.2-0.4,0.6-0.8,1.2-0.8c0.4,0,1,0,1.4,0.4c2.6,2,5.1,3.8,8.9,3.8c2.8,0,5.1-2,5.1-4.4c0-2.8-2.2-4.7-7.3-6.9
					c-4.9-2-11.5-5.5-11.5-13.5c0-5.7,4.3-12.1,13.8-12.1c6.3,0,11.3,3.4,12.3,4.2c0.4,0.2,0.6,0.6,0.6,1c0.2,0.6,0,1-0.2,1.4
					l-2.2,3.4c-0.2,0.4-0.6,0.8-1.2,1c-0.6,0.2-1,0.2-1.4-0.2l-0.4-0.2c-2.4-1.6-4.8-3-7.7-3c-3.4,0-4.9,2-4.9,4
					c0,2.6,2,4.5,6.9,6.5c6.3,2.6,12.7,6.3,12.7,14C496.7,325.4,491.7,331.8,482.4,331.8"/>
				<path id="Fill-72_1_" class="st1" d="M510.9,331.2h-5.5c-0.8,0-1.4-0.8-1.4-1.6v-40c0-0.8,0.6-1.6,1.4-1.6h5.5
					c0.8,0,1.4,0.8,1.4,1.6v40.2C512.3,330.6,511.7,331.2,510.9,331.2"/>
				<path id="Fill-74_1_" class="st1" d="M534.3,331.2h-5.5c-0.8,0-1.4-0.8-1.4-1.6V296h-8.9c-0.8,0-1.4-0.6-1.4-1.6v-4.9
					c0-0.8,0.6-1.6,1.4-1.6h26.1c0.8,0,1.4,0.6,1.4,1.6v4.9c0,0.8-0.6,1.6-1.4,1.6h-8.9v33.6C535.8,330.6,535.1,331.2,534.3,331.2"
					/>
				<path id="Fill-76_1_" class="st1" d="M570.3,331.2h-5.5c-0.8,0-1.4-0.6-1.4-1.6v-19.2l-13.6-20.2c-0.4-0.6-0.4-1,0-1.6
					c0.2-0.4,0.8-0.8,1.4-0.8h6.1c0.4,0,1,0.2,1.2,0.6l9.3,13.5l9.3-13.5c0.4-0.4,0.8-0.6,1.2-0.6h6.1c0.6,0,1,0.2,1.4,0.8
					c0.2,0.4,0.2,1,0,1.6l-13.8,20.2v19.2C571.8,330.6,571.1,331.2,570.3,331.2"/>
				<path id="Fill-78_1_" class="st1" d="M269.4,331.8c-9.7,0-17-7.1-17-16.4v-25.7c0-0.8,0.6-1.4,1.4-1.4h5.7
					c0.8,0,1.4,0.6,1.4,1.4V315c0,5.1,3.4,8.5,8.5,8.5c4.9,0,8.5-3.6,8.5-8.5v-25.3c0-0.8,0.6-1.4,1.4-1.4h5.7
					c0.8,0,1.4,0.6,1.4,1.4v25.7C286.4,324.6,279.1,331.8,269.4,331.8"/>
				<path id="Fill-80_1_" class="st1" d="M258.1,376.7v-12.3h8.9c3.4,0,5.9,2.6,5.9,5.9c0,3.6-2,6.1-5.9,6.1h-8.9V376.7z
					 M258.3,359.5v-12.1h7.3c3.6,0,6.1,2.2,6.1,5.9c0,3.6-2.4,6.1-6.1,6.1L258.3,359.5L258.3,359.5z M272.6,361.6
					c3.2-1.6,5.5-4.7,5.5-9.1c0-5.9-4.9-10.5-11.7-10.5h-12.7c-0.6,0-1,0.6-1,1v37.8c0,0.6,0.4,1,1,1H267c7.1,0,12.3-4.5,12.3-11.1
					C279.1,366,275.9,363,272.6,361.6L272.6,361.6z"/>
				<path id="Fill-82_1_" class="st1" d="M283.6,381c0,0.6,0.4,1,1,1h22.5c0.6,0,1-0.6,1-1v-3.2c0-0.6-0.4-1-1-1h-17.8v-12.5h15
					c0.6,0,1-0.4,1-1v-3.2c0-0.6-0.6-1-1-1h-15v-11.7h17.8c0.6,0,1-0.6,1-1v-3.2c0-0.6-0.4-1-1-1h-22.5c-0.6,0-1,0.6-1,1V381z"/>
				<path id="Fill-84_1_" class="st1" d="M314.5,381c0,0.6,0.4,1,1,1h20.2c0.6,0,1-0.6,1-1v-3.2c0-0.6-0.4-1-1-1h-15.2v-33.6
					c0-0.6-0.6-1-1-1h-3.8c-0.6,0-1,0.6-1,1V381H314.5z"/>
				<path id="Fill-86_1_" class="st1" d="M341,381c0,0.6,0.4,1,1,1h3.8c0.6,0,1-0.6,1-1v-15h15c0.6,0,1-0.6,1-1v-3.2
					c0-0.6-0.6-1-1-1h-15v-13.3h17.8c0.6,0,1-0.6,1-1v-3.2c0-0.6-0.4-1-1-1H342c-0.6,0-1,0.6-1,1V381z"/>
				<path id="Fill-88_1_" class="st1" d="M375.2,368.4l6.9-15.6h0.2l6.9,15.6H375.2z M364.7,382h3.6c0.6,0,1.2-0.4,1.4-0.8l3.4-7.9
					h18.4l3.6,7.9c0.2,0.6,0.6,0.8,1.4,0.8h3.6c0.8,0,1.4-0.8,1-1.6L383.7,342c-0.2-0.4-0.6-0.6-1-0.6h-0.6c-0.2,0-0.8,0.2-1,0.6
					l-17.4,38.4C363.4,381.2,363.7,382,364.7,382L364.7,382z"/>
				<path id="Fill-90_1_" class="st1" d="M404.9,378c1,0.8,5.3,4.5,12.1,4.5c7.3,0,12.7-4.9,12.7-10.9c0-6.9-5.5-10.1-12.1-12.9
					c-4.7-2-7.1-4-7.1-7.1c0-2.2,1.6-5.1,6.3-5.1c3.4,0,5.3,1.4,7.7,2.8c0.8,0.6,1.6,0.2,2-0.6l1.4-2.2c0.6-0.8,0.2-1.6-0.4-2
					c-0.6-0.4-4.7-3.4-10.5-3.4c-8.9,0-12.5,6.1-12.5,10.5c0,6.5,4.5,9.7,10.3,12.1c5.5,2.4,8.5,4.5,8.5,7.9c0,3-2.6,5.3-6.3,5.3
					c-4.4,0-6.3-1.8-9.1-4c-0.6-0.6-1.4-0.2-2,0.4l-1.4,2.4C403.9,377.3,404.5,377.7,404.9,378"/>
				<path id="Fill-92_1_" class="st1" d="M442.1,381c0,0.6,0.6,1,1,1h3.8c0.6,0,1-0.6,1-1v-33.6h9.3c0.6,0,1-0.6,1-1v-3.2
					c0-0.6-0.4-1-1-1h-24.3c-0.6,0-1,0.6-1,1v3.2c0,0.6,0.4,1,1,1h9.3L442.1,381L442.1,381z"/>
				<path id="Fill-94_1_" class="st1" d="M296.9,251.1c0-12.5-9.9-22.4-22.2-22.4s-22.2,10.1-22.2,22.4c0,12.3,9.9,22.4,22.2,22.4
					c2,0,3.8-0.2,5.5-0.8l2.4,3.6c0.2,0.6,1,1.2,1.6,1.2h8.1c0.6,0,0.8-0.4,0.6-1.2l-4.9-7.1C293.3,265.1,296.9,258.6,296.9,251.1
					 M287.8,251.1c0,4.3-2,8.1-5.1,10.7l-1.2-1.6c-0.2-0.6-1-1.2-1.6-1.2h-8.1c-0.6,0-0.8,0.4-0.6,1.2l3,4.4
					c-7.1-0.2-12.7-6.1-12.7-13.3c0-7.3,5.9-13.3,13.1-13.3C282.1,237.8,287.8,243.7,287.8,251.1"/>
			</g>
		</g>
	</g>
</g>
</svg>
