<?xml version="1.0" standalone="no"?>
<!DOCTYPE svg PUBLIC "-//W3C//DTD SVG 20010904//EN"
 "http://www.w3.org/TR/2001/REC-SVG-20010904/DTD/svg10.dtd">
<svg version="1.0" xmlns="http://www.w3.org/2000/svg"
 width="900.000000pt" height="900.000000pt" viewBox="0 0 400.000000 400.000000"
 preserveAspectRatio="xMidYMid meet">

<g transform="translate(0.000000,400.000000) scale(0.100000,-0.100000)"
fill="#000000" stroke="none">
<path d="M300 2776 c0 -723 4 -1163 10 -1213 56 -425 257 -808 567 -1078 746
-653 1878 -540 2482 247 197 258 315 571 341 911 5 67 10 605 10 1195 l0 1072
-1705 0 -1705 0 0 -1134z m1092 347 l608 -608 608 608 607 607 153 0 152 0 0
-174 0 -175 -597 -596 -596 -597 527 -527 c427 -427 527 -532 522 -548 -13
-40 -118 -208 -182 -290 l-67 -85 -563 563 -562 562 -558 -558 c-446 -446
-561 -556 -573 -548 -28 17 -148 183 -202 280 l-52 95 529 529 529 529 -598
598 -597 597 0 173 0 172 152 0 153 0 607 -607z m588 559 c27 -20 27 -20 47 0
33 33 94 35 152 4 33 -17 66 -26 96 -26 l45 0 0 -259 0 -259 -25 -6 c-31 -8
-96 6 -126 28 -42 29 -130 17 -152 -21 -7 -11 -14 -9 -38 12 -35 29 -111 34
-144 9 -29 -21 -92 -36 -126 -29 l-29 7 0 259 0 259 48 0 c33 0 63 8 93 25 53
30 116 28 159 -3z m-340 -307 l0 -285 164 0 c138 0 167 -3 181 -16 15 -15 17
-15 34 0 15 13 45 16 184 16 l167 0 0 285 c0 240 2 285 14 285 8 0 22 -7 30
-16 14 -13 16 -56 16 -315 l0 -299 -183 0 c-171 0 -185 -1 -202 -20 -10 -11
-29 -20 -42 -20 -12 0 -32 9 -43 20 -19 19 -33 20 -200 20 l-180 0 0 303 c0
315 2 327 42 327 17 0 18 -17 18 -285z m1655 -599 c49 -22 112 -77 73 -63 -64
23 -102 28 -151 17 -83 -17 -92 -30 -16 -23 116 10 209 -32 238 -110 15 -38
13 -121 -2 -182 -11 -43 -17 -50 -40 -53 -23 -3 -28 1 -33 28 -5 24 -11 29
-25 25 -26 -9 -59 12 -59 36 0 18 -4 20 -29 14 -22 -5 -35 -1 -49 13 -20 20
-20 20 -45 -5 -19 -20 -40 -27 -101 -33 -56 -7 -85 -15 -109 -33 -37 -29 -66
-23 -92 17 -19 28 -13 46 15 46 31 0 67 42 85 98 9 29 26 58 36 65 23 14 25
59 4 77 -23 19 -19 25 33 48 113 50 188 55 267 18z m-2385 -35 c6 -12 10 -98
10 -210 0 -121 4 -191 10 -191 6 0 10 62 10 167 0 141 3 169 17 185 21 23 38
23 63 -2 19 -19 20 -33 20 -207 0 -236 -4 -259 -39 -266 -33 -7 -73 -38 -103
-80 l-23 -32 44 37 c26 22 62 41 92 48 l49 12 0 122 c0 112 2 125 21 142 19
17 23 17 47 3 l27 -15 3 -143 c3 -174 -6 -211 -83 -338 -57 -96 -80 -167 -70
-215 l7 -28 -141 0 -141 0 -1 28 c-2 48 3 77 13 81 5 2 -4 11 -20 21 -18 11
-41 42 -58 77 l-29 58 0 270 0 270 24 3 c13 2 28 -2 32 -10 5 -7 9 -59 9 -116
0 -66 4 -101 10 -97 6 4 10 72 10 170 0 135 3 166 16 179 19 20 24 20 52 0 21
-15 22 -21 22 -175 0 -99 4 -159 10 -159 6 0 10 74 10 203 0 145 3 206 12 215
18 18 56 14 68 -7z m2338 -360 c20 -11 55 -37 76 -60 l39 -40 -31 -36 c-35
-39 -41 -75 -17 -95 21 -17 61 10 78 53 14 32 14 32 26 9 7 -12 15 -45 18 -72
5 -46 4 -51 -30 -85 -19 -19 -43 -35 -53 -35 -14 0 -15 -3 -6 -12 7 -7 12 -22
12 -35 0 -18 -7 -25 -29 -29 l-28 -6 18 -38 c29 -59 23 -68 -18 -29 -21 20
-62 52 -90 73 -59 42 -113 101 -137 149 -22 46 -19 10 3 -40 20 -43 89 -117
175 -187 74 -60 94 -130 60 -202 -33 -70 -144 -105 -214 -69 -90 47 -105 198
-25 251 60 39 135 10 135 -52 0 -22 -2 -23 -20 -12 -16 10 -23 10 -37 -4 -14
-14 -15 -22 -5 -43 24 -51 102 -21 102 39 0 39 -24 67 -130 151 -137 109 -182
172 -182 255 0 81 42 135 147 188 70 36 112 39 163 13z m-1368 -981 c58 -14
114 -8 189 20 114 44 262 12 269 -57 3 -29 1 -32 -29 -35 -31 -3 -45 -21 -208
-255 -152 -217 -178 -250 -188 -235 -10 11 -13 72 -13 219 l0 203 -56 0 c-73
0 -94 12 -94 54 l0 34 38 -14 c50 -18 137 -17 201 2 29 8 51 17 49 19 -2 2
-26 -2 -53 -10 -71 -22 -143 -19 -195 8 -44 21 -45 23 -48 75 l-3 53 45 -34
c24 -19 67 -40 96 -47z m478 -92 c7 -7 12 -24 12 -40 0 -33 -39 -63 -70 -53
-11 3 -20 2 -20 -3 0 -6 5 -12 10 -14 6 -2 -40 -114 -102 -250 l-113 -248 -37
0 c-49 0 -49 14 -3 97 20 34 34 63 31 63 -3 0 -21 -29 -41 -65 -20 -36 -39
-65 -41 -65 -2 0 -15 17 -29 39 l-26 38 172 249 c95 137 177 252 183 256 17
12 61 9 74 -4z m-526 -173 c-6 -150 30 -272 111 -377 l36 -47 -33 6 c-20 3
-36 1 -40 -6 -4 -6 -20 -11 -36 -11 -71 0 -84 90 -16 108 l27 7 -19 26 c-66
83 -112 225 -112 341 l0 74 43 -10 42 -9 -3 -102z m-292 -540 c0 -10 -11 -15
-35 -15 -28 0 -35 -4 -35 -20 0 -16 7 -20 30 -20 20 0 30 -5 30 -15 0 -10 -10
-15 -30 -15 -20 0 -30 -5 -30 -15 0 -10 11 -15 35 -15 29 0 35 -4 35 -21 0
-18 -5 -20 -52 -17 l-53 3 -3 83 -3 82 56 0 c42 0 55 -3 55 -15z m155 -5 c0
-11 -9 -14 -32 -12 -43 4 -42 -13 1 -39 43 -25 51 -45 31 -75 -17 -26 -53 -31
-86 -13 -27 14 -12 32 22 25 42 -8 45 10 4 36 -41 27 -51 49 -35 78 9 17 19
21 53 18 29 -2 42 -8 42 -18z m165 5 c0 -8 -9 -15 -20 -15 -17 0 -19 -8 -22
-67 -2 -55 -6 -68 -20 -71 -16 -3 -18 5 -18 67 0 64 -2 71 -20 71 -11 0 -20 7
-20 15 0 12 13 15 60 15 47 0 60 -3 60 -15z m112 -2 c39 -35 9 -93 -49 -93
l-33 0 0 55 0 55 32 0 c17 0 40 -7 50 -17z m118 -68 c0 -69 -3 -85 -15 -85
-12 0 -15 13 -15 61 0 34 -4 58 -9 54 -5 -3 -13 0 -17 6 -7 12 29 49 47 49 5
0 9 -38 9 -85z m150 70 c7 -8 10 -27 7 -42 -3 -15 0 -37 6 -50 22 -50 -59 -86
-97 -44 -19 21 -14 61 7 61 8 0 8 3 -1 12 -7 7 -12 21 -12 33 0 12 5 26 12 33
17 17 63 15 78 -3z m160 -34 c0 -34 4 -51 15 -55 8 -3 15 -10 15 -16 0 -5 -7
-10 -15 -10 -8 0 -15 -9 -15 -20 0 -11 -7 -20 -15 -20 -8 0 -15 9 -15 20 0 17
-7 20 -40 20 -22 0 -40 5 -40 11 0 14 89 119 101 119 5 0 9 -22 9 -49z m150
34 c0 -9 -9 -15 -25 -15 -16 0 -25 -6 -25 -15 0 -8 9 -15 19 -15 45 0 66 -57
34 -92 -20 -22 -66 -24 -83 -3 -14 17 -1 25 40 22 19 -2 25 3 25 18 0 15 -8
21 -32 23 -32 3 -33 5 -33 48 l0 44 40 0 c29 0 40 -4 40 -15z m-602 -132 c5
-18 -28 -29 -38 -12 -5 7 -6 17 -3 22 7 12 35 5 41 -10z"/>
<path d="M1894 2469 c-63 -24 -122 -73 -152 -128 l-23 -41 28 0 c21 1 35 10
55 40 56 81 172 118 276 89 35 -9 62 -28 105 -71 32 -32 67 -58 78 -58 25 0
24 9 -9 58 -33 50 -94 97 -153 117 -40 14 -44 14 -64 -5 -27 -25 -37 -25 -60
0 -22 24 -17 24 -81 -1z"/>
<path d="M1970 2309 c9 -29 8 -31 -15 -25 -24 6 -25 4 -25 -35 0 -39 1 -41 25
-35 29 7 31 -1 10 -30 -34 -50 -125 -57 -125 -9 0 13 5 27 10 30 6 3 10 10 10
15 0 13 -32 22 -42 12 -6 -6 -19 0 -33 14 -23 23 -65 33 -65 16 0 -4 6 -16 14
-27 21 -31 44 -116 52 -194 l6 -69 37 16 c48 21 278 23 334 4 21 -8 40 -12 42
-10 3 2 9 37 15 77 9 63 29 135 55 194 11 25 -27 23 -51 -4 -12 -14 -25 -18
-41 -14 -28 7 -40 -14 -24 -43 7 -14 7 -24 -3 -37 -25 -34 -98 -4 -131 54 -6
10 -1 12 24 6 31 -7 31 -6 31 35 0 40 -1 42 -26 36 -24 -6 -25 -5 -19 24 6 30
6 30 -34 30 -40 0 -40 0 -31 -31z"/>
<path d="M1885 1963 c-37 -8 -75 -25 -75 -34 0 -12 40 -27 91 -35 35 -6 44 -3
70 22 l29 28 30 -29 c30 -29 31 -29 87 -17 90 19 97 44 17 63 -39 9 -212 10
-249 2z"/>
<path d="M1825 3580 c-22 -11 -48 -19 -57 -20 -10 0 -18 -7 -18 -15 0 -20 26
-19 79 5 24 11 54 20 67 20 15 0 24 6 24 15 0 21 -46 19 -95 -5z"/>
<path d="M2080 3585 c0 -10 10 -15 28 -15 15 -1 45 -9 67 -20 46 -22 75 -25
75 -7 0 14 -106 57 -144 57 -16 0 -26 -5 -26 -15z"/>
<path d="M1838 3446 c-15 -8 -40 -17 -57 -21 -33 -7 -43 -35 -13 -35 9 0 37 9
61 20 24 11 54 20 67 20 15 0 24 6 24 15 0 19 -46 20 -82 1z"/>
<path d="M2080 3445 c0 -10 10 -15 28 -15 15 0 47 -9 71 -20 50 -23 71 -25 71
-7 0 14 -106 57 -144 57 -16 0 -26 -5 -26 -15z"/>
<path d="M1820 3299 c-19 -10 -43 -18 -52 -19 -25 0 -22 -30 2 -30 12 0 38 9
60 20 22 11 51 20 65 20 16 0 25 6 25 15 0 21 -56 18 -100 -6z"/>
<path d="M2080 3305 c0 -10 10 -15 28 -15 15 0 47 -9 71 -20 50 -23 71 -25 71
-7 0 14 -106 57 -144 57 -16 0 -26 -5 -26 -15z"/>
<path d="M3000 2560 c0 -5 5 -10 10 -10 6 0 10 5 10 10 0 6 -4 10 -10 10 -5 0
-10 -4 -10 -10z"/>
<path d="M884 2255 c-17 -8 -37 -21 -45 -31 -13 -16 -12 -16 14 0 15 10 44 24
65 32 20 7 28 13 17 13 -11 0 -34 -7 -51 -14z"/>
<path d="M2138 1393 c7 -3 16 -2 19 1 4 3 -2 6 -13 5 -11 0 -14 -3 -6 -6z"/>
<path d="M2060 1370 c-8 -5 -10 -10 -5 -10 6 0 17 5 25 10 8 5 11 10 5 10 -5
0 -17 -5 -25 -10z"/>
<path d="M2160 1308 c1 -58 2 -61 15 -44 20 27 20 106 0 106 -12 0 -15 -13
-15 -62z"/>
<path d="M2123 1353 c-9 -3 -13 -31 -13 -91 l0 -87 20 25 c15 19 20 41 20 93
0 66 -2 71 -27 60z"/>
<path d="M2078 1333 c-16 -4 -18 -18 -18 -116 l0 -112 20 25 c16 21 20 41 20
118 0 50 -1 91 -2 91 -2 -1 -11 -3 -20 -6z"/>
<path d="M2017 1303 c-4 -3 -7 -65 -7 -137 l1 -131 19 24 c17 20 20 39 20 137
0 88 -3 114 -13 114 -8 0 -17 -3 -20 -7z"/>
<path d="M1973 1283 c-10 -3 -13 -45 -13 -161 l1 -157 19 24 c18 21 20 39 20
162 0 76 -3 139 -7 138 -5 0 -14 -3 -20 -6z"/>
<path d="M1917 1263 c-10 -10 -8 -326 2 -342 21 -32 31 30 31 188 0 128 -3
161 -13 161 -8 0 -17 -3 -20 -7z"/>
<path d="M1920 550 c0 -28 2 -30 21 -20 24 13 22 43 -4 48 -13 3 -17 -3 -17
-28z"/>
<path d="M2184 569 c-8 -14 18 -31 30 -19 9 9 0 30 -14 30 -5 0 -12 -5 -16
-11z"/>
<path d="M2185 501 c-8 -15 3 -31 21 -31 9 0 14 7 12 17 -4 20 -24 28 -33 14z"/>
<path d="M2350 525 c-10 -12 -10 -15 4 -15 9 0 16 7 16 15 0 8 -2 15 -4 15 -2
0 -9 -7 -16 -15z"/>
</g>
</svg>
