<?xml version="1.0" standalone="no"?>
<!DOCTYPE svg PUBLIC "-//W3C//DTD SVG 20010904//EN"
 "http://www.w3.org/TR/2001/REC-SVG-20010904/DTD/svg10.dtd">
<svg version="1.0" xmlns="http://www.w3.org/2000/svg"
 width="110.000000pt" height="120.000000pt" viewBox="0 0 99.000000 106.000000"
 preserveAspectRatio="xMidYMid meet">
<metadata>
</metadata>
<g transform="translate(0.000000,106.000000) scale(0.100000,-0.100000)"
fill="#000000" stroke="none">
<path d="M684 820 c-12 -5 -25 -13 -28 -18 -3 -5 -26 -6 -51 -2 -32 5 -51 3
-65 -7 -11 -8 -35 -13 -52 -11 -32 3 -32 2 -55 -74 l-24 -78 -52 0 c-50 0 -53
-2 -73 -38 -20 -34 -21 -47 -16 -184 l5 -148 203 0 204 0 0 109 c0 63 4 112
10 116 18 11 11 57 -15 102 -24 39 -29 43 -66 43 -33 0 -40 3 -37 18 2 12 17
19 53 24 98 12 135 23 135 39 0 10 -48 119 -52 118 -2 0 -13 -4 -24 -9z m-119
-75 c32 -13 28 -17 -28 -30 -22 -4 -28 -11 -25 -28 2 -14 11 -23 26 -25 25 -4
26 -9 12 -46 -9 -24 -14 -26 -76 -26 -49 0 -65 3 -61 13 2 6 15 47 27 90 l23
79 36 -7 c19 -4 49 -13 66 -20z m104 -366 c1 -74 -2 -99 -11 -100 -58 -5 -310
-8 -335 -4 l-33 6 0 99 0 100 178 2 c97 2 182 2 188 0 8 -2 12 -38 13 -103z"/>
</g>
</svg>
