<svg version="1.1" id="Layer_1" xmlns="http://www.w3.org/2000/svg" xmlns:xlink="http://www.w3.org/1999/xlink" x="0px" y="0px"
	 width="100%" viewBox="0 0 531 523" enable-background="new 0 0 531 523" xml:space="preserve">
<path fill="#552D81" opacity="1.000000" stroke="none" 
	d="
M528.000000,524.000000 
	C377.975922,524.000000 227.951843,524.000000 77.472198,523.594116 
	C78.250435,519.472717 79.484238,515.757324 80.718033,512.041870 
	C87.925652,512.667847 90.158012,507.245575 92.689735,502.190460 
	C93.465462,500.641602 94.756332,499.132996 94.898590,497.525177 
	C95.334686,492.596252 97.361877,489.787506 102.677376,489.872833 
	C104.638145,489.904327 106.615891,489.026855 108.573502,489.074371 
	C112.127609,489.160706 113.896652,487.653046 115.125519,484.299225 
	C115.768234,482.545044 118.052109,481.291687 119.781349,480.077972 
	C120.663261,479.458984 122.488861,479.788757 122.977783,479.070282 
	C126.021439,474.597961 130.569321,475.012299 135.366394,475.023041 
	C188.585190,507.007477 245.797913,519.006287 306.512329,508.378510 
	C389.999725,493.764496 451.244293,447.595276 489.481506,371.927673 
	C497.296051,356.463470 501.864288,339.358887 508.153259,322.689301 
	C508.519928,321.339172 508.662231,320.310242 508.733795,319.055023 
	C508.702789,318.498810 508.847504,318.224152 509.407227,317.866089 
	C511.428162,314.811920 513.139099,311.896484 515.304565,308.206573 
	C516.660278,310.774414 517.367432,312.113739 518.240234,313.766937 
	C521.651855,310.649261 524.741394,307.825958 527.890381,305.465118 
	C527.966492,378.618408 527.983215,451.309204 528.000000,524.000000 
z"/>
<path fill="#523083" opacity="1.000000" stroke="none" 
	d="
M135.022507,474.967285 
	C130.569321,475.012299 126.021439,474.597961 122.977783,479.070282 
	C122.488861,479.788757 120.663261,479.458984 119.781349,480.077972 
	C118.052109,481.291687 115.768234,482.545044 115.125519,484.299225 
	C113.896652,487.653046 112.127609,489.160706 108.573502,489.074371 
	C106.615891,489.026855 104.638145,489.904327 102.677376,489.872833 
	C97.361877,489.787506 95.334686,492.596252 94.898590,497.525177 
	C94.756332,499.132996 93.465462,500.641602 92.689735,502.190460 
	C90.158012,507.245575 87.925652,512.667847 80.718033,512.041870 
	C79.484238,515.757324 78.250435,519.472717 77.008316,523.594116 
	C52.979103,524.000000 28.958210,524.000000 4.469523,523.531372 
	C4.056286,498.040344 4.110841,473.018036 4.488382,447.913239 
	C8.839751,445.400146 12.612620,441.823029 16.966444,440.852753 
	C21.566854,439.827484 26.720840,441.286224 31.633007,441.659912 
	C35.282867,441.937561 38.932655,442.444641 40.944382,438.123383 
	C41.798248,436.289276 42.865051,434.238037 44.429325,433.108215 
	C49.857178,429.188019 55.500252,425.557220 61.154129,421.962067 
	C64.026741,420.135468 67.097504,418.620544 70.373512,417.120300 
	C75.581772,422.923065 80.355972,428.699005 85.435036,434.193115 
	C100.090591,450.046356 117.093498,463.077667 135.022507,474.967285 
z"/>
<path fill="#009CA9" opacity="1.000000" stroke="none" 
	d="
M101.000000,1.000001 
	C122.020897,1.000000 143.041794,1.000000 164.506531,1.377123 
	C161.242508,7.868740 158.005600,14.344399 153.679962,19.985142 
	C150.124298,24.621828 145.351578,28.350336 140.979416,32.328766 
	C136.506363,36.399014 132.420013,41.440426 127.160500,43.966682 
	C120.031509,47.390884 114.882965,52.996895 109.794945,58.221508 
	C106.158058,61.956043 103.395683,65.979996 98.071747,67.258377 
	C96.509239,67.633560 94.933517,68.637894 93.441025,68.502594 
	C86.828072,67.903114 82.613731,72.926407 77.254768,75.204254 
	C76.458984,75.542503 76.524277,77.614868 75.907768,78.727982 
	C74.663017,80.975433 73.626633,84.550186 71.798241,85.063736 
	C60.798401,88.153336 52.261345,98.445267 39.420216,96.177887 
	C38.189308,95.960541 36.746853,97.437805 35.324497,97.692932 
	C33.137547,98.085213 30.572952,98.865845 28.720991,98.116501 
	C24.781433,96.522453 21.746321,97.350281 18.498060,99.622658 
	C13.822977,102.893196 8.952399,105.884300 4.101011,108.530235 
	C4.080809,91.709312 4.124852,75.352806 4.626607,58.997177 
	C10.732074,58.879089 16.971115,60.256725 21.896971,58.310589 
	C30.526337,54.901234 41.396118,57.563259 48.084866,48.876114 
	C48.465157,48.382198 50.073143,49.015854 50.905830,48.654648 
	C53.681175,47.450775 57.485348,46.721149 58.824764,44.538944 
	C60.957848,41.063675 63.772949,40.735001 66.996925,39.928574 
	C69.367104,39.335712 72.365257,38.398762 73.587234,36.599125 
	C77.435516,30.931688 83.054863,29.556845 89.105370,29.057945 
	C95.966370,28.492212 96.823334,27.302097 93.547577,21.073511 
	C94.925690,20.269831 96.297256,19.405672 97.725578,18.648586 
	C102.790482,15.963926 104.294975,12.231217 102.562035,6.685171 
	C101.976257,4.810454 101.517044,2.896192 101.000000,1.000001 
z"/>
<path fill="#00A4AA" opacity="1.000000" stroke="none" 
	d="
M100.531342,1.000001 
	C101.517044,2.896192 101.976257,4.810454 102.562035,6.685171 
	C104.294975,12.231217 102.790482,15.963926 97.725578,18.648586 
	C96.297256,19.405672 94.925690,20.269831 93.547577,21.073511 
	C96.823334,27.302097 95.966370,28.492212 89.105370,29.057945 
	C83.054863,29.556845 77.435516,30.931688 73.587234,36.599125 
	C72.365257,38.398762 69.367104,39.335712 66.996925,39.928574 
	C63.772949,40.735001 60.957848,41.063675 58.824764,44.538944 
	C57.485348,46.721149 53.681175,47.450775 50.905830,48.654648 
	C50.073143,49.015854 48.465157,48.382198 48.084866,48.876114 
	C41.396118,57.563259 30.526337,54.901234 21.896971,58.310589 
	C16.971115,60.256725 10.732074,58.879089 4.561464,58.532661 
	C4.025740,39.044849 4.012870,20.022425 4.000000,1.000000 
	C36.020893,1.000000 68.041786,1.000000 100.531342,1.000001 
z"/>
<path fill="#0095A7" opacity="1.000000" stroke="none" 
	d="
M4.165257,108.994659 
	C8.952399,105.884300 13.822977,102.893196 18.498060,99.622658 
	C21.746321,97.350281 24.781433,96.522453 28.720991,98.116501 
	C30.572952,98.865845 33.137547,98.085213 35.324497,97.692932 
	C36.746853,97.437805 38.189308,95.960541 39.420216,96.177887 
	C52.261345,98.445267 60.798401,88.153336 71.798241,85.063736 
	C73.626633,84.550186 74.663017,80.975433 75.907768,78.727982 
	C76.524277,77.614868 76.458984,75.542503 77.254768,75.204254 
	C82.613731,72.926407 86.828072,67.903114 93.441025,68.502594 
	C94.933517,68.637894 96.509239,67.633560 98.071747,67.258377 
	C103.395683,65.979996 106.158058,61.956043 109.794945,58.221508 
	C114.882965,52.996895 120.031509,47.390884 127.160500,43.966682 
	C132.420013,41.440426 136.506363,36.399014 140.979416,32.328766 
	C145.351578,28.350336 150.124298,24.621828 153.679962,19.985142 
	C158.005600,14.344399 161.242508,7.868740 164.975189,1.377123 
	C174.687561,1.000000 184.375122,1.000000 194.458374,1.368126 
	C192.744553,6.386644 191.085388,11.322890 188.375473,15.592188 
	C186.396927,18.709244 183.445190,22.332699 180.204803,23.293301 
	C173.216843,25.364841 169.631683,31.418713 163.708344,35.123367 
	C157.971924,38.259014 152.555405,41.223801 147.101303,44.117748 
	C127.526962,54.503891 109.627235,67.264305 93.911140,82.861053 
	C84.857040,91.846382 76.566711,101.601341 67.754097,111.224304 
	C67.390381,111.958984 67.205154,112.479225 67.015930,113.005234 
	C67.011917,113.011002 67.002701,113.021736 66.818222,113.189316 
	C66.404877,113.601700 66.208519,113.870285 66.057846,114.125603 
	C66.071030,114.088570 66.143730,114.118477 65.780197,114.121979 
	C64.351456,114.825821 62.947319,115.291611 62.274632,116.263603 
	C56.869644,124.073647 49.278473,126.416443 40.312531,125.105995 
	C33.758400,124.148056 27.709097,124.749474 21.727844,128.070862 
	C16.132965,131.177704 10.039948,133.387482 4.102493,135.527756 
	C4.080968,126.373848 4.123112,117.684258 4.165257,108.994659 
z"/>
<path fill="#000000" opacity="1.000000" stroke="none" 
	d="
M528.500000,524.000000 
	C527.983215,451.309204 527.966492,378.618408 527.948975,304.999451 
	C527.908203,277.380585 527.868286,250.689896 527.886963,223.533783 
	C527.907654,201.046402 527.869629,179.024460 527.890259,156.536957 
	C527.909546,143.713531 527.870178,131.355637 527.888916,118.532463 
	C527.905701,106.711327 527.864502,95.355484 527.883179,83.534439 
	C527.903809,68.045853 527.864380,53.022472 527.884033,37.533714 
	C527.904663,26.044651 527.866272,15.020965 527.886719,3.625985 
	C527.963745,2.503128 527.981934,1.751564 528.000000,1.000001 
	C529.332092,1.000000 530.664124,1.000000 531.997192,1.000000 
	C531.998108,175.333328 531.998108,349.666656 531.997620,524.000000 
	C530.998108,524.000000 529.999023,524.000000 528.500000,524.000000 
z"/>
<path fill="#2A508E" opacity="1.000000" stroke="none" 
	d="
M527.531372,1.000001 
	C527.981934,1.751564 527.963745,2.503128 527.444702,3.626561 
	C523.967896,4.175369 520.809937,3.771346 518.049683,4.636452 
	C509.212708,7.406087 500.324615,6.416895 491.454681,5.543303 
	C484.437500,4.852188 479.623199,9.209366 475.131836,13.039216 
	C472.043213,15.672965 470.745026,20.512978 468.916870,24.491077 
	C466.690338,29.336103 463.097412,31.293346 457.752441,31.197329 
	C454.750702,31.143402 451.289001,31.579378 448.805450,33.074898 
	C443.785980,36.097454 437.648315,39.074192 435.021515,43.774261 
	C432.112305,48.979687 428.120300,50.751987 423.927185,53.845402 
	C419.099701,57.406826 416.233429,56.937988 411.610718,55.052174 
	C408.738342,53.880405 405.151184,54.460850 401.558960,54.132755 
	C397.781708,51.780937 394.330353,49.551201 391.097290,47.034000 
	C393.023773,45.629349 395.031281,43.272240 396.390656,43.600342 
	C404.033569,45.445068 408.336090,41.042927 413.207092,36.381664 
	C419.459137,30.398870 426.468079,25.204123 433.203430,19.734528 
	C433.788208,19.259651 434.772125,19.055632 435.557220,19.084946 
	C439.675018,19.238703 441.946350,17.085901 444.437225,13.900976 
	C446.632721,11.093719 451.009369,7.515381 453.705841,8.030556 
	C462.614105,9.732510 465.471222,9.084660 469.000000,1.000000 
	C488.354218,1.000000 507.708466,1.000000 527.531372,1.000001 
z"/>
<path fill="#245590" opacity="1.000000" stroke="none" 
	d="
M468.531342,1.000000 
	C465.471222,9.084660 462.614105,9.732510 453.705841,8.030556 
	C451.009369,7.515381 446.632721,11.093719 444.437225,13.900976 
	C441.946350,17.085901 439.675018,19.238703 435.557220,19.084946 
	C434.772125,19.055632 433.788208,19.259651 433.203430,19.734528 
	C426.468079,25.204123 419.459137,30.398870 413.207092,36.381664 
	C408.336090,41.042927 404.033569,45.445068 396.390656,43.600342 
	C395.031281,43.272240 393.023773,45.629349 390.742615,46.960838 
	C382.424835,43.136890 374.680023,39.098637 367.351501,35.044758 
	C370.882141,35.137268 372.947998,34.041561 375.346985,31.576273 
	C379.058594,27.762096 382.433472,23.322052 388.776917,22.320866 
	C397.510254,20.942488 406.974060,20.041895 411.990265,10.674068 
	C412.519348,9.686059 414.458252,9.540864 415.264587,8.596208 
	C417.320801,6.187414 419.106232,3.547461 421.000000,0.999999 
	C436.687561,1.000000 452.375122,1.000000 468.531342,1.000000 
z"/>
<path fill="#000000" opacity="1.000000" stroke="none" 
	d="
M4.101011,108.530235 
	C4.123112,117.684258 4.080968,126.373848 4.034072,135.992584 
	C4.075642,144.611786 4.121962,152.301849 4.099977,160.456696 
	C4.080580,168.948349 4.129487,176.975220 4.110228,185.464081 
	C4.082897,190.949524 4.123732,195.972977 4.099754,201.457428 
	C4.078826,206.278915 4.122712,210.639420 4.102545,215.463959 
	C4.082666,221.617096 4.126839,227.306183 4.105279,233.460083 
	C4.084726,242.282394 4.129907,250.639847 4.109913,259.462097 
	C4.087239,269.281281 4.129739,278.635651 4.107401,288.455322 
	C4.083378,298.944061 4.124192,308.967468 4.102312,319.456421 
	C4.084685,334.612549 4.129753,349.303192 4.111768,364.459076 
	C4.087102,378.615204 4.125490,392.306061 4.103992,406.462402 
	C4.084537,420.617126 4.124966,434.306396 4.165396,447.995697 
	C4.110841,473.018036 4.056286,498.040344 4.000866,523.531372 
	C2.345619,523.951904 0.116164,524.618286 0.982090,521.495056 
	C1.110810,521.030701 1.000000,520.500000 1.000000,520.000000 
	C1.000000,348.333344 0.994699,176.666672 1.102804,5.000065 
	C1.103593,3.747547 -0.962960,0.685187 3.500000,1.000000 
	C4.012870,20.022425 4.025740,39.044849 4.103752,58.531792 
	C4.124852,75.352806 4.080809,91.709312 4.101011,108.530235 
z"/>
<path fill="#1C5C93" opacity="1.000000" stroke="none" 
	d="
M420.531342,0.999999 
	C419.106232,3.547461 417.320801,6.187414 415.264587,8.596208 
	C414.458252,9.540864 412.519348,9.686059 411.990265,10.674068 
	C406.974060,20.041895 397.510254,20.942488 388.776917,22.320866 
	C382.433472,23.322052 379.058594,27.762096 375.346985,31.576273 
	C372.947998,34.041561 370.882141,35.137268 367.372559,35.025505 
	C366.977295,35.021873 366.984070,35.078449 366.758362,34.871605 
	C365.955505,34.490677 365.378387,34.316589 364.845032,34.134499 
	C364.888794,34.126495 364.899078,34.214916 364.837372,34.083527 
	C364.562866,33.710434 364.309479,33.667835 363.724976,33.840210 
	C362.958771,33.553665 362.483093,33.251244 361.746704,32.764786 
	C361.091583,32.418327 360.697235,32.255917 360.238312,32.159683 
	C360.173737,32.225864 360.036285,32.102173 359.775543,31.888945 
	C358.875366,31.488937 358.235931,31.302156 357.253174,31.125175 
	C355.450531,30.505278 353.991150,29.875584 352.954529,29.190546 
	C354.893646,28.403646 356.668121,27.958904 357.869690,26.877542 
	C360.006470,24.954533 361.809875,22.658022 363.728607,20.496323 
	C369.491974,14.003082 375.243713,7.499520 381.000000,0.999994 
	C394.020905,1.000000 407.041779,1.000000 420.531342,0.999999 
z"/>
<path fill="#048FA4" opacity="1.000000" stroke="none" 
	d="
M164.011017,34.920013 
	C169.631683,31.418713 173.216843,25.364841 180.204803,23.293301 
	C183.445190,22.332699 186.396927,18.709244 188.375473,15.592188 
	C191.085388,11.322890 192.744553,6.386644 194.927032,1.368126 
	C204.020889,1.000000 213.041794,1.000000 222.456482,1.362773 
	C220.359558,6.216924 217.820740,10.682728 215.409317,15.216290 
	C214.742767,16.469435 214.455444,17.924292 213.692261,19.496227 
	C203.375031,22.559765 193.321243,25.287104 183.357986,28.312599 
	C176.841125,30.291548 170.455444,32.702538 164.011017,34.920013 
z"/>
<path fill="#0385A0" opacity="1.000000" stroke="none" 
	d="
M213.994125,19.286598 
	C214.455444,17.924292 214.742767,16.469435 215.409317,15.216290 
	C217.820740,10.682728 220.359558,6.216924 222.925140,1.362773 
	C238.354233,1.000000 253.708450,1.000000 269.460144,1.360054 
	C268.321320,9.298185 263.461182,13.114386 255.590118,14.103857 
	C241.459000,15.917900 227.726562,17.602249 213.994125,19.286598 
z"/>
<path fill="#0C6898" opacity="1.000000" stroke="none" 
	d="
M335.000000,1.000006 
	C343.687561,1.000000 352.375122,1.000000 361.507812,1.359977 
	C358.768341,5.846932 355.659821,10.035662 352.375366,14.081586 
	C349.696075,17.382057 347.106262,20.656006 341.978943,20.527948 
	C340.344086,20.487122 338.650513,22.795958 336.587402,24.055265 
	C322.094360,21.151205 307.997742,18.221542 294.215881,15.030085 
	C298.936066,14.991534 303.368835,14.985201 307.739075,15.504771 
	C311.832520,15.991438 315.859711,17.035048 320.302521,17.909630 
	C319.701263,16.239677 319.382294,15.353768 318.836060,13.836621 
	C321.180511,14.248424 322.858765,14.954914 324.377411,14.702274 
	C326.143768,14.408434 328.493835,13.729307 329.318573,12.417618 
	C331.570099,8.836661 333.152527,4.835015 335.000000,1.000006 
z"/>
<path fill="#126296" opacity="1.000000" stroke="none" 
	d="
M336.983826,24.029661 
	C338.650513,22.795958 340.344086,20.487122 341.978943,20.527948 
	C347.106262,20.656006 349.696075,17.382057 352.375366,14.081586 
	C355.659821,10.035662 358.768341,5.846932 361.976471,1.359977 
	C368.021149,1.000000 374.042297,1.000000 380.531738,0.999994 
	C375.243713,7.499520 369.491974,14.003082 363.728607,20.496323 
	C361.809875,22.658022 360.006470,24.954533 357.869690,26.877542 
	C356.668121,27.958904 354.893646,28.403646 352.794952,29.215168 
	C352.212616,29.295134 352.026428,29.031227 351.935913,28.690968 
	C350.676453,25.815042 349.012421,25.500410 346.553467,27.231136 
	C345.815399,27.027180 345.412994,26.837992 344.839294,26.342793 
	C342.507446,25.467251 340.346832,24.897722 337.970093,24.417000 
	C337.415009,24.480072 337.158325,24.321356 336.983826,24.029661 
z"/>
<path fill="#016E9A" opacity="1.000000" stroke="none" 
	d="
M334.531372,1.000006 
	C333.152527,4.835015 331.570099,8.836661 329.318573,12.417618 
	C328.493835,13.729307 326.143768,14.408434 324.377411,14.702274 
	C322.858765,14.954914 321.180511,14.248424 318.836060,13.836621 
	C319.382294,15.353768 319.701263,16.239677 320.302521,17.909630 
	C315.859711,17.035048 311.832520,15.991438 307.739075,15.504771 
	C303.368835,14.985201 298.936066,14.991534 293.980347,15.091635 
	C293.430115,15.414980 293.021545,15.149710 292.879150,14.933777 
	C292.492767,14.475102 292.248840,14.232360 292.119568,13.676714 
	C296.156189,9.242540 300.078094,5.121270 304.000000,1.000000 
	C314.020905,1.000000 324.041779,1.000000 334.531372,1.000006 
z"/>
<path fill="#04789C" opacity="1.000000" stroke="none" 
	d="
M303.531342,1.000000 
	C300.078094,5.121270 296.156189,9.242540 291.652100,13.679070 
	C287.519043,14.013524 283.968170,14.032721 280.010681,14.210413 
	C271.732269,14.237328 263.860535,14.105745 255.988815,13.974163 
	C263.461182,13.114386 268.321320,9.298185 269.928802,1.360054 
	C281.020905,1.000000 292.041779,1.000000 303.531342,1.000000 
z"/>
<path fill="#FEFEFE" opacity="1.000000" stroke="none" 
	d="
M255.590118,14.103857 
	C263.860535,14.105745 271.732269,14.237328 280.395599,14.451078 
	C285.131989,14.738735 289.076752,14.944222 293.021545,15.149710 
	C293.021545,15.149710 293.430115,15.414980 293.665619,15.353430 
	C307.997742,18.221542 322.094360,21.151205 336.587402,24.055265 
	C337.158325,24.321356 337.415009,24.480072 338.242188,24.677988 
	C340.823822,25.449713 342.917206,26.049257 345.010590,26.648804 
	C345.412994,26.837992 345.815399,27.027180 346.787598,27.484436 
	C348.913727,28.178745 350.470062,28.604984 352.026428,29.031227 
	C352.026428,29.031227 352.212616,29.295134 352.372192,29.270512 
	C353.991150,29.875584 355.450531,30.505278 357.481445,31.387402 
	C358.714081,31.793945 359.375183,31.948057 360.036285,32.102173 
	C360.036285,32.102173 360.173737,32.225864 360.439667,32.438835 
	C361.139557,32.750816 361.573486,32.849823 362.007446,32.948830 
	C362.483093,33.251244 362.958771,33.553665 363.909973,34.019073 
	C364.556702,34.193020 364.727905,34.203968 364.899078,34.214916 
	C364.899078,34.214916 364.888794,34.126495 365.030823,34.390198 
	C365.776581,34.795414 366.380341,34.936932 366.984070,35.078449 
	C366.984070,35.078449 366.977295,35.021873 366.956238,35.041130 
	C374.680023,39.098637 382.424835,43.136890 390.524323,47.248306 
	C394.330353,49.551201 397.781708,51.780937 401.720581,54.434471 
	C408.510742,59.241955 414.813385,63.625645 421.091949,68.278717 
	C421.368073,68.726898 421.668243,68.905685 421.975128,69.052383 
	C421.981842,69.020294 421.917999,69.035316 421.992432,69.284424 
	C422.371399,69.631226 422.675903,69.728905 423.157379,69.951859 
	C423.334320,70.077126 423.767853,70.071732 423.872986,70.337219 
	C424.311340,70.762428 424.644623,70.922142 424.979187,71.051880 
	C424.980469,71.021904 424.933014,71.058449 425.073456,71.354324 
	C427.066528,73.128899 428.919128,74.607605 430.874634,76.349899 
	C431.301636,76.787819 431.625824,76.962151 432.079834,77.438065 
	C434.221588,79.472672 436.233490,81.205704 438.319336,83.186172 
	C438.928131,83.842957 439.463013,84.252312 440.069946,84.843033 
	C440.141998,85.024414 440.518616,85.126907 440.650269,85.426651 
	C441.148346,85.947044 441.514771,86.167709 441.856201,86.316650 
	C441.831177,86.244942 441.691437,86.304420 441.821594,86.610504 
	C450.838043,97.250870 459.724335,107.585167 468.705231,118.217133 
	C468.954315,118.654396 469.108826,118.793983 469.322784,119.202660 
	C469.859863,120.006325 470.337494,120.540894 470.896912,121.414886 
	C477.680786,133.166901 484.382843,144.579468 491.102600,156.353775 
	C501.469879,178.467239 508.034271,201.387650 512.155579,225.457016 
	C514.456970,243.522324 516.022705,261.235291 514.157410,279.017578 
	C512.790649,292.046875 510.806305,305.011383 509.097229,318.004791 
	C508.847504,318.224152 508.702789,318.498810 508.476898,319.359650 
	C508.170166,320.930511 508.049561,321.970490 507.928955,323.010468 
	C501.864288,339.358887 497.296051,356.463470 489.481506,371.927673 
	C451.244293,447.595276 389.999725,493.764496 306.512329,508.378510 
	C245.797913,519.006287 188.585190,507.007477 135.366394,475.023041 
	C117.093498,463.077667 100.090591,450.046356 85.435036,434.193115 
	C80.355972,428.699005 75.581772,422.923065 70.281013,416.791016 
	C64.997040,409.513397 60.100368,402.720612 55.164181,395.631836 
	C54.756546,394.887604 54.388428,394.439392 54.011436,393.993774 
	C54.002560,393.996338 54.013939,393.980164 53.971870,393.674774 
	C53.650017,393.077545 53.370232,392.785706 53.050484,392.192017 
	C52.122059,390.550781 51.233593,389.211365 50.270988,387.516602 
	C44.427868,375.112915 38.658890,363.064545 32.882614,350.642273 
	C29.803427,340.006287 26.761480,329.735046 23.633137,319.490204 
	C23.042650,317.556458 22.108398,315.727692 21.294418,313.493530 
	C21.166077,312.424133 21.076086,311.711670 21.174793,310.744812 
	C21.042997,309.049530 20.722504,307.608673 20.512280,305.779419 
	C19.697647,298.582672 18.772743,291.774384 17.915470,284.515106 
	C17.976358,269.041962 17.969616,254.019791 18.104340,238.613861 
	C19.377510,230.159485 20.509211,222.088898 21.831894,213.671692 
	C24.449684,203.845184 26.876493,194.365280 29.309219,184.838837 
	C29.315138,184.792313 29.222443,184.777863 29.471733,184.556122 
	C29.777431,183.903748 29.833839,183.473129 30.027256,182.887604 
	C30.164267,182.732681 30.140972,182.319717 30.401634,182.097061 
	C31.041954,180.569717 31.421616,179.265045 31.929035,177.756531 
	C32.056793,177.552719 32.019131,177.073074 32.252831,176.817368 
	C32.703110,175.674454 32.919682,174.787247 33.177525,173.841309 
	C33.218796,173.782578 33.104897,173.695190 33.381271,173.495422 
	C33.745823,172.860886 33.833992,172.426102 34.148666,171.716125 
	C37.293587,164.779892 40.212006,158.118851 43.355064,151.294373 
	C43.654884,150.778519 43.730068,150.426117 43.975750,149.943176 
	C44.146248,149.812653 44.176910,149.384308 44.446106,149.154846 
	C51.858112,137.323090 59.000919,125.720779 66.143730,114.118477 
	C66.143730,114.118477 66.071030,114.088570 66.315971,114.035210 
	C66.708176,113.661812 66.855438,113.341774 67.002701,113.021736 
	C67.002701,113.021736 67.011917,113.011002 67.288727,112.871361 
	C67.687889,112.157768 67.810234,111.583824 67.932587,111.009872 
	C76.566711,101.601341 84.857040,91.846382 93.911140,82.861053 
	C109.627235,67.264305 127.526962,54.503891 147.101303,44.117748 
	C152.555405,41.223801 157.971924,38.259014 163.708344,35.123367 
	C170.455444,32.702538 176.841125,30.291548 183.357986,28.312599 
	C193.321243,25.287104 203.375031,22.559765 213.692261,19.496227 
	C227.726562,17.602249 241.459000,15.917900 255.590118,14.103857 
M463.049835,295.680450 
	C463.350952,296.407715 463.652039,297.134949 463.944397,298.205231 
	C463.944397,298.205231 463.978973,298.546600 463.854401,298.908905 
	C463.854401,298.908905 463.840881,299.291748 463.355347,299.832916 
	C464.990448,300.740784 467.073181,302.760529 468.165710,302.320709 
	C470.314819,301.455444 473.065674,299.432190 473.415283,297.498810 
	C473.762268,295.579742 471.948425,292.446503 470.149475,291.260315 
	C469.003143,290.504517 466.158997,292.323700 463.558075,293.022522 
	C463.381195,293.697327 463.204315,294.372131 463.049835,295.680450 
M405.840088,207.400040 
	C397.180084,200.745773 388.520081,194.091507 379.860107,187.437256 
	C379.571503,187.720245 379.282928,188.003220 378.994324,188.286209 
	C380.972809,192.247879 382.951263,196.209534 384.874939,201.135193 
	C384.823730,201.776825 384.772522,202.418457 383.960785,202.875290 
	C372.918915,197.762177 361.877014,192.649063 350.835144,187.535950 
	C350.533936,187.878922 350.232727,188.221893 349.931519,188.564865 
	C354.200409,197.604630 358.469269,206.644379 363.372253,217.026840 
	C357.848663,217.026840 353.402893,216.893372 348.967194,217.048203 
	C317.048248,218.162354 285.131317,219.334976 252.349838,220.222534 
	C249.609772,220.403229 246.869705,220.583923 244.129623,220.764618 
	C244.162521,221.168182 244.195419,221.571732 244.228302,221.975281 
	C247.165176,221.975281 250.102036,221.975281 253.902420,222.064514 
	C296.600067,224.177124 339.297699,226.289719 382.940552,228.449081 
	C380.400208,222.451294 378.252899,217.381424 375.601624,211.121658 
	C395.480682,216.976532 414.144562,222.473511 432.808441,227.970490 
	C433.055847,227.424835 433.303223,226.879166 433.550629,226.333496 
	C424.336700,221.942108 415.122772,217.550705 406.130646,212.548676 
	C407.565765,211.835495 409.000885,211.122330 411.222778,210.018158 
	C409.119049,209.143417 407.683929,208.546677 405.840088,207.400040 
M318.431274,231.294235 
	C316.410675,231.173447 314.390076,231.052643 312.369476,230.931854 
	C312.316833,231.343704 312.264191,231.755554 312.211517,232.167404 
	C314.498779,232.400635 316.786041,232.633865 319.714447,232.973267 
	C320.147064,232.977814 320.579681,232.982361 321.225586,233.207962 
	C321.225586,233.207962 321.678070,233.265518 321.678070,233.265518 
	C321.678070,233.265518 322.060760,233.054733 322.842102,233.229904 
	C357.441589,236.860931 392.039795,240.504395 426.645966,244.070587 
	C427.840820,244.193726 429.567871,243.957642 430.274719,243.183746 
	C433.424591,239.735153 436.293457,236.029861 439.263824,232.417328 
	C437.228546,232.313354 435.802521,232.761826 434.619171,233.566971 
	C429.845551,236.814880 424.668823,237.580612 418.974945,237.074982 
	C410.188141,236.294754 401.360626,235.959396 392.547363,235.492218 
	C368.105896,234.196671 343.662842,232.930511 318.431274,231.294235 
M64.562660,238.055313 
	C58.779488,238.380447 58.187752,239.002701 58.691483,244.568619 
	C59.486954,253.358185 60.300838,262.146332 61.163319,270.929535 
	C62.199654,281.483307 63.295074,292.031250 64.350151,302.436157 
	C73.238281,303.641724 73.533234,303.500641 76.666618,296.323212 
	C81.928558,284.270050 87.155205,272.201416 92.436783,260.156860 
	C93.087006,258.674042 93.982742,257.298859 94.764709,255.873810 
	C95.140083,256.020355 95.515457,256.166901 95.890831,256.313446 
	C97.199623,271.777222 98.508423,287.240997 99.805641,302.567993 
	C108.940216,303.377869 108.948448,303.381531 112.181801,296.139740 
	C119.511162,279.723938 126.834999,263.305695 134.152222,246.884491 
	C135.352615,244.190567 136.507843,241.476517 137.724731,238.677963 
	C128.419388,237.026321 127.795868,237.368530 124.537178,245.206573 
	C119.361801,257.654785 114.165634,270.094360 108.954971,282.527863 
	C108.373650,283.914978 107.641228,285.238800 106.978889,286.591980 
	C106.631386,286.482391 106.283882,286.372833 105.936371,286.263275 
	C104.684517,270.268066 103.432655,254.272858 102.191582,238.415390 
	C93.904991,237.674286 93.885780,237.665924 90.975044,244.358383 
	C85.531464,256.874420 80.119324,269.404114 74.674866,281.919769 
	C73.993004,283.487213 73.194862,285.004089 71.790894,287.909760 
	C71.407463,284.760040 71.145432,283.167145 71.029099,281.563660 
	C70.064880,268.273468 69.195137,254.975632 68.073914,241.698929 
	C67.966034,240.421463 66.345665,239.271744 64.562660,238.055313 
M422.913269,258.388763 
	C414.354919,267.435303 412.173859,278.563782 413.612213,290.309814 
	C414.979095,301.472198 423.065582,306.204041 433.847473,302.933868 
	C437.107452,301.945099 440.156128,300.259644 443.301575,298.893341 
	C443.179199,299.394073 443.056854,299.894836 442.934479,300.395569 
	C444.667084,301.240082 446.321960,302.481537 448.149841,302.839539 
	C451.169800,303.430969 453.247467,302.122375 453.817139,298.799072 
	C455.473297,289.137634 457.226562,279.492889 458.917542,269.837372 
	C460.887115,258.591370 462.831085,247.340881 464.782867,236.111191 
	C457.141510,234.590866 455.953644,235.398132 454.842682,242.053207 
	C453.901550,247.691040 452.815887,253.304718 451.757477,259.131134 
	C437.676056,251.225876 432.313141,251.055359 422.913269,258.388763 
M272.938171,321.135376 
	C274.035095,319.470825 275.702942,317.938324 276.123993,316.117493 
	C277.496582,310.182312 278.413849,304.141846 279.590088,297.681641 
	C281.030090,298.526581 282.006653,299.055603 282.939087,299.653412 
	C295.165619,307.491913 308.070099,304.477875 313.502289,291.153717 
	C316.479645,283.850891 317.726959,275.346222 317.630829,267.409210 
	C317.502930,256.852112 308.324707,250.971985 297.917053,253.529694 
	C294.269989,254.425980 290.837006,256.193390 287.079681,257.650879 
	C286.955536,256.503937 286.827026,255.316315 286.707458,254.211533 
	C278.429688,253.568420 278.287872,253.702194 276.939880,261.378540 
	C275.010742,272.364563 273.017029,283.339294 271.092682,294.326141 
	C269.554749,303.106873 268.079224,311.898560 266.486511,321.208313 
	C268.804810,321.208313 270.432770,321.208313 272.938171,321.135376 
M378.607208,258.038910 
	C368.255737,266.664215 365.782593,277.874390 368.435089,290.469757 
	C370.109436,298.420624 376.018555,303.349335 383.844666,303.851959 
	C392.819427,304.428406 400.649139,301.069489 408.473114,296.512390 
	C407.202118,294.156372 406.139435,292.186493 405.173950,290.396790 
	C399.985382,292.410095 395.494263,294.751434 390.716675,295.879303 
	C381.411499,298.075928 376.162811,292.890198 377.277649,282.887268 
	C379.015259,282.804535 380.842773,282.910583 382.596497,282.599976 
	C389.587677,281.361755 396.775360,280.664825 403.467651,278.475525 
	C409.549500,276.485901 412.209534,270.868469 411.648804,265.026520 
	C411.119446,259.511627 407.379303,255.436722 401.115479,253.824707 
	C393.266205,251.804672 385.954926,253.209473 378.607208,258.038910 
M354.732849,300.228973 
	C357.070526,299.062805 359.408203,297.896667 362.022583,296.592468 
	C360.705261,294.161865 359.636017,292.189056 358.655548,290.380005 
	C353.664917,292.362549 349.325439,294.627472 344.708679,295.807312 
	C335.252563,298.223877 329.650665,293.019318 330.614716,282.891937 
	C332.352509,282.802521 334.179962,282.881256 335.945251,282.587097 
	C342.796967,281.445251 349.783875,280.718964 356.417542,278.794037 
	C361.426788,277.340485 364.656128,273.296112 365.088776,267.662354 
	C365.723328,259.399261 360.033875,253.618637 350.361206,253.045578 
	C339.915375,252.426712 331.174866,256.011566 325.737762,265.177673 
	C319.867371,275.074249 318.904297,285.658630 324.340332,296.127594 
	C327.102478,301.447144 332.284363,304.066986 338.047485,303.723816 
	C343.419159,303.403931 348.705597,301.653229 354.732849,300.228973 
M173.772522,263.936157 
	C171.090836,258.523438 166.756912,255.256317 160.910599,253.826813 
	C144.128403,249.723312 129.880936,261.052704 128.852280,279.365479 
	C128.211258,290.777252 131.927994,298.301636 139.959457,301.851379 
	C152.150970,307.239777 165.854095,302.583954 171.939774,290.696594 
	C176.193436,282.387817 177.298553,273.655365 173.772522,263.936157 
M248.846924,282.457306 
	C250.245605,282.985199 251.955246,283.176483 252.973053,284.116699 
	C254.671982,285.686188 257.226898,287.877960 257.042908,289.545288 
	C256.812317,291.635223 254.472580,294.672180 252.524445,295.139923 
	C248.807266,296.032410 244.621964,295.939545 240.819656,295.236023 
	C237.168167,294.560394 233.755524,292.593933 229.940506,291.076385 
	C228.488388,292.978485 227.049789,294.862885 224.679092,297.968231 
	C231.940659,300.153412 237.964264,302.530182 244.213654,303.684479 
	C250.205582,304.791199 256.203217,303.573273 261.227325,299.641754 
	C269.051910,293.518738 268.245483,282.318817 259.479919,277.744934 
	C255.676727,275.760468 251.441452,274.611511 247.424942,273.026062 
	C244.195724,271.751404 240.185120,270.806122 241.006592,266.141846 
	C241.787537,261.707794 245.650452,260.538147 249.424744,260.710327 
	C253.175568,260.881439 256.903809,261.923553 260.599091,262.770630 
	C262.320953,263.165314 263.941559,264.001678 265.784668,264.705261 
	C267.221069,262.647400 268.497864,260.818146 270.116241,258.499542 
	C266.675507,257.076813 263.999542,255.753189 261.188446,254.850204 
	C253.865051,252.497726 246.472977,251.749222 239.349014,255.465454 
	C234.592499,257.946716 231.862930,261.849915 231.806549,267.467499 
	C231.751022,273.001862 234.577286,276.601929 239.254547,278.858246 
	C242.083862,280.223083 245.152191,281.092407 248.846924,282.457306 
M202.628845,302.934570 
	C207.583878,303.689362 209.310043,301.096252 210.025772,296.560333 
	C211.881226,284.801544 214.085220,273.097748 216.208740,261.039001 
	C220.653183,261.039001 224.591446,261.039001 228.724747,261.039001 
	C229.145157,258.592499 229.497513,256.542114 229.948837,253.915710 
	C225.702774,253.915710 221.941910,253.915710 218.217636,253.915710 
	C217.671051,244.231033 219.080276,243.239594 231.046143,244.631516 
	C231.982254,242.894440 232.976639,241.049225 233.959137,239.226044 
	C221.566086,231.430115 211.715637,235.125656 209.561874,248.684616 
	C208.761566,253.722870 206.225388,254.357681 202.152573,254.119507 
	C201.709152,256.425354 201.318130,258.458771 200.881332,260.730164 
	C203.125977,261.022583 204.881409,261.251251 207.010483,261.528595 
	C206.722183,263.367279 206.491333,264.985291 206.212418,266.594971 
	C204.340408,277.398987 202.400742,288.192017 200.659912,299.017059 
	C200.466187,300.221771 201.385162,301.605408 202.628845,302.934570 
M182.024658,283.453400 
	C180.961655,289.767731 179.898651,296.082062 178.834534,302.403076 
	C186.910461,303.505371 187.644104,303.028870 188.849319,296.197083 
	C191.218399,282.767975 193.587601,269.338837 195.917877,255.902969 
	C197.068222,249.270248 198.132034,242.622528 199.234482,235.984787 
	C191.376312,234.801971 190.431412,235.437195 189.219742,242.308243 
	C186.852005,255.735107 184.503952,269.165436 182.024658,283.453400 
z"/>
<path fill="#513382" opacity="1.000000" stroke="none" 
	d="
M509.407227,317.866089 
	C510.806305,305.011383 512.790649,292.046875 514.157410,279.017578 
	C516.022705,261.235291 514.456970,243.522324 512.463074,225.588318 
	C517.830566,224.870483 522.829407,224.434845 527.828308,223.999222 
	C527.868286,250.689896 527.908203,277.380585 527.889526,304.536926 
	C524.741394,307.825958 521.651855,310.649261 518.240234,313.766937 
	C517.367432,312.113739 516.660278,310.774414 515.304565,308.206573 
	C513.139099,311.896484 511.428162,314.811920 509.407227,317.866089 
z"/>
<path fill="#513382" opacity="1.000000" stroke="none" 
	d="
M508.153290,322.689301 
	C508.049561,321.970490 508.170166,320.930511 508.547638,319.585907 
	C508.662231,320.310242 508.519928,321.339172 508.153290,322.689301 
z"/>
<path fill="#4E3586" opacity="1.000000" stroke="none" 
	d="
M50.345127,387.871948 
	C51.233593,389.211365 52.122059,390.550781 53.162994,392.466064 
	C53.548290,393.354706 53.781113,393.667419 54.013939,393.980164 
	C54.013939,393.980164 54.002560,393.996338 54.077843,394.279175 
	C54.503315,395.017273 54.853500,395.472534 55.203690,395.927826 
	C60.100368,402.720612 64.997040,409.513397 69.986206,416.635437 
	C67.097504,418.620544 64.026741,420.135468 61.154129,421.962067 
	C55.500252,425.557220 49.857178,429.188019 44.429325,433.108215 
	C42.865051,434.238037 41.798248,436.289276 40.944382,438.123383 
	C38.932655,442.444641 35.282867,441.937561 31.633007,441.659912 
	C26.720840,441.286224 21.566854,439.827484 16.966444,440.852753 
	C12.612620,441.823029 8.839751,445.400146 4.488382,447.913239 
	C4.124966,434.306396 4.084537,420.617126 4.461314,406.453339 
	C6.639725,404.995117 8.400928,404.011353 10.205841,403.003174 
	C13.983180,406.516357 18.797459,407.502472 20.801876,404.267456 
	C24.411896,398.441132 30.040857,398.905762 35.454861,397.862427 
	C37.786434,397.413055 41.039120,396.072021 41.795547,394.265900 
	C43.530270,390.123871 46.458317,388.607635 50.345127,387.871948 
z"/>
<path fill="#028CA6" opacity="1.000000" stroke="none" 
	d="
M65.780197,114.121979 
	C59.000919,125.720779 51.858112,137.323090 44.340729,148.856369 
	C42.787006,148.880478 41.477272,148.676666 40.454853,149.126236 
	C38.043674,150.186508 35.777683,152.604996 33.438305,152.623520 
	C23.014372,152.706116 13.613788,156.326782 4.168281,159.991898 
	C4.121962,152.301849 4.075642,144.611786 4.097743,136.456909 
	C10.039948,133.387482 16.132965,131.177704 21.727844,128.070862 
	C27.709097,124.749474 33.758400,124.148056 40.312531,125.105995 
	C49.278473,126.416443 56.869644,124.073647 62.274632,116.263603 
	C62.947319,115.291611 64.351456,114.825821 65.780197,114.121979 
z"/>
<path fill="#028CA6" opacity="1.000000" stroke="none" 
	d="
M67.754089,111.224304 
	C67.810234,111.583824 67.687889,112.157768 67.292740,112.865601 
	C67.205154,112.479225 67.390381,111.958984 67.754089,111.224304 
z"/>
<path fill="#028CA6" opacity="1.000000" stroke="none" 
	d="
M66.818222,113.189316 
	C66.855438,113.341774 66.708176,113.661812 66.302795,114.072243 
	C66.208519,113.870285 66.404877,113.601700 66.818222,113.189316 
z"/>
<path fill="#32498B" opacity="1.000000" stroke="none" 
	d="
M440.518616,85.126907 
	C440.518616,85.126907 440.141998,85.024414 439.981689,84.598801 
	C439.296082,83.761688 438.770721,83.350204 438.245392,82.938728 
	C436.233490,81.205704 434.221588,79.472672 431.915680,77.229080 
	C431.338348,76.507774 431.055054,76.297035 430.771759,76.086304 
	C428.919128,74.607605 427.066528,73.128899 425.446533,71.363220 
	C427.233032,71.225494 428.786865,71.374741 430.475830,71.536972 
	C429.448364,65.370583 432.444366,61.485466 438.472412,61.042240 
	C445.447754,60.529354 451.762238,58.989124 456.517151,53.208035 
	C457.511627,51.998955 460.103577,51.277466 461.731750,51.575356 
	C466.107483,52.375935 469.347015,52.224892 468.980621,46.302906 
	C475.408112,48.174374 479.975159,46.141071 484.040497,41.598530 
	C487.770142,37.431168 492.948120,37.637627 497.656067,38.972748 
	C502.856262,40.447475 509.048584,41.707829 513.903137,40.181355 
	C518.633667,38.693867 523.083313,38.100010 527.825012,37.999096 
	C527.864380,53.022472 527.903809,68.045853 527.439697,83.534592 
	C522.103027,84.237617 517.726990,82.956375 513.077637,81.453300 
	C507.228577,79.562393 500.656677,79.629745 494.382080,79.484695 
	C492.210632,79.434502 489.967010,81.217201 487.806305,82.265678 
	C483.427368,84.390541 479.192596,86.872215 474.669220,88.610336 
	C472.869781,89.301773 469.625061,87.434959 468.481812,88.415627 
	C464.295898,92.006332 459.914581,91.627411 455.245514,90.433693 
	C453.591949,90.010948 451.995209,89.370659 450.358978,88.874336 
	C447.475281,87.999611 444.581177,87.159203 441.691437,86.304428 
	C441.691437,86.304420 441.831177,86.244942 441.671936,86.060181 
	C441.181335,85.625923 440.849976,85.376419 440.518616,85.126907 
z"/>
<path fill="#2D4D8D" opacity="1.000000" stroke="none" 
	d="
M527.884033,37.533714 
	C523.083313,38.100010 518.633667,38.693867 513.903137,40.181355 
	C509.048584,41.707829 502.856262,40.447475 497.656067,38.972748 
	C492.948120,37.637627 487.770142,37.431168 484.040497,41.598530 
	C479.975159,46.141071 475.408112,48.174374 468.980621,46.302906 
	C469.347015,52.224892 466.107483,52.375935 461.731750,51.575356 
	C460.103577,51.277466 457.511627,51.998955 456.517151,53.208035 
	C451.762238,58.989124 445.447754,60.529354 438.472412,61.042240 
	C432.444366,61.485466 429.448364,65.370583 430.475830,71.536972 
	C428.786865,71.374741 427.233032,71.225494 425.306091,71.067345 
	C424.933014,71.058449 424.980469,71.021904 424.804993,70.851906 
	C424.342285,70.478516 424.055084,70.275124 423.767853,70.071732 
	C423.767853,70.071732 423.334320,70.077126 422.998474,69.796646 
	C422.435791,69.322823 422.187561,69.162537 421.917999,69.035316 
	C421.917999,69.035316 421.981842,69.020294 421.857666,68.854294 
	C421.558472,68.433983 421.352631,68.207657 421.115997,68.009338 
	C414.813385,63.625645 408.510742,59.241955 402.046448,54.556557 
	C405.151184,54.460850 408.738342,53.880405 411.610718,55.052174 
	C416.233429,56.937988 419.099701,57.406826 423.927185,53.845402 
	C428.120300,50.751987 432.112305,48.979687 435.021515,43.774261 
	C437.648315,39.074192 443.785980,36.097454 448.805450,33.074898 
	C451.289001,31.579378 454.750702,31.143402 457.752441,31.197329 
	C463.097412,31.293346 466.690338,29.336103 468.916870,24.491077 
	C470.745026,20.512978 472.043213,15.672965 475.131836,13.039216 
	C479.623199,9.209366 484.437500,4.852188 491.454681,5.543303 
	C500.324615,6.416895 509.212708,7.406087 518.049683,4.636452 
	C520.809937,3.771346 523.967896,4.175369 527.385864,3.997855 
	C527.866272,15.020965 527.904663,26.044651 527.884033,37.533714 
z"/>
<path fill="#39458A" opacity="1.000000" stroke="none" 
	d="
M441.821594,86.610504 
	C444.581177,87.159203 447.475281,87.999611 450.358978,88.874336 
	C451.995209,89.370659 453.591949,90.010948 455.245514,90.433693 
	C459.914581,91.627411 464.295898,92.006332 468.481812,88.415627 
	C469.625061,87.434959 472.869781,89.301773 474.669220,88.610336 
	C479.192596,86.872215 483.427368,84.390541 487.806305,82.265678 
	C489.967010,81.217201 492.210632,79.434502 494.382080,79.484695 
	C500.656677,79.629745 507.228577,79.562393 513.077637,81.453300 
	C517.726990,82.956375 522.103027,84.237617 527.379700,83.999794 
	C527.864502,95.355484 527.905701,106.711327 527.455750,118.532928 
	C523.033142,118.051750 519.133057,116.927895 515.158447,116.225616 
	C512.850525,115.817825 509.665588,115.108253 508.197876,116.243866 
	C504.486420,119.115433 500.536255,119.175423 496.389160,118.967720 
	C492.914978,118.793716 489.398041,117.789635 486.001678,118.139664 
	C480.892944,118.666176 475.872894,120.053871 470.815155,121.075455 
	C470.337494,120.540894 469.859863,120.006325 469.339722,119.037903 
	C469.068359,118.375847 468.839478,118.147652 468.610626,117.919449 
	C459.724335,107.585167 450.838043,97.250870 441.821594,86.610504 
z"/>
<path fill="#403F88" opacity="1.000000" stroke="none" 
	d="
M470.896912,121.414886 
	C475.872894,120.053871 480.892944,118.666176 486.001678,118.139664 
	C489.398041,117.789635 492.914978,118.793716 496.389160,118.967720 
	C500.536255,119.175423 504.486420,119.115433 508.197876,116.243866 
	C509.665588,115.108253 512.850525,115.817825 515.158447,116.225616 
	C519.133057,116.927895 523.033142,118.051750 527.397705,118.998222 
	C527.870178,131.355637 527.909546,143.713531 527.560425,156.623535 
	C523.449829,159.755951 519.809570,163.714127 515.634155,157.721054 
	C515.385803,157.364578 514.107727,157.197723 513.824890,157.472961 
	C510.147217,161.051880 507.060455,159.184998 503.905182,156.645981 
	C503.350006,156.199234 502.334229,156.232819 501.526215,156.208344 
	C498.046783,156.102966 494.565521,156.058609 491.084900,155.992035 
	C484.382843,144.579468 477.680786,133.166901 470.896912,121.414886 
z"/>
<path fill="#483A86" opacity="1.000000" stroke="none" 
	d="
M491.102600,156.353760 
	C494.565521,156.058609 498.046783,156.102966 501.526215,156.208344 
	C502.334229,156.232819 503.350006,156.199234 503.905182,156.645981 
	C507.060455,159.184998 510.147217,161.051880 513.824890,157.472961 
	C514.107727,157.197723 515.385803,157.364578 515.634155,157.721054 
	C519.809570,163.714127 523.449829,159.755951 527.501770,157.089081 
	C527.869629,179.024460 527.907654,201.046402 527.886963,223.533783 
	C522.829407,224.434845 517.830566,224.870483 512.524170,225.174820 
	C508.034271,201.387650 501.469879,178.467239 491.102600,156.353760 
z"/>
<path fill="#4A3D89" opacity="1.000000" stroke="none" 
	d="
M50.270988,387.516602 
	C46.458317,388.607635 43.530270,390.123871 41.795547,394.265900 
	C41.039120,396.072021 37.786434,397.413055 35.454861,397.862427 
	C30.040857,398.905762 24.411896,398.441132 20.801876,404.267456 
	C18.797459,407.502472 13.983180,406.516357 10.205841,403.003174 
	C8.400928,404.011353 6.639725,404.995117 4.521200,405.987915 
	C4.125490,392.306061 4.087102,378.615204 4.476418,364.432281 
	C10.879004,362.391937 16.788397,360.004608 22.847218,359.531616 
	C28.886818,359.060181 32.399498,357.255524 32.889915,351.016205 
	C38.658890,363.064545 44.427868,375.112915 50.270988,387.516602 
z"/>
<path fill="#44488D" opacity="1.000000" stroke="none" 
	d="
M32.882614,350.642273 
	C32.399498,357.255524 28.886818,359.060181 22.847218,359.531616 
	C16.788397,360.004608 10.879004,362.391937 4.539471,363.967041 
	C4.129753,349.303192 4.084685,334.612549 4.465686,319.376343 
	C10.372094,317.170685 15.852434,315.510559 21.332773,313.850464 
	C22.108398,315.727692 23.042650,317.556458 23.633137,319.490204 
	C26.761480,329.735046 29.803427,340.006287 32.882614,350.642273 
z"/>
<path fill="#0283A3" opacity="1.000000" stroke="none" 
	d="
M4.099977,160.456696 
	C13.613788,156.326782 23.014372,152.706116 33.438305,152.623520 
	C35.777683,152.604996 38.043674,150.186508 40.454853,149.126236 
	C41.477272,148.676666 42.787006,148.880478 44.071533,149.085815 
	C44.176910,149.384308 44.146248,149.812653 43.823853,150.151978 
	C43.377781,150.813461 43.254101,151.135651 43.130424,151.457825 
	C40.212006,158.118851 37.293587,164.779892 33.965851,171.975586 
	C33.405983,172.905228 33.255440,173.300217 33.104897,173.695190 
	C33.104897,173.695190 33.218796,173.782578 32.948116,174.104980 
	C32.458000,175.309265 32.238567,176.191177 32.019131,177.073074 
	C32.019131,177.073074 32.056793,177.552719 31.631729,177.758942 
	C30.811384,177.982925 30.416100,178.000671 29.661625,178.053009 
	C28.242805,179.410522 27.240812,180.785736 26.104034,182.038666 
	C25.297113,182.928024 24.346415,184.290451 23.394537,184.347305 
	C16.998934,184.729279 10.585827,184.818192 4.178394,185.002090 
	C4.129487,176.975220 4.080580,168.948349 4.099977,160.456696 
z"/>
<path fill="#3B5490" opacity="1.000000" stroke="none" 
	d="
M21.294422,313.493530 
	C15.852434,315.510559 10.372094,317.170685 4.528379,318.910828 
	C4.124192,308.967468 4.083378,298.944061 4.479189,288.372070 
	C9.226488,286.871033 13.537164,285.918549 17.847839,284.966095 
	C18.772743,291.774384 19.697647,298.582672 20.417156,306.204590 
	C20.469872,308.345215 20.727983,309.672211 20.986094,310.999237 
	C21.076086,311.711670 21.166077,312.424133 21.294422,313.493530 
z"/>
<path fill="#376093" opacity="1.000000" stroke="none" 
	d="
M17.915470,284.515106 
	C13.537164,285.918549 9.226488,286.871033 4.544025,287.906738 
	C4.129739,278.635651 4.087239,269.281281 4.516415,259.462036 
	C14.123756,258.640717 15.836560,256.693390 16.090143,247.519287 
	C16.169077,244.663666 17.308781,241.837357 17.962872,238.997635 
	C17.969616,254.019791 17.976358,269.041962 17.915470,284.515106 
z"/>
<path fill="#0E7AA1" opacity="1.000000" stroke="none" 
	d="
M4.110228,185.464081 
	C10.585827,184.818192 16.998934,184.729279 23.394537,184.347305 
	C24.346415,184.290451 25.297113,182.928024 26.104034,182.038666 
	C27.240812,180.785736 28.242805,179.410522 29.657598,178.481796 
	C30.055502,180.023895 30.098236,181.171814 30.140972,182.319717 
	C30.140972,182.319717 30.164267,182.732681 29.852406,183.147949 
	C29.434511,183.968094 29.328480,184.372986 29.222445,184.777863 
	C29.222443,184.777863 29.315138,184.792313 29.017515,185.079376 
	C26.808046,190.573944 24.896198,195.781464 22.598009,200.964890 
	C16.195969,200.959335 10.180267,200.977875 4.164567,200.996414 
	C4.123732,195.972977 4.082897,190.949524 4.110228,185.464081 
z"/>
<path fill="#25719D" opacity="1.000000" stroke="none" 
	d="
M22.984352,200.988983 
	C24.896198,195.781464 26.808046,190.573944 29.011597,185.125900 
	C26.876493,194.365280 24.449684,203.845184 21.532507,213.855103 
	C19.714296,220.683975 18.386457,226.982849 17.119003,232.995255 
	C12.587360,232.995255 8.379187,232.995255 4.171012,232.995255 
	C4.126839,227.306183 4.082666,221.617096 4.530844,215.464111 
	C8.798888,214.759689 12.574583,214.519180 16.059595,214.297195 
	C16.658569,212.497986 16.912872,209.926163 17.662842,209.772430 
	C22.831873,208.712875 22.159653,204.455566 22.984352,200.988983 
z"/>
<path fill="#2F6898" opacity="1.000000" stroke="none" 
	d="
M4.105279,233.460083 
	C8.379187,232.995255 12.587360,232.995255 17.119003,232.995255 
	C18.386457,226.982849 19.714296,220.683975 21.341526,214.201721 
	C20.509211,222.088898 19.377510,230.159485 18.104340,238.613861 
	C17.308781,241.837357 16.169077,244.663666 16.090143,247.519287 
	C15.836560,256.693390 14.123756,258.640717 4.581589,258.997253 
	C4.129907,250.639847 4.084726,242.282394 4.105279,233.460083 
z"/>
<path fill="#1A74A0" opacity="1.000000" stroke="none" 
	d="
M22.598011,200.964890 
	C22.159653,204.455566 22.831873,208.712875 17.662842,209.772430 
	C16.912872,209.926163 16.658569,212.497986 16.059595,214.297195 
	C12.574583,214.519180 8.798888,214.759689 4.594894,215.000061 
	C4.122712,210.639420 4.078826,206.278915 4.099754,201.457428 
	C10.180267,200.977875 16.195969,200.959335 22.598011,200.964890 
z"/>
<path fill="#245590" opacity="1.000000" stroke="none" 
	d="
M366.758362,34.871605 
	C366.380341,34.936932 365.776581,34.795414 364.987061,34.398201 
	C365.378387,34.316589 365.955505,34.490677 366.758362,34.871605 
z"/>
<path fill="#245590" opacity="1.000000" stroke="none" 
	d="
M359.775543,31.888943 
	C359.375183,31.948057 358.714081,31.793945 357.824738,31.377604 
	C358.235931,31.302156 358.875366,31.488937 359.775543,31.888943 
z"/>
<path fill="#245590" opacity="1.000000" stroke="none" 
	d="
M364.837372,34.083527 
	C364.727905,34.203968 364.556702,34.193020 364.200500,34.003204 
	C364.309479,33.667835 364.562866,33.710434 364.837372,34.083527 
z"/>
<path fill="#245590" opacity="1.000000" stroke="none" 
	d="
M361.746704,32.764786 
	C361.573486,32.849823 361.139557,32.750816 360.504242,32.372654 
	C360.697235,32.255917 361.091583,32.418327 361.746704,32.764786 
z"/>
<path fill="#1C5C93" opacity="1.000000" stroke="none" 
	d="
M351.935913,28.690968 
	C350.470062,28.604984 348.913727,28.178745 347.123260,27.499207 
	C349.012421,25.500410 350.676453,25.815042 351.935913,28.690968 
z"/>
<path fill="#1C5C93" opacity="1.000000" stroke="none" 
	d="
M344.839294,26.342793 
	C342.917206,26.049257 340.823822,25.449713 338.458344,24.589180 
	C340.346832,24.897722 342.507446,25.467251 344.839294,26.342793 
z"/>
<path fill="#0C6898" opacity="1.000000" stroke="none" 
	d="
M292.879150,14.933777 
	C289.076752,14.944222 285.131989,14.738735 280.802246,14.292583 
	C283.968170,14.032721 287.519043,14.013524 291.537384,13.991974 
	C292.248840,14.232360 292.492767,14.475102 292.879150,14.933777 
z"/>
<path fill="#603782" opacity="1.000000" stroke="none" 
	d="
M64.995041,238.059021 
	C66.345665,239.271744 67.966034,240.421463 68.073914,241.698929 
	C69.195137,254.975632 70.064880,268.273468 71.029099,281.563660 
	C71.145432,283.167145 71.407463,284.760040 71.790894,287.909760 
	C73.194862,285.004089 73.993004,283.487213 74.674866,281.919769 
	C80.119324,269.404114 85.531464,256.874420 90.975044,244.358383 
	C93.885780,237.665924 93.904991,237.674286 102.191582,238.415390 
	C103.432655,254.272858 104.684517,270.268066 105.936371,286.263275 
	C106.283882,286.372833 106.631386,286.482391 106.978889,286.591980 
	C107.641228,285.238800 108.373650,283.914978 108.954971,282.527863 
	C114.165634,270.094360 119.361801,257.654785 124.537178,245.206573 
	C127.795868,237.368530 128.419388,237.026321 137.724731,238.677963 
	C136.507843,241.476517 135.352615,244.190567 134.152222,246.884491 
	C126.834999,263.305695 119.511162,279.723938 112.181801,296.139740 
	C108.948448,303.381531 108.940216,303.377869 99.805641,302.567993 
	C98.508423,287.240997 97.199623,271.777222 95.890831,256.313446 
	C95.515457,256.166901 95.140083,256.020355 94.764709,255.873810 
	C93.982742,257.298859 93.087006,258.674042 92.436783,260.156860 
	C87.155205,272.201416 81.928558,284.270050 76.666618,296.323212 
	C73.533234,303.500641 73.238281,303.641724 64.350151,302.436157 
	C63.295074,292.031250 62.199654,281.483307 61.163319,270.929535 
	C60.300838,262.146332 59.486954,253.358185 58.691483,244.568619 
	C58.187752,239.002701 58.779488,238.380447 64.995041,238.059021 
z"/>
<path fill="#5F3782" opacity="1.000000" stroke="none" 
	d="
M253.213745,220.489044 
	C285.131317,219.334976 317.048248,218.162354 348.967194,217.048203 
	C353.402893,216.893372 357.848663,217.026840 363.372253,217.026840 
	C358.469269,206.644379 354.200409,197.604630 349.931519,188.564865 
	C350.232727,188.221893 350.533936,187.878922 350.835144,187.535950 
	C361.877014,192.649063 372.918915,197.762177 384.527283,203.211456 
	C392.032166,206.751526 398.970490,209.955414 405.908844,213.159317 
	C415.122772,217.550705 424.336700,221.942108 433.550629,226.333496 
	C433.303223,226.879166 433.055847,227.424835 432.808441,227.970490 
	C414.144562,222.473511 395.480682,216.976532 375.601624,211.121658 
	C378.252899,217.381424 380.400208,222.451294 382.940552,228.449081 
	C339.297699,226.289719 296.600067,224.177124 253.492722,221.769623 
	C253.126587,221.146179 253.170166,220.817596 253.213745,220.489044 
z"/>
<path fill="#603882" opacity="1.000000" stroke="none" 
	d="
M423.182434,258.151978 
	C432.313141,251.055359 437.676056,251.225876 451.757477,259.131134 
	C452.815887,253.304718 453.901550,247.691040 454.842682,242.053207 
	C455.953644,235.398132 457.141510,234.590866 464.782867,236.111191 
	C462.831085,247.340881 460.887115,258.591370 458.917542,269.837372 
	C457.226562,279.492889 455.473297,289.137634 453.817139,298.799072 
	C453.247467,302.122375 451.169800,303.430969 448.149841,302.839539 
	C446.321960,302.481537 444.667084,301.240082 442.934479,300.395569 
	C443.056854,299.894836 443.179199,299.394073 443.301575,298.893341 
	C440.156128,300.259644 437.107452,301.945099 433.847473,302.933868 
	C423.065582,306.204041 414.979095,301.472198 413.612213,290.309814 
	C412.173859,278.563782 414.354919,267.435303 423.182434,258.151978 
M446.003387,288.194183 
	C447.345062,281.903687 448.718292,275.619568 449.985321,269.314056 
	C450.130341,268.592255 449.865509,267.644440 449.480347,266.981812 
	C445.167389,259.561401 433.804077,258.591583 428.561493,265.394257 
	C423.227051,272.316071 421.580933,280.394806 422.731598,288.950806 
	C423.509094,294.731995 426.997345,297.498993 432.530640,295.753448 
	C437.126709,294.303558 441.182983,291.142761 446.003387,288.194183 
z"/>
<path fill="#5F3782" opacity="1.000000" stroke="none" 
	d="
M272.499451,321.171844 
	C270.432770,321.208313 268.804810,321.208313 266.486511,321.208313 
	C268.079224,311.898560 269.554749,303.106873 271.092682,294.326141 
	C273.017029,283.339294 275.010742,272.364563 276.939880,261.378540 
	C278.287872,253.702194 278.429688,253.568420 286.707458,254.211533 
	C286.827026,255.316315 286.955536,256.503937 287.079681,257.650879 
	C290.837006,256.193390 294.269989,254.425980 297.917053,253.529694 
	C308.324707,250.971985 317.502930,256.852112 317.630829,267.409210 
	C317.726959,275.346222 316.479645,283.850891 313.502289,291.153717 
	C308.070099,304.477875 295.165619,307.491913 282.939087,299.653412 
	C282.006653,299.055603 281.030090,298.526581 279.590088,297.681641 
	C278.413849,304.141846 277.496582,310.182312 276.123993,316.117493 
	C275.702942,317.938324 274.035095,319.470825 272.499451,321.171844 
M307.877136,281.062683 
	C308.162689,276.935852 308.859222,272.785126 308.621460,268.688690 
	C308.369385,264.345337 306.035980,261.211884 301.201141,260.746704 
	C293.268494,259.983490 285.004211,266.174469 283.634674,273.934784 
	C282.913361,278.022186 281.930786,282.084930 281.565552,286.203125 
	C281.418854,287.856995 282.106293,290.172485 283.275787,291.261627 
	C291.970428,299.358978 300.999207,297.399750 305.967468,286.521393 
	C306.653473,285.019379 307.128174,283.420837 307.877136,281.062683 
z"/>
<path fill="#613983" opacity="1.000000" stroke="none" 
	d="
M378.897217,257.824524 
	C385.954926,253.209473 393.266205,251.804672 401.115479,253.824707 
	C407.379303,255.436722 411.119446,259.511627 411.648804,265.026520 
	C412.209534,270.868469 409.549500,276.485901 403.467651,278.475525 
	C396.775360,280.664825 389.587677,281.361755 382.596497,282.599976 
	C380.842773,282.910583 379.015259,282.804535 377.277649,282.887268 
	C376.162811,292.890198 381.411499,298.075928 390.716675,295.879303 
	C395.494263,294.751434 399.985382,292.410095 405.173950,290.396790 
	C406.139435,292.186493 407.202118,294.156372 408.473114,296.512390 
	C400.649139,301.069489 392.819427,304.428406 383.844666,303.851959 
	C376.018555,303.349335 370.109436,298.420624 368.435089,290.469757 
	C365.782593,277.874390 368.255737,266.664215 378.897217,257.824524 
M402.862061,267.256073 
	C403.078094,262.845825 400.367340,261.069885 396.566498,260.380554 
	C387.951782,258.818146 379.145477,266.088287 377.990356,276.633728 
	C383.867096,275.931976 389.691406,275.863098 395.105286,274.337646 
	C398.009003,273.519470 400.206940,270.196503 402.862061,267.256073 
z"/>
<path fill="#603882" opacity="1.000000" stroke="none" 
	d="
M354.381226,300.380676 
	C348.705597,301.653229 343.419159,303.403931 338.047485,303.723816 
	C332.284363,304.066986 327.102478,301.447144 324.340332,296.127594 
	C318.904297,285.658630 319.867371,275.074249 325.737762,265.177673 
	C331.174866,256.011566 339.915375,252.426712 350.361206,253.045578 
	C360.033875,253.618637 365.723328,259.399261 365.088776,267.662354 
	C364.656128,273.296112 361.426788,277.340485 356.417542,278.794037 
	C349.783875,280.718964 342.796967,281.445251 335.945251,282.587097 
	C334.179962,282.881256 332.352509,282.802521 330.614716,282.891937 
	C329.650665,293.019318 335.252563,298.223877 344.708679,295.807312 
	C349.325439,294.627472 353.664917,292.362549 358.655548,290.380005 
	C359.636017,292.189056 360.705261,294.161865 362.022583,296.592468 
	C359.408203,297.896667 357.070526,299.062805 354.381226,300.380676 
M333.122894,276.118652 
	C336.107361,276.051422 339.195038,276.445129 342.051270,275.805420 
	C346.014343,274.917755 350.170532,273.852295 353.571045,271.765991 
	C357.505371,269.352203 357.358063,263.860870 353.755585,261.762329 
	C348.953979,258.965271 343.998993,259.725098 339.673309,262.737854 
	C335.212799,265.844543 331.411987,269.689606 331.826294,275.863800 
	C331.830933,275.932953 332.117645,275.983154 333.122894,276.118652 
z"/>
<path fill="#603882" opacity="1.000000" stroke="none" 
	d="
M173.910309,264.295837 
	C177.298553,273.655365 176.193436,282.387817 171.939774,290.696594 
	C165.854095,302.583954 152.150970,307.239777 139.959457,301.851379 
	C131.927994,298.301636 128.211258,290.777252 128.852280,279.365479 
	C129.880936,261.052704 144.128403,249.723312 160.910599,253.826813 
	C166.756912,255.256317 171.090836,258.523438 173.910309,264.295837 
M164.009155,264.586884 
	C157.012741,258.333893 147.205704,258.912689 142.568665,266.849792 
	C139.854294,271.495941 138.554611,277.323608 137.964508,282.765747 
	C137.228836,289.550385 140.272415,293.829651 145.220169,295.577850 
	C151.100098,297.655426 157.711105,296.090790 161.384186,290.960602 
	C167.040771,283.059998 169.050156,274.458740 164.009155,264.586884 
z"/>
<path fill="#603982" opacity="1.000000" stroke="none" 
	d="
M248.480042,282.320831 
	C245.152191,281.092407 242.083862,280.223083 239.254547,278.858246 
	C234.577286,276.601929 231.751022,273.001862 231.806549,267.467499 
	C231.862930,261.849915 234.592499,257.946716 239.349014,255.465454 
	C246.472977,251.749222 253.865051,252.497726 261.188446,254.850204 
	C263.999542,255.753189 266.675507,257.076813 270.116241,258.499542 
	C268.497864,260.818146 267.221069,262.647400 265.784668,264.705261 
	C263.941559,264.001678 262.320953,263.165314 260.599091,262.770630 
	C256.903809,261.923553 253.175568,260.881439 249.424744,260.710327 
	C245.650452,260.538147 241.787537,261.707794 241.006592,266.141846 
	C240.185120,270.806122 244.195724,271.751404 247.424942,273.026062 
	C251.441452,274.611511 255.676727,275.760468 259.479919,277.744934 
	C268.245483,282.318817 269.051910,293.518738 261.227325,299.641754 
	C256.203217,303.573273 250.205582,304.791199 244.213654,303.684479 
	C237.964264,302.530182 231.940659,300.153412 224.679092,297.968231 
	C227.049789,294.862885 228.488388,292.978485 229.940506,291.076385 
	C233.755524,292.593933 237.168167,294.560394 240.819656,295.236023 
	C244.621964,295.939545 248.807266,296.032410 252.524445,295.139923 
	C254.472580,294.672180 256.812317,291.635223 257.042908,289.545288 
	C257.226898,287.877960 254.671982,285.686188 252.973053,284.116699 
	C251.955246,283.176483 250.245605,282.985199 248.480042,282.320831 
z"/>
<path fill="#5F3782" opacity="1.000000" stroke="none" 
	d="
M202.208481,302.920319 
	C201.385162,301.605408 200.466187,300.221771 200.659912,299.017059 
	C202.400742,288.192017 204.340408,277.398987 206.212418,266.594971 
	C206.491333,264.985291 206.722183,263.367279 207.010483,261.528595 
	C204.881409,261.251251 203.125977,261.022583 200.881332,260.730164 
	C201.318130,258.458771 201.709152,256.425354 202.152573,254.119507 
	C206.225388,254.357681 208.761566,253.722870 209.561874,248.684616 
	C211.715637,235.125656 221.566086,231.430115 233.959137,239.226044 
	C232.976639,241.049225 231.982254,242.894440 231.046143,244.631516 
	C219.080276,243.239594 217.671051,244.231033 218.217636,253.915710 
	C221.941910,253.915710 225.702774,253.915710 229.948837,253.915710 
	C229.497513,256.542114 229.145157,258.592499 228.724747,261.039001 
	C224.591446,261.039001 220.653183,261.039001 216.208740,261.039001 
	C214.085220,273.097748 211.881226,284.801544 210.025772,296.560333 
	C209.310043,301.096252 207.583878,303.689362 202.208481,302.920319 
z"/>
<path fill="#603982" opacity="1.000000" stroke="none" 
	d="
M182.086182,283.023865 
	C184.503952,269.165436 186.852005,255.735107 189.219742,242.308243 
	C190.431412,235.437195 191.376312,234.801971 199.234482,235.984787 
	C198.132034,242.622528 197.068222,249.270248 195.917877,255.902969 
	C193.587601,269.338837 191.218399,282.767975 188.849319,296.197083 
	C187.644104,303.028870 186.910461,303.505371 178.834534,302.403076 
	C179.898651,296.082062 180.961655,289.767731 182.086182,283.023865 
z"/>
<path fill="#654183" opacity="1.000000" stroke="none" 
	d="
M321.012299,232.986908 
	C320.579681,232.982361 320.147064,232.977814 319.430115,232.717285 
	C319.270569,232.200989 319.295441,231.931458 319.220428,231.652740 
	C343.662842,232.930511 368.105896,234.196671 392.547363,235.492218 
	C401.360626,235.959396 410.188141,236.294754 418.974945,237.074982 
	C424.668823,237.580612 429.845551,236.814880 434.619171,233.566971 
	C435.802521,232.761826 437.228546,232.313354 439.263824,232.417328 
	C436.293457,236.029861 433.424591,239.735153 430.274719,243.183746 
	C429.567871,243.957642 427.840820,244.193726 426.645966,244.070587 
	C392.039795,240.504395 357.441589,236.860931 322.193665,233.057648 
	C321.367615,232.919235 321.189941,232.953079 321.012299,232.986908 
z"/>
<path fill="#654183" opacity="1.000000" stroke="none" 
	d="
M384.929749,200.171188 
	C382.951263,196.209534 380.972809,192.247879 378.994324,188.286209 
	C379.282928,188.003220 379.571503,187.720245 379.860107,187.437256 
	C388.520081,194.091507 397.180084,200.745773 405.848328,207.996857 
	C404.316467,208.290680 402.661774,208.250732 401.256592,207.638290 
	C395.771423,205.247620 390.365295,202.675705 384.929749,200.171188 
z"/>
<path fill="#827292" opacity="1.000000" stroke="none" 
	d="
M464.076111,292.988312 
	C466.158997,292.323700 469.003143,290.504517 470.149475,291.260315 
	C471.948425,292.446503 473.762268,295.579742 473.415283,297.498810 
	C473.065674,299.432190 470.314819,301.455444 468.165710,302.320709 
	C467.073181,302.760529 464.990448,300.740784 463.844910,299.636047 
	C464.676666,299.238892 465.018860,299.038574 465.431976,298.490906 
	C465.333344,296.766632 465.163757,295.389740 464.900269,293.795349 
	C464.616730,293.314728 464.373322,293.118195 464.076111,292.988312 
M467.779266,295.424744 
	C467.972565,295.263214 468.165833,295.101654 468.359161,294.940155 
	C468.263550,294.836487 468.167938,294.732849 468.072327,294.629181 
	C467.899292,294.812988 467.726227,294.996796 467.779266,295.424744 
z"/>
<path fill="#E3D8E9" opacity="1.000000" stroke="none" 
	d="
M384.902344,200.653198 
	C390.365295,202.675705 395.771423,205.247620 401.256592,207.638290 
	C402.661774,208.250732 404.316467,208.290680 406.052673,208.271805 
	C407.683929,208.546677 409.119049,209.143417 411.222778,210.018158 
	C409.000885,211.122330 407.565765,211.835495 406.019745,212.854004 
	C398.970490,209.955414 392.032166,206.751526 384.907562,203.303864 
	C384.772522,202.418457 384.823730,201.776825 384.902344,200.653198 
z"/>
<path fill="#9481A5" opacity="1.000000" stroke="none" 
	d="
M252.781799,220.355774 
	C253.170166,220.817596 253.126587,221.146179 253.060974,221.725006 
	C250.102036,221.975281 247.165176,221.975281 244.228302,221.975281 
	C244.195419,221.571732 244.162521,221.168182 244.129623,220.764618 
	C246.869705,220.583923 249.609772,220.403229 252.781799,220.355774 
z"/>
<path fill="#9481A5" opacity="1.000000" stroke="none" 
	d="
M318.825867,231.473480 
	C319.295441,231.931458 319.270569,232.200989 319.109558,232.664185 
	C316.786041,232.633865 314.498779,232.400635 312.211517,232.167404 
	C312.264191,231.755554 312.316833,231.343704 312.369476,230.931854 
	C314.390076,231.052643 316.410675,231.173447 318.825867,231.473480 
z"/>
<path fill="#F6F3F7" opacity="1.000000" stroke="none" 
	d="
M464.994202,294.012817 
	C465.163757,295.389740 465.333344,296.766632 465.199585,298.456879 
	C464.576782,298.751831 464.271027,298.677307 463.978973,298.546600 
	C463.978973,298.546600 463.944397,298.205231 463.868073,297.708374 
	C463.813293,296.545929 463.834839,295.880371 464.033813,295.003113 
	C464.472198,294.531891 464.733185,294.272369 464.994202,294.012817 
z"/>
<path fill="#44488D" opacity="1.000000" stroke="none" 
	d="
M21.174793,310.744812 
	C20.727983,309.672211 20.469872,308.345215 20.306885,306.593018 
	C20.722504,307.608673 21.042997,309.049530 21.174793,310.744812 
z"/>
<path fill="#25719D" opacity="1.000000" stroke="none" 
	d="
M30.401634,182.097061 
	C30.098236,181.171814 30.055502,180.023895 30.016792,178.447205 
	C30.416100,178.000671 30.811384,177.982925 31.503971,177.962769 
	C31.421616,179.265045 31.041954,180.569717 30.401634,182.097061 
z"/>
<path fill="#E3D8E9" opacity="1.000000" stroke="none" 
	d="
M464.900269,293.795349 
	C464.733185,294.272369 464.472198,294.531891 463.825348,294.967346 
	C463.439484,295.143250 463.027466,295.046967 463.027466,295.046967 
	C463.204315,294.372131 463.381195,293.697327 463.817078,293.005432 
	C464.373322,293.118195 464.616730,293.314728 464.900269,293.795349 
z"/>
<path fill="#9481A5" opacity="1.000000" stroke="none" 
	d="
M463.038635,295.363708 
	C463.027466,295.046967 463.439484,295.143250 463.647949,295.179016 
	C463.834839,295.880371 463.813293,296.545929 463.872437,297.536865 
	C463.652039,297.134949 463.350952,296.407715 463.038635,295.363708 
z"/>
<path fill="#39458A" opacity="1.000000" stroke="none" 
	d="
M438.319336,83.186157 
	C438.770721,83.350204 439.296082,83.761688 439.909637,84.417419 
	C439.463013,84.252312 438.928131,83.842957 438.319336,83.186157 
z"/>
<path fill="#0E7AA1" opacity="1.000000" stroke="none" 
	d="
M32.252831,176.817368 
	C32.238567,176.191177 32.458000,175.309265 32.906845,174.163696 
	C32.919682,174.787247 32.703110,175.674454 32.252831,176.817368 
z"/>
<path fill="#4A3D89" opacity="1.000000" stroke="none" 
	d="
M55.164177,395.631836 
	C54.853500,395.472534 54.503315,395.017273 54.086720,394.276581 
	C54.388428,394.439392 54.756546,394.887604 55.164177,395.631836 
z"/>
<path fill="#E3D8E9" opacity="1.000000" stroke="none" 
	d="
M463.916687,298.727753 
	C464.271027,298.677307 464.576782,298.751831 465.128632,298.804260 
	C465.018860,299.038574 464.676666,299.238892 464.087708,299.365479 
	C463.840881,299.291748 463.854401,298.908905 463.916687,298.727753 
z"/>
<path fill="#39458A" opacity="1.000000" stroke="none" 
	d="
M430.874634,76.349884 
	C431.055054,76.297035 431.338348,76.507774 431.785828,76.927505 
	C431.625824,76.962151 431.301636,76.787819 430.874634,76.349884 
z"/>
<path fill="#4A3D89" opacity="1.000000" stroke="none" 
	d="
M53.971867,393.674774 
	C53.781113,393.667419 53.548290,393.354706 53.202957,392.767883 
	C53.370232,392.785706 53.650017,393.077545 53.971867,393.674774 
z"/>
<path fill="#25719D" opacity="1.000000" stroke="none" 
	d="
M29.471735,184.556122 
	C29.328480,184.372986 29.434511,183.968094 29.715395,183.302856 
	C29.833839,183.473129 29.777431,183.903748 29.471735,184.556122 
z"/>
<path fill="#0E7AA1" opacity="1.000000" stroke="none" 
	d="
M33.381271,173.495422 
	C33.255440,173.300217 33.405983,172.905228 33.739349,172.250793 
	C33.833992,172.426102 33.745823,172.860886 33.381271,173.495422 
z"/>
<path fill="#9481A5" opacity="1.000000" stroke="none" 
	d="
M321.118958,233.097443 
	C321.189941,232.953079 321.367615,232.919235 321.803009,232.970062 
	C322.060760,233.054733 321.678070,233.265518 321.678070,233.265518 
	C321.678070,233.265518 321.225586,233.207962 321.118958,233.097443 
z"/>
<path fill="#028CA6" opacity="1.000000" stroke="none" 
	d="
M43.355061,151.294373 
	C43.254101,151.135651 43.377781,150.813461 43.653355,150.282501 
	C43.730068,150.426117 43.654884,150.778519 43.355061,151.294373 
z"/>
<path fill="#403F88" opacity="1.000000" stroke="none" 
	d="
M468.705231,118.217133 
	C468.839478,118.147652 469.068359,118.375847 469.280273,118.768799 
	C469.108826,118.793983 468.954315,118.654396 468.705231,118.217133 
z"/>
<path fill="#39458A" opacity="1.000000" stroke="none" 
	d="
M440.650269,85.426651 
	C440.849976,85.376419 441.181335,85.625923 441.696960,86.131897 
	C441.514771,86.167709 441.148346,85.947044 440.650269,85.426651 
z"/>
<path fill="#32498B" opacity="1.000000" stroke="none" 
	d="
M421.091949,68.278725 
	C421.352631,68.207657 421.558472,68.433983 421.850952,68.886391 
	C421.668243,68.905685 421.368073,68.726898 421.091949,68.278725 
z"/>
<path fill="#32498B" opacity="1.000000" stroke="none" 
	d="
M421.992432,69.284424 
	C422.187561,69.162537 422.435791,69.322823 422.821533,69.671379 
	C422.675903,69.728905 422.371399,69.631226 421.992432,69.284424 
z"/>
<path fill="#32498B" opacity="1.000000" stroke="none" 
	d="
M423.872986,70.337219 
	C424.055084,70.275124 424.342285,70.478516 424.803711,70.881882 
	C424.644623,70.922142 424.311340,70.762428 423.872986,70.337219 
z"/>
<path fill="#FAF8FA" opacity="1.000000" stroke="none" 
	d="
M445.740906,288.467041 
	C441.182983,291.142761 437.126709,294.303558 432.530640,295.753448 
	C426.997345,297.498993 423.509094,294.731995 422.731598,288.950806 
	C421.580933,280.394806 423.227051,272.316071 428.561493,265.394257 
	C433.804077,258.591583 445.167389,259.561401 449.480347,266.981812 
	C449.865509,267.644440 450.130341,268.592255 449.985321,269.314056 
	C448.718292,275.619568 447.345062,281.903687 445.740906,288.467041 
z"/>
<path fill="#FAF8FA" opacity="1.000000" stroke="none" 
	d="
M307.788910,281.464844 
	C307.128174,283.420837 306.653473,285.019379 305.967468,286.521393 
	C300.999207,297.399750 291.970428,299.358978 283.275787,291.261627 
	C282.106293,290.172485 281.418854,287.856995 281.565552,286.203125 
	C281.930786,282.084930 282.913361,278.022186 283.634674,273.934784 
	C285.004211,266.174469 293.268494,259.983490 301.201141,260.746704 
	C306.035980,261.211884 308.369385,264.345337 308.621460,268.688690 
	C308.859222,272.785126 308.162689,276.935852 307.788910,281.464844 
z"/>
<path fill="#F6F3F7" opacity="1.000000" stroke="none" 
	d="
M402.792725,267.629944 
	C400.206940,270.196503 398.009003,273.519470 395.105286,274.337646 
	C389.691406,275.863098 383.867096,275.931976 377.990356,276.633728 
	C379.145477,266.088287 387.951782,258.818146 396.566498,260.380554 
	C400.367340,261.069885 403.078094,262.845825 402.792725,267.629944 
z"/>
<path fill="#F6F3F7" opacity="1.000000" stroke="none" 
	d="
M332.697784,276.080414 
	C332.117645,275.983154 331.830933,275.932953 331.826294,275.863800 
	C331.411987,269.689606 335.212799,265.844543 339.673309,262.737854 
	C343.998993,259.725098 348.953979,258.965271 353.755585,261.762329 
	C357.358063,263.860870 357.505371,269.352203 353.571045,271.765991 
	C350.170532,273.852295 346.014343,274.917755 342.051270,275.805420 
	C339.195038,276.445129 336.107361,276.051422 332.697784,276.080414 
z"/>
<path fill="#FAF9FB" opacity="1.000000" stroke="none" 
	d="
M164.249512,264.893250 
	C169.050156,274.458740 167.040771,283.059998 161.384186,290.960602 
	C157.711105,296.090790 151.100098,297.655426 145.220169,295.577850 
	C140.272415,293.829651 137.228836,289.550385 137.964508,282.765747 
	C138.554611,277.323608 139.854294,271.495941 142.568665,266.849792 
	C147.205704,258.912689 157.012741,258.333893 164.249512,264.893250 
z"/>
<path fill="#9481A5" opacity="1.000000" stroke="none" 
	d="
M467.666199,295.302673 
	C467.726227,294.996796 467.899292,294.812988 468.072327,294.629181 
	C468.167938,294.732849 468.263550,294.836487 468.359131,294.940125 
	C468.165833,295.101654 467.972565,295.263214 467.666199,295.302673 
z"/>
</svg>