<svg version="1.1" id="Layer_1" xmlns="http://www.w3.org/2000/svg" xmlns:xlink="http://www.w3.org/1999/xlink" x="0px" y="0px"
	 width="100%" viewBox="0 0 280 280" enable-background="new 0 0 280 280" xml:space="preserve">
<path fill="#FEFEFE" opacity="1.000000" stroke="none" 
	d="
M153.000000,281.000000 
	C102.000000,281.000000 51.500000,281.000000 1.000000,281.000000 
	C1.000000,187.666672 1.000000,94.333336 1.000000,1.000000 
	C94.333336,1.000000 187.666672,1.000000 281.000000,1.000000 
	C281.000000,94.333336 281.000000,187.666672 281.000000,281.000000 
	C238.500000,281.000000 196.000000,281.000000 153.000000,281.000000 
M103.956558,263.757538 
	C111.026039,264.863159 115.325005,262.847290 116.918587,257.679382 
	C118.589432,252.260941 116.546364,247.936829 110.299934,244.846848 
	C103.829033,244.137512 99.830299,246.135544 98.212067,250.886749 
	C96.481293,255.968369 98.348183,260.353668 103.956558,263.757538 
M240.299530,245.800461 
	C233.263916,243.585739 228.809998,245.063416 226.583618,250.351013 
	C224.433319,255.457932 226.287567,260.259644 232.027466,263.739044 
	C238.669601,264.818939 242.708801,263.215942 244.717178,258.703064 
	C246.719925,254.202835 245.314346,249.499756 240.299530,245.800461 
M213.895126,261.849152 
	C217.726212,256.914551 218.088150,251.867874 214.892456,247.943451 
	C211.838531,244.193146 207.378738,243.533539 201.343735,246.192230 
	C196.573212,251.029007 195.891708,256.395142 199.484314,260.833130 
	C202.770905,264.893097 208.054108,265.389008 213.895126,261.849152 
M140.932800,252.240631 
	C140.460373,250.658615 140.103256,249.028717 139.473389,247.512085 
	C139.078995,246.562393 138.274139,245.783173 137.653427,244.927460 
	C136.910721,245.837891 135.845016,246.636353 135.483521,247.678970 
	C134.199600,251.381912 133.155777,255.168121 131.736557,259.863983 
	C129.828735,254.134506 128.260483,249.424744 126.692215,244.714981 
	C126.101692,244.943527 125.511169,245.172073 124.920647,245.400620 
	C126.826004,251.676804 128.731354,257.952972 130.636703,264.229126 
	C131.246140,264.252808 131.855560,264.276489 132.464996,264.300171 
	C134.063736,259.338623 135.662476,254.377045 137.407257,248.962250 
	C138.083267,250.591644 138.578400,251.785049 139.082153,253.751251 
	C140.203568,257.235443 141.324982,260.719635 142.446396,264.203857 
	C143.070023,264.210968 143.693634,264.218079 144.317245,264.225189 
	C146.200836,257.913086 148.084412,251.600983 149.968002,245.288879 
	C149.345520,245.073334 148.723022,244.857788 148.100540,244.642258 
	C146.625351,249.401215 145.150162,254.160187 143.384430,259.856445 
	C142.343353,256.968628 141.631989,254.995438 140.932800,252.240631 
M126.746788,19.063070 
	C125.278252,19.345043 123.812706,19.643755 122.340744,19.906561 
	C73.186241,28.682728 37.978153,76.688927 44.216106,126.433838 
	C51.102859,181.352615 100.289459,218.890839 155.153015,211.098648 
	C201.661087,204.493179 237.663055,163.455017 237.731033,116.348763 
	C237.772232,87.804062 227.535385,63.224106 206.363892,43.877758 
	C184.095230,23.528822 157.651398,15.360778 126.746788,19.063070 
M256.002350,245.206253 
	C256.002350,251.431656 256.002350,257.657074 256.002350,263.882477 
	C256.520111,263.895416 257.037872,263.908356 257.555664,263.921295 
	C257.702332,261.096008 257.849030,258.270752 257.995697,255.445450 
	C258.390045,255.151505 258.784393,254.857559 259.178741,254.563629 
	C261.778687,257.801758 264.378662,261.039856 266.978638,264.277985 
	C267.325439,263.987427 267.672272,263.696869 268.019104,263.406342 
	C266.515533,260.746948 265.011963,258.087585 263.508423,255.428207 
	C263.924072,255.540268 264.339722,255.652344 264.755371,255.764420 
	C265.690826,253.400009 267.556915,250.951782 267.353180,248.689987 
	C267.010193,244.882034 263.424866,244.853638 260.343811,244.873245 
	C259.181122,244.880646 258.018494,244.901276 256.002350,245.206253 
M181.539642,263.411987 
	C187.468475,260.983490 189.769730,256.769836 188.117722,251.367371 
	C186.452911,245.923004 181.285309,243.934174 172.538177,245.441254 
	C172.538177,251.495453 172.538177,257.567871 172.538177,263.710571 
	C175.502029,263.710571 178.135635,263.710571 181.539642,263.411987 
M43.414070,246.927017 
	C45.344917,246.806198 47.275764,246.685379 49.206612,246.564575 
	C49.169933,246.140701 49.133251,245.716843 49.096573,245.292969 
	C45.353252,245.292969 41.609936,245.292969 37.897972,245.292969 
	C37.897972,251.622055 37.897972,257.676544 37.897972,263.424683 
	C42.009624,263.424683 45.783070,263.424683 49.556515,263.424683 
	C49.575047,263.018738 49.593582,262.612793 49.612118,262.206879 
	C46.349709,262.021881 43.087299,261.836914 39.356197,261.625366 
	C39.788765,258.970367 40.158615,256.700287 40.555981,254.261337 
	C40.004723,252.487778 39.264828,250.107315 38.401318,247.329163 
	C40.295368,247.145081 41.411667,247.036591 43.414070,246.927017 
M59.726437,252.618713 
	C59.726437,256.338318 59.726437,260.057953 59.726437,263.243774 
	C63.775723,263.243774 67.100418,263.243774 70.425117,263.243774 
	C70.390495,262.809875 70.355873,262.376007 70.321251,261.942108 
	C67.629074,261.942108 64.936890,261.942108 61.385357,261.942108 
	C61.385357,255.934937 61.385357,250.466949 61.385357,244.998962 
	C60.832462,245.013306 60.279564,245.027634 59.726669,245.041977 
	C59.726669,247.255569 59.726669,249.469177 59.726437,252.618713 
M79.161232,256.430725 
	C79.161232,258.862122 79.161232,261.293549 79.161232,263.355927 
	C83.256477,263.355927 86.621246,263.355927 89.986008,263.355927 
	C89.992554,262.970093 89.999092,262.584259 90.005638,262.198425 
	C87.188950,261.990936 84.372261,261.783447 80.903137,261.527893 
	C80.903137,255.855515 80.903137,250.404266 80.903137,244.953003 
	C80.322754,244.963654 79.742363,244.974289 79.161980,244.984940 
	C79.161980,248.480118 79.161980,251.975281 79.161232,256.430725 
M27.746073,245.890457 
	C27.904045,246.025375 28.088737,246.141907 28.202566,246.307236 
	C28.233921,246.352722 28.075321,246.568207 27.967297,246.664749 
	C25.618958,248.763519 23.265430,250.856476 20.908682,252.954315 
	C18.874073,250.074219 16.961082,247.366287 15.048094,244.658356 
	C14.574726,244.950943 14.101359,245.243546 13.627993,245.536148 
	C15.177672,248.069672 16.610481,250.687042 18.336905,253.093796 
	C18.990330,254.004745 20.839598,255.203079 21.245731,254.930817 
	C22.449099,254.124100 23.279467,252.698929 24.117783,251.424850 
	C25.260958,249.687439 26.276840,247.866241 27.746073,245.890457 
z"/>
<path fill="#B8A272" opacity="1.000000" stroke="none" 
	d="
M127.192871,19.030907 
	C157.651398,15.360778 184.095230,23.528822 206.363892,43.877758 
	C227.535385,63.224106 237.772232,87.804062 237.731033,116.348763 
	C237.663055,163.455017 201.661087,204.493179 155.153015,211.098648 
	C100.289459,218.890839 51.102859,181.352615 44.216106,126.433838 
	C37.978153,76.688927 73.186241,28.682728 122.340744,19.906561 
	C123.812706,19.643755 125.278252,19.345043 127.192871,19.030907 
M176.520996,155.041885 
	C193.909805,138.065964 198.924149,115.177345 190.058426,94.231628 
	C182.429779,76.208595 162.892044,60.174065 136.432617,61.725422 
	C107.445351,63.424995 82.954750,92.473045 87.289230,121.115616 
	C90.490662,142.270935 101.711777,157.596756 121.795349,165.247772 
	C141.506195,172.756775 159.748611,168.931274 176.520996,155.041885 
z"/>
<path fill="#2A2A2A" opacity="1.000000" stroke="none" 
	d="
M256.429077,245.061066 
	C258.018494,244.901276 259.181122,244.880646 260.343811,244.873245 
	C263.424866,244.853638 267.010193,244.882034 267.353180,248.689987 
	C267.556915,250.951782 265.690826,253.400009 264.755371,255.764420 
	C264.339722,255.652344 263.924072,255.540268 263.508423,255.428207 
	C265.011963,258.087585 266.515533,260.746948 268.019104,263.406342 
	C267.672272,263.696869 267.325439,263.987427 266.978638,264.277985 
	C264.378662,261.039856 261.778687,257.801758 259.178741,254.563629 
	C258.784393,254.857559 258.390045,255.151505 257.995697,255.445450 
	C257.849030,258.270752 257.702332,261.096008 257.555664,263.921295 
	C257.037872,263.908356 256.520111,263.895416 256.002350,263.882477 
	C256.002350,257.657074 256.002350,251.431656 256.429077,245.061066 
M260.334595,253.062958 
	C262.670929,253.034485 265.650635,253.087601 265.156342,249.849060 
	C264.491394,245.492371 260.812531,247.405502 256.785034,246.683807 
	C257.940887,249.474655 258.686096,251.274033 260.334595,253.062958 
z"/>
<path fill="#292929" opacity="1.000000" stroke="none" 
	d="
M181.154449,263.561279 
	C178.135635,263.710571 175.502029,263.710571 172.538177,263.710571 
	C172.538177,257.567871 172.538177,251.495453 172.538177,245.441254 
	C181.285309,243.934174 186.452911,245.923004 188.117722,251.367371 
	C189.769730,256.769836 187.468475,260.983490 181.154449,263.561279 
M184.746353,259.030792 
	C184.736938,255.938644 185.926865,251.875961 184.411072,250.002792 
	C182.563385,247.719452 178.440857,247.276932 174.625748,245.771240 
	C174.625748,252.152588 174.625748,256.888641 174.625748,262.827148 
	C178.208069,261.621887 181.194702,260.617035 184.746353,259.030792 
z"/>
<path fill="#282828" opacity="1.000000" stroke="none" 
	d="
M139.073517,252.978455 
	C138.578400,251.785049 138.083267,250.591644 137.407257,248.962250 
	C135.662476,254.377045 134.063736,259.338623 132.464996,264.300171 
	C131.855560,264.276489 131.246140,264.252808 130.636703,264.229126 
	C128.731354,257.952972 126.826004,251.676804 124.920647,245.400620 
	C125.511169,245.172073 126.101692,244.943527 126.692215,244.714981 
	C128.260483,249.424744 129.828735,254.134506 131.736557,259.863983 
	C133.155777,255.168121 134.199600,251.381912 135.483521,247.678970 
	C135.845016,246.636353 136.910721,245.837891 137.653442,244.927460 
	C138.274139,245.783173 139.078995,246.562393 139.473389,247.512085 
	C140.103256,249.028717 140.460373,250.658615 140.618927,252.621780 
	C139.894531,252.994766 139.484024,252.986618 139.073517,252.978455 
z"/>
<path fill="#202020" opacity="1.000000" stroke="none" 
	d="
M42.971020,246.927551 
	C41.411667,247.036591 40.295368,247.145081 38.401318,247.329163 
	C39.264828,250.107315 40.004723,252.487778 40.555981,254.261337 
	C40.158615,256.700287 39.788765,258.970367 39.356197,261.625366 
	C43.087299,261.836914 46.349709,262.021881 49.612118,262.206879 
	C49.593582,262.612793 49.575047,263.018738 49.556515,263.424683 
	C45.783070,263.424683 42.009624,263.424683 37.897972,263.424683 
	C37.897972,257.676544 37.897972,251.622055 37.897972,245.292969 
	C41.609936,245.292969 45.353252,245.292969 49.096573,245.292969 
	C49.133251,245.716843 49.169933,246.140701 49.206612,246.564575 
	C47.275764,246.685379 45.344917,246.806198 42.971020,246.927551 
z"/>
<path fill="#262626" opacity="1.000000" stroke="none" 
	d="
M139.077835,253.364853 
	C139.484024,252.986618 139.894531,252.994766 140.612823,253.012573 
	C141.631989,254.995438 142.343353,256.968628 143.384430,259.856445 
	C145.150162,254.160187 146.625351,249.401215 148.100540,244.642258 
	C148.723022,244.857788 149.345520,245.073334 149.968002,245.288879 
	C148.084412,251.600983 146.200836,257.913086 144.317245,264.225189 
	C143.693634,264.218079 143.070023,264.210968 142.446396,264.203857 
	C141.324982,260.719635 140.203568,257.235443 139.077835,253.364853 
z"/>
<path fill="#2C2C2C" opacity="1.000000" stroke="none" 
	d="
M213.268219,262.126923 
	C208.054108,265.389008 202.770905,264.893097 199.484314,260.833130 
	C195.891708,256.395142 196.573212,251.029007 201.835052,246.368927 
	C202.661392,246.751282 202.996399,246.956924 203.106659,247.458038 
	C199.000259,250.918640 198.645020,254.951202 201.026108,258.882050 
	C203.691147,263.281677 207.825897,262.889099 212.128922,261.209259 
	C212.605759,261.690308 212.936996,261.908630 213.268219,262.126923 
z"/>
<path fill="#232323" opacity="1.000000" stroke="none" 
	d="
M59.726555,252.150757 
	C59.726669,249.469177 59.726669,247.255569 59.726669,245.041977 
	C60.279564,245.027634 60.832462,245.013306 61.385357,244.998962 
	C61.385357,250.466949 61.385357,255.934937 61.385357,261.942108 
	C64.936890,261.942108 67.629074,261.942108 70.321251,261.942108 
	C70.355873,262.376007 70.390495,262.809875 70.425117,263.243774 
	C67.100418,263.243774 63.775723,263.243774 59.726437,263.243774 
	C59.726437,260.057953 59.726437,256.338318 59.726555,252.150757 
z"/>
<path fill="#242424" opacity="1.000000" stroke="none" 
	d="
M231.539444,263.184631 
	C226.287567,260.259644 224.433319,255.457932 226.583618,250.351013 
	C228.809998,245.063416 233.263916,243.585739 240.465851,246.214020 
	C240.298157,246.814499 239.964127,247.001419 239.212677,247.107010 
	C234.426117,245.521698 231.001694,246.607117 228.923203,250.853760 
	C226.847870,255.093933 228.206589,258.669739 232.815582,262.330963 
	C232.269943,262.786774 231.904694,262.985687 231.539444,263.184631 
z"/>
<path fill="#262626" opacity="1.000000" stroke="none" 
	d="
M213.581665,261.988037 
	C212.936996,261.908630 212.605759,261.690308 212.306061,260.904083 
	C215.393372,256.903931 215.730576,253.149597 213.155121,249.416229 
	C210.670715,245.814804 207.060043,245.952057 203.331421,247.162582 
	C202.996399,246.956924 202.661392,246.751282 202.170914,246.292267 
	C207.378738,243.533539 211.838531,244.193146 214.892456,247.943451 
	C218.088150,251.867874 217.726212,256.914551 213.581665,261.988037 
z"/>
<path fill="#2C2C2C" opacity="1.000000" stroke="none" 
	d="
M79.161606,255.950592 
	C79.161980,251.975281 79.161980,248.480118 79.161980,244.984940 
	C79.742363,244.974289 80.322754,244.963654 80.903137,244.953003 
	C80.903137,250.404266 80.903137,255.855515 80.903137,261.527893 
	C84.372261,261.783447 87.188950,261.990936 90.005638,262.198425 
	C89.999092,262.584259 89.992554,262.970093 89.986008,263.355927 
	C86.621246,263.355927 83.256477,263.355927 79.161232,263.355927 
	C79.161232,261.293549 79.161232,258.862122 79.161606,255.950592 
z"/>
<path fill="#1D1D1D" opacity="1.000000" stroke="none" 
	d="
M103.460266,263.214722 
	C98.348183,260.353668 96.481293,255.968369 98.212067,250.886749 
	C99.830299,246.135544 103.829033,244.137512 110.649467,245.294510 
	C111.002846,246.147324 111.006683,246.552460 110.573608,246.891907 
	C105.598068,245.526810 102.267883,247.033722 100.473404,251.356354 
	C98.742790,255.525162 100.304375,258.973816 104.796692,262.372009 
	C104.221237,262.823792 103.840752,263.019257 103.460266,263.214722 
z"/>
<path fill="#282828" opacity="1.000000" stroke="none" 
	d="
M103.708412,263.486145 
	C103.840752,263.019257 104.221237,262.823792 105.219650,262.364441 
	C109.706017,262.717773 112.866997,261.574371 114.368233,257.828918 
	C116.120728,253.456650 114.826012,249.749756 111.010529,246.957611 
	C111.006683,246.552460 111.002846,246.147324 110.995155,245.438324 
	C116.546364,247.936829 118.589432,252.260941 116.918587,257.679382 
	C115.325005,262.847290 111.026039,264.863159 103.708412,263.486145 
z"/>
<path fill="#2B2B2B" opacity="1.000000" stroke="none" 
	d="
M239.630112,247.188339 
	C239.964127,247.001419 240.298157,246.814499 240.799927,246.392487 
	C245.314346,249.499756 246.719925,254.202835 244.717178,258.703064 
	C242.708801,263.215942 238.669601,264.818939 231.783447,263.461853 
	C231.904694,262.985687 232.269943,262.786774 233.238770,262.331787 
	C237.700699,262.700409 240.947464,261.685272 242.471130,257.893585 
	C244.123352,253.781937 243.098541,250.088425 239.630112,247.188339 
z"/>
<path fill="#252525" opacity="1.000000" stroke="none" 
	d="
M27.546690,245.985718 
	C26.276840,247.866241 25.260958,249.687439 24.117783,251.424850 
	C23.279467,252.698929 22.449099,254.124100 21.245731,254.930817 
	C20.839598,255.203079 18.990330,254.004745 18.336905,253.093796 
	C16.610481,250.687042 15.177672,248.069672 13.627993,245.536148 
	C14.101359,245.243546 14.574726,244.950943 15.048094,244.658356 
	C16.961082,247.366287 18.874073,250.074219 20.908682,252.954315 
	C23.265430,250.856476 25.618958,248.763519 27.967297,246.664749 
	C28.075321,246.568207 28.233921,246.352722 28.202566,246.307236 
	C28.088737,246.141907 27.904045,246.025375 27.546690,245.985718 
z"/>
<path fill="#FEFEFE" opacity="1.000000" stroke="none" 
	d="
M176.254715,155.279480 
	C159.748611,168.931274 141.506195,172.756775 121.795349,165.247772 
	C101.711777,157.596756 90.490662,142.270935 87.289230,121.115616 
	C82.954750,92.473045 107.445351,63.424995 136.432617,61.725422 
	C162.892044,60.174065 182.429779,76.208595 190.058426,94.231628 
	C198.924149,115.177345 193.909805,138.065964 176.254715,155.279480 
z"/>
<path fill="#F9F9F9" opacity="1.000000" stroke="none" 
	d="
M259.882935,253.068176 
	C258.686096,251.274033 257.940887,249.474655 256.785034,246.683807 
	C260.812531,247.405502 264.491394,245.492371 265.156342,249.849060 
	C265.650635,253.087601 262.670929,253.034485 259.882935,253.068176 
z"/>
<path fill="#F0F0F0" opacity="1.000000" stroke="none" 
	d="
M184.463837,259.321472 
	C181.194702,260.617035 178.208069,261.621887 174.625748,262.827148 
	C174.625748,256.888641 174.625748,252.152588 174.625748,245.771240 
	C178.440857,247.276932 182.563385,247.719452 184.411072,250.002792 
	C185.926865,251.875961 184.736938,255.938644 184.463837,259.321472 
z"/>
<path fill="#F6F6F6" opacity="1.000000" stroke="none" 
	d="
M203.106659,247.458038 
	C207.060043,245.952057 210.670715,245.814804 213.155121,249.416229 
	C215.730576,253.149597 215.393372,256.903931 212.160461,260.641327 
	C207.825897,262.889099 203.691147,263.281677 201.026108,258.882050 
	C198.645020,254.951202 199.000259,250.918640 203.106659,247.458038 
z"/>
<path fill="#F7F7F7" opacity="1.000000" stroke="none" 
	d="
M239.212677,247.107010 
	C243.098541,250.088425 244.123352,253.781937 242.471130,257.893585 
	C240.947464,261.685272 237.700699,262.700409 233.419144,262.074921 
	C228.206589,258.669739 226.847870,255.093933 228.923203,250.853760 
	C231.001694,246.607117 234.426117,245.521698 239.212677,247.107010 
z"/>
<path fill="#F5F5F5" opacity="1.000000" stroke="none" 
	d="
M110.573608,246.891907 
	C114.826012,249.749756 116.120728,253.456650 114.368233,257.828918 
	C112.866997,261.574371 109.706017,262.717773 105.414627,262.108093 
	C100.304375,258.973816 98.742790,255.525162 100.473404,251.356354 
	C102.267883,247.033722 105.598068,245.526810 110.573608,246.891907 
z"/>
</svg>